<?xml version="1.0" encoding="UTF-8" standalone="no"?>
<!DOCTYPE svg PUBLIC "-//W3C//DTD SVG 1.1//EN"
 "http://www.w3.org/Graphics/SVG/1.1/DTD/svg11.dtd">
<!-- Generated by graphviz version 7.0.6 (20230106.0513)
 -->
<!-- Title: alpha_classic_net_1689251154.6241071 Pages: 1 -->
<svg width="2201pt" height="184pt"
 viewBox="0.00 0.00 2201.00 184.00" xmlns="http://www.w3.org/2000/svg" xmlns:xlink="http://www.w3.org/1999/xlink">
<g id="graph0" class="graph" transform="scale(1 1) rotate(0) translate(4 180)">
<title>alpha_classic_net_1689251154.6241071</title>
<polygon fill="white" stroke="none" points="-4,4 -4,-180 2197,-180 2197,4 -4,4"/>
<!-- 140385390938912 -->
<g id="node1" class="node">
<title>140385390938912</title>
<polygon fill="white" stroke="black" points="1616,-140 1527,-140 1527,-104 1616,-104 1616,-140"/>
<text text-anchor="middle" x="1571.5" y="-118.9" font-family="Times,serif" font-size="12.00">back&#45;order part</text>
</g>
<!-- 140385390961712 -->
<g id="node15" class="node">
<title>140385390961712</title>
<ellipse fill="white" stroke="black" cx="1679" cy="-73" rx="27" ry="27"/>
</g>
<!-- 140385390938912&#45;&gt;140385390961712 -->
<g id="edge14" class="edge">
<title>140385390938912&#45;&gt;140385390961712</title>
<path fill="none" stroke="black" d="M1612.08,-103.61C1622.59,-98.74 1633.83,-93.51 1644.01,-88.79"/>
<polygon fill="black" stroke="black" points="1645.18,-92.1 1652.77,-84.72 1642.23,-85.75 1645.18,-92.1"/>
</g>
<!-- 140385390938432 -->
<g id="node2" class="node">
<title>140385390938432</title>
<polygon fill="white" stroke="black" points="1401,-115 1215,-115 1215,-79 1401,-79 1401,-115"/>
<text text-anchor="middle" x="1308" y="-93.9" font-family="Times,serif" font-size="12.00">check required quantity of each part</text>
</g>
<!-- 140385390961664 -->
<g id="node16" class="node">
<title>140385390961664</title>
<ellipse fill="white" stroke="black" cx="1464" cy="-97" rx="27" ry="27"/>
</g>
<!-- 140385390938432&#45;&gt;140385390961664 -->
<g id="edge15" class="edge">
<title>140385390938432&#45;&gt;140385390961664</title>
<path fill="none" stroke="black" d="M1401.25,-97C1409.64,-97 1417.78,-97 1425.25,-97"/>
<polygon fill="black" stroke="black" points="1425.22,-100.5 1435.22,-97 1425.22,-93.5 1425.22,-100.5"/>
</g>
<!-- 140385390938720 -->
<g id="node3" class="node">
<title>140385390938720</title>
<polygon fill="white" stroke="black" points="1607,-86 1536,-86 1536,-50 1607,-50 1607,-86"/>
<text text-anchor="middle" x="1571.5" y="-64.9" font-family="Times,serif" font-size="12.00">reserve part</text>
</g>
<!-- 140385390938720&#45;&gt;140385390961712 -->
<g id="edge22" class="edge">
<title>140385390938720&#45;&gt;140385390961712</title>
<path fill="none" stroke="black" d="M1607.34,-69.65C1617.92,-70.15 1629.58,-70.71 1640.34,-71.22"/>
<polygon fill="black" stroke="black" points="1639.89,-74.7 1650.04,-71.68 1640.22,-67.71 1639.89,-74.7"/>
</g>
<!-- 140385390938816 -->
<g id="node4" class="node">
<title>140385390938816</title>
<polygon fill="white" stroke="black" points="1089,-167 872,-167 872,-131 1089,-131 1089,-167"/>
<text text-anchor="middle" x="980.5" y="-145.9" font-family="Times,serif" font-size="12.00">prepare for assembling the ordered bicycle</text>
</g>
<!-- 140385390961472 -->
<g id="node19" class="node">
<title>140385390961472</title>
<ellipse fill="white" stroke="black" cx="1152" cy="-149" rx="27" ry="27"/>
</g>
<!-- 140385390938816&#45;&gt;140385390961472 -->
<g id="edge18" class="edge">
<title>140385390938816&#45;&gt;140385390961472</title>
<path fill="none" stroke="black" d="M1089.33,-149C1097.79,-149 1105.93,-149 1113.36,-149"/>
<polygon fill="black" stroke="black" points="1113.24,-152.5 1123.24,-149 1113.24,-145.5 1113.24,-152.5"/>
</g>
<!-- 140385390939008 -->
<g id="node5" class="node">
<title>140385390939008</title>
<polygon fill="white" stroke="black" points="746,-99 510,-99 510,-63 746,-63 746,-99"/>
<text text-anchor="middle" x="628" y="-77.9" font-family="Times,serif" font-size="12.00">inform storehouse and engineering department</text>
</g>
<!-- 140385390936656 -->
<g id="node17" class="node">
<title>140385390936656</title>
<ellipse fill="white" stroke="black" cx="809" cy="-149" rx="27" ry="27"/>
</g>
<!-- 140385390939008&#45;&gt;140385390936656 -->
<g id="edge16" class="edge">
<title>140385390939008&#45;&gt;140385390936656</title>
<path fill="none" stroke="black" d="M677.44,-99.4C707.47,-110.81 745.37,-125.21 772.59,-135.55"/>
<polygon fill="black" stroke="black" points="771.18,-138.76 781.77,-139.04 773.67,-132.21 771.18,-138.76"/>
</g>
<!-- 140385390942144 -->
<g id="node18" class="node">
<title>140385390942144</title>
<ellipse fill="white" stroke="black" cx="809" cy="-77" rx="27" ry="27"/>
</g>
<!-- 140385390939008&#45;&gt;140385390942144 -->
<g id="edge17" class="edge">
<title>140385390939008&#45;&gt;140385390942144</title>
<path fill="none" stroke="black" d="M746.4,-78.38C754.86,-78.19 762.95,-78.01 770.32,-77.84"/>
<polygon fill="black" stroke="black" points="770.2,-81.35 780.12,-77.62 770.04,-74.35 770.2,-81.35"/>
</g>
<!-- 140385390939200 -->
<g id="node6" class="node">
<title>140385390939200</title>
<polygon fill="white" stroke="black" points="1045.5,-95 915.5,-95 915.5,-59 1045.5,-59 1045.5,-95"/>
<text text-anchor="middle" x="980.5" y="-73.9" font-family="Times,serif" font-size="12.00">process part list of order</text>
</g>
<!-- 140385390941136 -->
<g id="node20" class="node">
<title>140385390941136</title>
<ellipse fill="white" stroke="black" cx="1152" cy="-77" rx="27" ry="27"/>
</g>
<!-- 140385390939200&#45;&gt;140385390941136 -->
<g id="edge19" class="edge">
<title>140385390939200&#45;&gt;140385390941136</title>
<path fill="none" stroke="black" d="M1045.58,-77C1068.51,-77 1093.6,-77 1113.54,-77"/>
<polygon fill="black" stroke="black" points="1113.42,-80.5 1123.42,-77 1113.42,-73.5 1113.42,-80.5"/>
</g>
<!-- 140385390938528 -->
<g id="node7" class="node">
<title>140385390938528</title>
<polygon fill="white" stroke="black" points="1838,-91 1742,-91 1742,-55 1838,-55 1838,-91"/>
<text text-anchor="middle" x="1790" y="-69.9" font-family="Times,serif" font-size="12.00">assemble bicycle</text>
</g>
<!-- 140385390940896 -->
<g id="node14" class="node">
<title>140385390940896</title>
<ellipse fill="white" stroke="black" cx="1901" cy="-73" rx="27" ry="27"/>
</g>
<!-- 140385390938528&#45;&gt;140385390940896 -->
<g id="edge13" class="edge">
<title>140385390938528&#45;&gt;140385390940896</title>
<path fill="none" stroke="black" d="M1838.49,-73C1846.4,-73 1854.5,-73 1862.13,-73"/>
<polygon fill="black" stroke="black" points="1862.11,-76.5 1872.11,-73 1862.11,-69.5 1862.11,-76.5"/>
</g>
<!-- 140385390936320 -->
<g id="node8" class="node">
<title>140385390936320</title>
<polygon fill="white" stroke="black" points="368,-94 294,-94 294,-58 368,-58 368,-94"/>
<text text-anchor="middle" x="331" y="-72.9" font-family="Times,serif" font-size="12.00">accept order</text>
</g>
<!-- 140385390936800 -->
<g id="node13" class="node">
<title>140385390936800</title>
<ellipse fill="white" stroke="black" cx="439" cy="-81" rx="27" ry="27"/>
</g>
<!-- 140385390936320&#45;&gt;140385390936800 -->
<g id="edge12" class="edge">
<title>140385390936320&#45;&gt;140385390936800</title>
<path fill="none" stroke="black" d="M368.48,-77.72C378.83,-78.21 390.13,-78.74 400.54,-79.23"/>
<polygon fill="black" stroke="black" points="400.16,-82.72 410.31,-79.69 400.49,-75.73 400.16,-82.72"/>
</g>
<!-- 140385390936992 -->
<g id="node9" class="node">
<title>140385390936992</title>
<polygon fill="white" stroke="black" points="2095,-86 1964,-86 1964,-50 2095,-50 2095,-86"/>
<text text-anchor="middle" x="2029.5" y="-64.9" font-family="Times,serif" font-size="12.00">ship bicycle to customer</text>
</g>
<!-- 140385390936416 -->
<g id="node22" class="node">
<title>140385390936416</title>
<ellipse fill="white" stroke="black" cx="2162" cy="-41" rx="27" ry="27"/>
<ellipse fill="none" stroke="black" cx="2162" cy="-41" rx="31" ry="31"/>
<text text-anchor="start" x="2152" y="-32.9" font-family="Times,serif" font-size="32.00">■</text>
</g>
<!-- 140385390936992&#45;&gt;140385390936416 -->
<g id="edge23" class="edge">
<title>140385390936992&#45;&gt;140385390936416</title>
<path fill="none" stroke="black" d="M2095.37,-54.58C2103.79,-52.84 2112.22,-51.09 2120.1,-49.46"/>
<polygon fill="black" stroke="black" points="2120.62,-52.93 2129.7,-47.48 2119.2,-46.07 2120.62,-52.93"/>
</g>
<!-- 140385390936608 -->
<g id="node10" class="node">
<title>140385390936608</title>
<polygon fill="white" stroke="black" points="474,-36 404,-36 404,0 474,0 474,-36"/>
<text text-anchor="middle" x="439" y="-14.9" font-family="Times,serif" font-size="12.00">reject order</text>
</g>
<!-- 140385390936608&#45;&gt;140385390936416 -->
<g id="edge21" class="edge">
<title>140385390936608&#45;&gt;140385390936416</title>
<path fill="none" stroke="black" d="M474.5,-18C539.67,-18 685.33,-18 808,-18 808,-18 808,-18 1902,-18 1979.27,-18 2069,-28.28 2119.98,-35.1"/>
<polygon fill="black" stroke="black" points="2119.28,-38.53 2129.67,-36.42 2120.23,-31.6 2119.28,-38.53"/>
</g>
<!-- 140385390938192 -->
<g id="node11" class="node">
<title>140385390938192</title>
<polygon fill="white" stroke="black" points="168,-67 90,-67 90,-31 168,-31 168,-67"/>
<text text-anchor="middle" x="129" y="-45.9" font-family="Times,serif" font-size="12.00">receive order</text>
</g>
<!-- 140385390962528 -->
<g id="node21" class="node">
<title>140385390962528</title>
<ellipse fill="white" stroke="black" cx="231" cy="-49" rx="27" ry="27"/>
</g>
<!-- 140385390938192&#45;&gt;140385390962528 -->
<g id="edge20" class="edge">
<title>140385390938192&#45;&gt;140385390962528</title>
<path fill="none" stroke="black" d="M168.38,-49C176.2,-49 184.43,-49 192.24,-49"/>
<polygon fill="black" stroke="black" points="192.14,-52.5 202.14,-49 192.14,-45.5 192.14,-52.5"/>
</g>
<!-- 140385390938336 -->
<g id="node12" class="node">
<title>140385390938336</title>
<ellipse fill="white" stroke="black" cx="27" cy="-49" rx="27" ry="27"/>
<text text-anchor="start" x="16.5" y="-40.3" font-family="Times,serif" font-size="34.00">●</text>
</g>
<!-- 140385390938336&#45;&gt;140385390938192 -->
<g id="edge24" class="edge">
<title>140385390938336&#45;&gt;140385390938192</title>
<path fill="none" stroke="black" d="M54.27,-49C61.75,-49 70.15,-49 78.54,-49"/>
<polygon fill="black" stroke="black" points="78.35,-52.5 88.35,-49 78.35,-45.5 78.35,-52.5"/>
</g>
<!-- 140385390936800&#45;&gt;140385390939008 -->
<g id="edge1" class="edge">
<title>140385390936800&#45;&gt;140385390939008</title>
<path fill="none" stroke="black" d="M466.4,-81C475.47,-81 486.34,-81 498.08,-81"/>
<polygon fill="black" stroke="black" points="498.05,-84.5 508.05,-81 498.05,-77.5 498.05,-84.5"/>
</g>
<!-- 140385390940896&#45;&gt;140385390936992 -->
<g id="edge2" class="edge">
<title>140385390940896&#45;&gt;140385390936992</title>
<path fill="none" stroke="black" d="M1928.21,-71.96C1935.46,-71.68 1943.7,-71.35 1952.28,-71.01"/>
<polygon fill="black" stroke="black" points="1952.33,-74.51 1962.19,-70.62 1952.06,-67.52 1952.33,-74.51"/>
</g>
<!-- 140385390961712&#45;&gt;140385390938528 -->
<g id="edge3" class="edge">
<title>140385390961712&#45;&gt;140385390938528</title>
<path fill="none" stroke="black" d="M1706.39,-73C1713.66,-73 1721.86,-73 1730.19,-73"/>
<polygon fill="black" stroke="black" points="1730.05,-76.5 1740.05,-73 1730.05,-69.5 1730.05,-76.5"/>
</g>
<!-- 140385390961664&#45;&gt;140385390938912 -->
<g id="edge4" class="edge">
<title>140385390961664&#45;&gt;140385390938912</title>
<path fill="none" stroke="black" d="M1490.81,-103.12C1498.44,-104.92 1507.11,-106.98 1515.84,-109.05"/>
<polygon fill="black" stroke="black" points="1514.86,-112.41 1525.4,-111.31 1516.47,-105.6 1514.86,-112.41"/>
</g>
<!-- 140385390961664&#45;&gt;140385390938720 -->
<g id="edge5" class="edge">
<title>140385390961664&#45;&gt;140385390938720</title>
<path fill="none" stroke="black" d="M1490.54,-89.98C1500.8,-87.16 1512.95,-83.82 1524.64,-80.61"/>
<polygon fill="black" stroke="black" points="1525.46,-84.01 1534.17,-77.99 1523.6,-77.26 1525.46,-84.01"/>
</g>
<!-- 140385390936656&#45;&gt;140385390938816 -->
<g id="edge6" class="edge">
<title>140385390936656&#45;&gt;140385390938816</title>
<path fill="none" stroke="black" d="M836.48,-149C843.55,-149 851.67,-149 860.38,-149"/>
<polygon fill="black" stroke="black" points="860.16,-152.5 870.16,-149 860.16,-145.5 860.16,-152.5"/>
</g>
<!-- 140385390942144&#45;&gt;140385390939200 -->
<g id="edge7" class="edge">
<title>140385390942144&#45;&gt;140385390939200</title>
<path fill="none" stroke="black" d="M836.48,-77C854.65,-77 879.74,-77 903.83,-77"/>
<polygon fill="black" stroke="black" points="903.66,-80.5 913.66,-77 903.66,-73.5 903.66,-80.5"/>
</g>
<!-- 140385390961472&#45;&gt;140385390938432 -->
<g id="edge8" class="edge">
<title>140385390961472&#45;&gt;140385390938432</title>
<path fill="none" stroke="black" d="M1178.09,-140.53C1195.3,-134.72 1218.99,-126.72 1241.37,-119.16"/>
<polygon fill="black" stroke="black" points="1242.43,-122.5 1250.78,-115.98 1240.19,-115.87 1242.43,-122.5"/>
</g>
<!-- 140385390941136&#45;&gt;140385390938432 -->
<g id="edge9" class="edge">
<title>140385390941136&#45;&gt;140385390938432</title>
<path fill="none" stroke="black" d="M1179.12,-80.39C1186.3,-81.33 1194.55,-82.4 1203.33,-83.54"/>
<polygon fill="black" stroke="black" points="1202.82,-87 1213.19,-84.82 1203.72,-80.06 1202.82,-87"/>
</g>
<!-- 140385390962528&#45;&gt;140385390936320 -->
<g id="edge10" class="edge">
<title>140385390962528&#45;&gt;140385390936320</title>
<path fill="none" stroke="black" d="M257.49,-56.02C265.23,-58.15 273.99,-60.57 282.68,-62.96"/>
<polygon fill="black" stroke="black" points="281.54,-66.28 292.11,-65.56 283.4,-59.53 281.54,-66.28"/>
</g>
<!-- 140385390962528&#45;&gt;140385390936608 -->
<g id="edge11" class="edge">
<title>140385390962528&#45;&gt;140385390936608</title>
<path fill="none" stroke="black" d="M258.09,-45.07C291.84,-40 351.17,-31.07 392.43,-24.86"/>
<polygon fill="black" stroke="black" points="392.69,-28.36 402.06,-23.41 391.65,-21.44 392.69,-28.36"/>
</g>
</g>
</svg>
