<?xml version="1.0" encoding="UTF-8" standalone="no"?>
<!DOCTYPE svg PUBLIC "-//W3C//DTD SVG 1.1//EN"
 "http://www.w3.org/Graphics/SVG/1.1/DTD/svg11.dtd">
<!-- Generated by graphviz version 7.0.6 (20230106.0513)
 -->
<!-- Title: alpha_classic_net_1689259095.061067 Pages: 1 -->
<svg width="525pt" height="224pt"
 viewBox="0.00 0.00 525.00 224.00" xmlns="http://www.w3.org/2000/svg" xmlns:xlink="http://www.w3.org/1999/xlink">
<g id="graph0" class="graph" transform="scale(1 1) rotate(0) translate(4 220)">
<title>alpha_classic_net_1689259095.061067</title>
<polygon fill="white" stroke="none" points="-4,4 -4,-220 521,-220 521,4 -4,4"/>
<!-- 140246483249952 -->
<g id="node1" class="node">
<title>140246483249952</title>
<polygon fill="white" stroke="black" points="107,-90 0,-90 0,-54 107,-54 107,-90"/>
<text text-anchor="middle" x="53.5" y="-68.9" font-family="Times,serif" font-size="12.00">handover protocols</text>
</g>
<!-- 140246483248992 -->
<g id="node2" class="node">
<title>140246483248992</title>
<polygon fill="white" stroke="black" points="106,-144 1,-144 1,-108 106,-108 106,-144"/>
<text text-anchor="middle" x="53.5" y="-122.9" font-family="Times,serif" font-size="12.00">receive acceptance</text>
</g>
<!-- 140246483391824 -->
<g id="node9" class="node">
<title>140246483391824</title>
<ellipse fill="white" stroke="black" cx="185.5" cy="-126" rx="27" ry="27"/>
</g>
<!-- 140246483248992&#45;&gt;140246483391824 -->
<g id="edge4" class="edge">
<title>140246483248992&#45;&gt;140246483391824</title>
<path fill="none" stroke="black" d="M106.25,-126C119.91,-126 134.39,-126 147.13,-126"/>
<polygon fill="black" stroke="black" points="146.75,-129.5 156.75,-126 146.75,-122.5 146.75,-129.5"/>
</g>
<!-- 140246483740848 -->
<g id="node3" class="node">
<title>140246483740848</title>
<polygon fill="white" stroke="black" points="517,-207 407,-207 407,-171 517,-171 517,-207"/>
<text text-anchor="middle" x="462" y="-185.9" font-family="Times,serif" font-size="12.00">hand over protocols</text>
</g>
<!-- 140246483250960 -->
<g id="node4" class="node">
<title>140246483250960</title>
<polygon fill="white" stroke="black" points="364.5,-90 270.5,-90 270.5,-54 364.5,-54 364.5,-90"/>
<text text-anchor="middle" x="317.5" y="-68.9" font-family="Times,serif" font-size="12.00">receive rejection</text>
</g>
<!-- 140246483393312 -->
<g id="node11" class="node">
<title>140246483393312</title>
<ellipse fill="white" stroke="black" cx="462" cy="-72" rx="27" ry="27"/>
<ellipse fill="none" stroke="black" cx="462" cy="-72" rx="31" ry="31"/>
<text text-anchor="start" x="452" y="-63.9" font-family="Times,serif" font-size="32.00">■</text>
</g>
<!-- 140246483250960&#45;&gt;140246483393312 -->
<g id="edge5" class="edge">
<title>140246483250960&#45;&gt;140246483393312</title>
<path fill="none" stroke="black" d="M364.77,-72C382.33,-72 402.21,-72 419.33,-72"/>
<polygon fill="black" stroke="black" points="419.16,-75.5 429.16,-72 419.16,-68.5 419.16,-75.5"/>
</g>
<!-- 140246483249904 -->
<g id="node5" class="node">
<title>140246483249904</title>
<polygon fill="white" stroke="black" points="365,-36 270,-36 270,0 365,0 365,-36"/>
<text text-anchor="middle" x="317.5" y="-14.9" font-family="Times,serif" font-size="12.00">review protocols</text>
</g>
<!-- 140246483249904&#45;&gt;140246483393312 -->
<g id="edge6" class="edge">
<title>140246483249904&#45;&gt;140246483393312</title>
<path fill="none" stroke="black" d="M365.16,-35.68C383.58,-42.66 404.49,-50.59 422.08,-57.25"/>
<polygon fill="black" stroke="black" points="420.54,-60.41 431.13,-60.68 423.02,-53.86 420.54,-60.41"/>
</g>
<!-- 140246483250192 -->
<g id="node6" class="node">
<title>140246483250192</title>
<polygon fill="white" stroke="black" points="371,-144 264,-144 264,-108 371,-108 371,-144"/>
<text text-anchor="middle" x="317.5" y="-122.9" font-family="Times,serif" font-size="12.00">contact pharmacies</text>
</g>
<!-- 140246483250192&#45;&gt;140246483393312 -->
<g id="edge3" class="edge">
<title>140246483250192&#45;&gt;140246483393312</title>
<path fill="none" stroke="black" d="M367.14,-107.57C385,-100.8 404.97,-93.23 421.89,-86.82"/>
<polygon fill="black" stroke="black" points="422.98,-90.15 431.09,-83.33 420.5,-83.6 422.98,-90.15"/>
</g>
<!-- 140246483250768 -->
<g id="node7" class="node">
<title>140246483250768</title>
<polygon fill="white" stroke="black" points="228,-207 143,-207 143,-171 228,-171 228,-207"/>
<text text-anchor="middle" x="185.5" y="-185.9" font-family="Times,serif" font-size="12.00">send protocols</text>
</g>
<!-- 140246483392592 -->
<g id="node10" class="node">
<title>140246483392592</title>
<ellipse fill="white" stroke="black" cx="317.5" cy="-189" rx="27" ry="27"/>
</g>
<!-- 140246483250768&#45;&gt;140246483392592 -->
<g id="edge7" class="edge">
<title>140246483250768&#45;&gt;140246483392592</title>
<path fill="none" stroke="black" d="M228.35,-189C244.55,-189 262.97,-189 278.76,-189"/>
<polygon fill="black" stroke="black" points="278.74,-192.5 288.74,-189 278.74,-185.5 278.74,-192.5"/>
</g>
<!-- 140246483250336 -->
<g id="node8" class="node">
<title>140246483250336</title>
<ellipse fill="white" stroke="black" cx="53.5" cy="-189" rx="27" ry="27"/>
<text text-anchor="start" x="43" y="-180.3" font-family="Times,serif" font-size="34.00">●</text>
</g>
<!-- 140246483250336&#45;&gt;140246483250768 -->
<g id="edge8" class="edge">
<title>140246483250336&#45;&gt;140246483250768</title>
<path fill="none" stroke="black" d="M80.81,-189C95.35,-189 113.96,-189 131.39,-189"/>
<polygon fill="black" stroke="black" points="131.11,-192.5 141.11,-189 131.11,-185.5 131.11,-192.5"/>
</g>
<!-- 140246483391824&#45;&gt;140246483250192 -->
<g id="edge1" class="edge">
<title>140246483391824&#45;&gt;140246483250192</title>
<path fill="none" stroke="black" d="M212.81,-126C224.34,-126 238.43,-126 252.46,-126"/>
<polygon fill="black" stroke="black" points="252.13,-129.5 262.13,-126 252.13,-122.5 252.13,-129.5"/>
</g>
<!-- 140246483392592&#45;&gt;140246483740848 -->
<g id="edge2" class="edge">
<title>140246483392592&#45;&gt;140246483740848</title>
<path fill="none" stroke="black" d="M344.97,-189C359.23,-189 377.52,-189 395.34,-189"/>
<polygon fill="black" stroke="black" points="395.12,-192.5 405.12,-189 395.12,-185.5 395.12,-192.5"/>
</g>
</g>
</svg>
