<?xml version="1.0" encoding="UTF-8" standalone="no"?>
<!DOCTYPE svg PUBLIC "-//W3C//DTD SVG 1.1//EN"
 "http://www.w3.org/Graphics/SVG/1.1/DTD/svg11.dtd">
<!-- Generated by graphviz version 7.0.6 (20230106.0513)
 -->
<!-- Title: alpha_classic_net_1689255806.0443919 Pages: 1 -->
<svg width="1854pt" height="278pt"
 viewBox="0.00 0.00 1854.00 278.00" xmlns="http://www.w3.org/2000/svg" xmlns:xlink="http://www.w3.org/1999/xlink">
<g id="graph0" class="graph" transform="scale(1 1) rotate(0) translate(4 274)">
<title>alpha_classic_net_1689255806.0443919</title>
<polygon fill="white" stroke="none" points="-4,4 -4,-274 1850,-274 1850,4 -4,4"/>
<!-- 140377799248000 -->
<g id="node1" class="node">
<title>140377799248000</title>
<polygon fill="white" stroke="black" points="1519,-153 1441,-153 1441,-117 1519,-117 1519,-153"/>
<text text-anchor="middle" x="1480" y="-131.9" font-family="Times,serif" font-size="12.00">check diaries</text>
</g>
<!-- 140377799293680 -->
<g id="node15" class="node">
<title>140377799293680</title>
<ellipse fill="white" stroke="black" cx="1582" cy="-135" rx="27" ry="27"/>
</g>
<!-- 140377799248000&#45;&gt;140377799293680 -->
<g id="edge17" class="edge">
<title>140377799248000&#45;&gt;140377799293680</title>
<path fill="none" stroke="black" d="M1519.38,-135C1527.2,-135 1535.43,-135 1543.24,-135"/>
<polygon fill="black" stroke="black" points="1543.14,-138.5 1553.14,-135 1543.14,-131.5 1543.14,-138.5"/>
</g>
<!-- 140377799248384 -->
<g id="node2" class="node">
<title>140377799248384</title>
<polygon fill="white" stroke="black" points="230,-153 90,-153 90,-117 230,-117 230,-153"/>
<text text-anchor="middle" x="160" y="-131.9" font-family="Times,serif" font-size="12.00">draft schedule of meetings</text>
</g>
<!-- 140377799247232 -->
<g id="node16" class="node">
<title>140377799247232</title>
<ellipse fill="white" stroke="black" cx="293" cy="-135" rx="27" ry="27"/>
</g>
<!-- 140377799248384&#45;&gt;140377799247232 -->
<g id="edge18" class="edge">
<title>140377799248384&#45;&gt;140377799247232</title>
<path fill="none" stroke="black" d="M230.34,-135C238.63,-135 246.85,-135 254.44,-135"/>
<polygon fill="black" stroke="black" points="254.28,-138.5 264.28,-135 254.28,-131.5 254.28,-138.5"/>
</g>
<!-- 140377799248864 -->
<g id="node3" class="node">
<title>140377799248864</title>
<polygon fill="white" stroke="black" points="962.5,-117 882.5,-117 882.5,-81 962.5,-81 962.5,-117"/>
<text text-anchor="middle" x="922.5" y="-95.9" font-family="Times,serif" font-size="12.00">recheck dates</text>
</g>
<!-- 140377799293536 -->
<g id="node18" class="node">
<title>140377799293536</title>
<ellipse fill="white" stroke="black" cx="1036" cy="-99" rx="27" ry="27"/>
</g>
<!-- 140377799248864&#45;&gt;140377799293536 -->
<g id="edge20" class="edge">
<title>140377799248864&#45;&gt;140377799293536</title>
<path fill="none" stroke="black" d="M962.81,-99C973.95,-99 986.06,-99 997.11,-99"/>
<polygon fill="black" stroke="black" points="997.09,-102.5 1007.09,-99 997.09,-95.5 997.09,-102.5"/>
</g>
<!-- 140377799247664 -->
<g id="node4" class="node">
<title>140377799247664</title>
<polygon fill="white" stroke="black" points="973,-189 872,-189 872,-153 973,-153 973,-189"/>
<text text-anchor="middle" x="922.5" y="-167.9" font-family="Times,serif" font-size="12.00">looks for conflicts</text>
</g>
<!-- 140377799249488 -->
<g id="node17" class="node">
<title>140377799249488</title>
<ellipse fill="white" stroke="black" cx="1036" cy="-171" rx="27" ry="27"/>
</g>
<!-- 140377799247664&#45;&gt;140377799249488 -->
<g id="edge19" class="edge">
<title>140377799247664&#45;&gt;140377799249488</title>
<path fill="none" stroke="black" d="M973.38,-171C981.37,-171 989.52,-171 997.17,-171"/>
<polygon fill="black" stroke="black" points="997.17,-174.5 1007.17,-171 997.17,-167.5 997.17,-174.5"/>
</g>
<!-- 140377799248720 -->
<g id="node5" class="node">
<title>140377799248720</title>
<polygon fill="white" stroke="black" points="722,-189 651,-189 651,-153 722,-153 722,-189"/>
<text text-anchor="middle" x="686.5" y="-167.9" font-family="Times,serif" font-size="12.00">check dates</text>
</g>
<!-- 140377799292096 -->
<g id="node13" class="node">
<title>140377799292096</title>
<ellipse fill="white" stroke="black" cx="809" cy="-243" rx="27" ry="27"/>
</g>
<!-- 140377799248720&#45;&gt;140377799292096 -->
<g id="edge15" class="edge">
<title>140377799248720&#45;&gt;140377799292096</title>
<path fill="none" stroke="black" d="M718.22,-189.35C735.87,-199.9 758.01,-213.13 775.89,-223.81"/>
<polygon fill="black" stroke="black" points="773.65,-226.55 784.03,-228.68 777.24,-220.54 773.65,-226.55"/>
</g>
<!-- 140377799246800 -->
<g id="node14" class="node">
<title>140377799246800</title>
<ellipse fill="white" stroke="black" cx="809" cy="-171" rx="27" ry="27"/>
</g>
<!-- 140377799248720&#45;&gt;140377799246800 -->
<g id="edge16" class="edge">
<title>140377799248720&#45;&gt;140377799246800</title>
<path fill="none" stroke="black" d="M722.35,-171C737.42,-171 755.08,-171 770.44,-171"/>
<polygon fill="black" stroke="black" points="770.14,-174.5 780.14,-171 770.14,-167.5 770.14,-174.5"/>
</g>
<!-- 140377799247472 -->
<g id="node6" class="node">
<title>140377799247472</title>
<polygon fill="white" stroke="black" points="746,-117 627,-117 627,-81 746,-81 746,-117"/>
<text text-anchor="middle" x="686.5" y="-95.9" font-family="Times,serif" font-size="12.00">suggest modifications</text>
</g>
<!-- 140377799292960 -->
<g id="node20" class="node">
<title>140377799292960</title>
<ellipse fill="white" stroke="black" cx="809" cy="-99" rx="27" ry="27"/>
</g>
<!-- 140377799247472&#45;&gt;140377799292960 -->
<g id="edge23" class="edge">
<title>140377799247472&#45;&gt;140377799292960</title>
<path fill="none" stroke="black" d="M746.34,-99C754.49,-99 762.68,-99 770.31,-99"/>
<polygon fill="black" stroke="black" points="770.23,-102.5 780.23,-99 770.23,-95.5 770.23,-102.5"/>
</g>
<!-- 140377799292480 -->
<g id="node21" class="node">
<title>140377799292480</title>
<ellipse fill="white" stroke="black" cx="809" cy="-27" rx="27" ry="27"/>
</g>
<!-- 140377799247472&#45;&gt;140377799292480 -->
<g id="edge24" class="edge">
<title>140377799247472&#45;&gt;140377799292480</title>
<path fill="none" stroke="black" d="M718.22,-80.65C735.87,-70.1 758.01,-56.87 775.89,-46.19"/>
<polygon fill="black" stroke="black" points="777.24,-49.46 784.03,-41.32 773.65,-43.45 777.24,-49.46"/>
</g>
<!-- 140377799248336 -->
<g id="node7" class="node">
<title>140377799248336</title>
<polygon fill="white" stroke="black" points="501,-153 356,-153 356,-117 501,-117 501,-153"/>
<text text-anchor="middle" x="428.5" y="-131.9" font-family="Times,serif" font-size="12.00">add draft dates to calendars</text>
</g>
<!-- 140377799293344 -->
<g id="node11" class="node">
<title>140377799293344</title>
<ellipse fill="white" stroke="black" cx="564" cy="-171" rx="27" ry="27"/>
</g>
<!-- 140377799248336&#45;&gt;140377799293344 -->
<g id="edge12" class="edge">
<title>140377799248336&#45;&gt;140377799293344</title>
<path fill="none" stroke="black" d="M497.81,-153.42C507.83,-156.12 517.79,-158.81 526.81,-161.24"/>
<polygon fill="black" stroke="black" points="525.63,-164.55 536.2,-163.77 527.45,-157.79 525.63,-164.55"/>
</g>
<!-- 140377799249872 -->
<g id="node12" class="node">
<title>140377799249872</title>
<ellipse fill="white" stroke="black" cx="564" cy="-99" rx="27" ry="27"/>
</g>
<!-- 140377799248336&#45;&gt;140377799249872 -->
<g id="edge13" class="edge">
<title>140377799248336&#45;&gt;140377799249872</title>
<path fill="none" stroke="black" d="M497.81,-116.58C507.83,-113.88 517.79,-111.19 526.81,-108.76"/>
<polygon fill="black" stroke="black" points="527.45,-112.21 536.2,-106.23 525.63,-105.45 527.45,-112.21"/>
</g>
<!-- 140377799246224 -->
<g id="node8" class="node">
<title>140377799246224</title>
<polygon fill="white" stroke="black" points="1315,-153 1099,-153 1099,-117 1315,-117 1315,-153"/>
<text text-anchor="middle" x="1207" y="-131.9" font-family="Times,serif" font-size="12.00">send final schedule to committee members</text>
</g>
<!-- 140377799245888 -->
<g id="node19" class="node">
<title>140377799245888</title>
<ellipse fill="white" stroke="black" cx="1378" cy="-135" rx="27" ry="27"/>
</g>
<!-- 140377799246224&#45;&gt;140377799245888 -->
<g id="edge21" class="edge">
<title>140377799246224&#45;&gt;140377799245888</title>
<path fill="none" stroke="black" d="M1315.03,-135C1323.53,-135 1331.69,-135 1339.15,-135"/>
<polygon fill="black" stroke="black" points="1339.09,-138.5 1349.09,-135 1339.09,-131.5 1339.09,-138.5"/>
</g>
<!-- 140377799247760 -->
<g id="node9" class="node">
<title>140377799247760</title>
<polygon fill="white" stroke="black" points="1748,-153 1645,-153 1645,-117 1748,-117 1748,-153"/>
<text text-anchor="middle" x="1696.5" y="-131.9" font-family="Times,serif" font-size="12.00">advice of conflicts</text>
</g>
<!-- 140377799247376 -->
<g id="node22" class="node">
<title>140377799247376</title>
<ellipse fill="white" stroke="black" cx="1815" cy="-135" rx="27" ry="27"/>
<ellipse fill="none" stroke="black" cx="1815" cy="-135" rx="31" ry="31"/>
<text text-anchor="start" x="1805" y="-126.9" font-family="Times,serif" font-size="32.00">■</text>
</g>
<!-- 140377799247760&#45;&gt;140377799247376 -->
<g id="edge14" class="edge">
<title>140377799247760&#45;&gt;140377799247376</title>
<path fill="none" stroke="black" d="M1748.26,-135C1756.24,-135 1764.41,-135 1772.16,-135"/>
<polygon fill="black" stroke="black" points="1772.01,-138.5 1782.01,-135 1772.01,-131.5 1772.01,-138.5"/>
</g>
<!-- 140377799248816 -->
<g id="node10" class="node">
<title>140377799248816</title>
<ellipse fill="white" stroke="black" cx="27" cy="-135" rx="27" ry="27"/>
<text text-anchor="start" x="16.5" y="-126.3" font-family="Times,serif" font-size="34.00">●</text>
</g>
<!-- 140377799248816&#45;&gt;140377799248384 -->
<g id="edge22" class="edge">
<title>140377799248816&#45;&gt;140377799248384</title>
<path fill="none" stroke="black" d="M54.19,-135C61.41,-135 69.64,-135 78.24,-135"/>
<polygon fill="black" stroke="black" points="78.19,-138.5 88.19,-135 78.19,-131.5 78.19,-138.5"/>
</g>
<!-- 140377799293344&#45;&gt;140377799248720 -->
<g id="edge1" class="edge">
<title>140377799293344&#45;&gt;140377799248720</title>
<path fill="none" stroke="black" d="M591.44,-171C605.49,-171 623.17,-171 639.39,-171"/>
<polygon fill="black" stroke="black" points="639.36,-174.5 649.36,-171 639.36,-167.5 639.36,-174.5"/>
</g>
<!-- 140377799249872&#45;&gt;140377799247472 -->
<g id="edge2" class="edge">
<title>140377799249872&#45;&gt;140377799247472</title>
<path fill="none" stroke="black" d="M591.44,-99C598.59,-99 606.67,-99 615.02,-99"/>
<polygon fill="black" stroke="black" points="615,-102.5 625,-99 615,-95.5 615,-102.5"/>
</g>
<!-- 140377799292096&#45;&gt;140377799247664 -->
<g id="edge3" class="edge">
<title>140377799292096&#45;&gt;140377799247664</title>
<path fill="none" stroke="black" d="M832.3,-228.6C846.85,-219.2 866.24,-206.69 883.22,-195.72"/>
<polygon fill="black" stroke="black" points="885.11,-198.67 891.61,-190.3 881.31,-192.79 885.11,-198.67"/>
</g>
<!-- 140377799246800&#45;&gt;140377799248864 -->
<g id="edge4" class="edge">
<title>140377799246800&#45;&gt;140377799248864</title>
<path fill="none" stroke="black" d="M832.3,-156.6C846.85,-147.2 866.24,-134.69 883.22,-123.72"/>
<polygon fill="black" stroke="black" points="885.11,-126.67 891.61,-118.3 881.31,-120.79 885.11,-126.67"/>
</g>
<!-- 140377799293680&#45;&gt;140377799247760 -->
<g id="edge5" class="edge">
<title>140377799293680&#45;&gt;140377799247760</title>
<path fill="none" stroke="black" d="M1609.38,-135C1616.61,-135 1624.77,-135 1633.11,-135"/>
<polygon fill="black" stroke="black" points="1633.02,-138.5 1643.02,-135 1633.02,-131.5 1633.02,-138.5"/>
</g>
<!-- 140377799247232&#45;&gt;140377799248336 -->
<g id="edge6" class="edge">
<title>140377799247232&#45;&gt;140377799248336</title>
<path fill="none" stroke="black" d="M320.38,-135C327.56,-135 335.75,-135 344.32,-135"/>
<polygon fill="black" stroke="black" points="344.24,-138.5 354.24,-135 344.24,-131.5 344.24,-138.5"/>
</g>
<!-- 140377799249488&#45;&gt;140377799246224 -->
<g id="edge7" class="edge">
<title>140377799249488&#45;&gt;140377799246224</title>
<path fill="none" stroke="black" d="M1062.67,-165.53C1075.32,-162.84 1091.46,-159.4 1108.32,-155.81"/>
<polygon fill="black" stroke="black" points="1108.94,-159.25 1117.99,-153.75 1107.48,-152.41 1108.94,-159.25"/>
</g>
<!-- 140377799293536&#45;&gt;140377799246224 -->
<g id="edge8" class="edge">
<title>140377799293536&#45;&gt;140377799246224</title>
<path fill="none" stroke="black" d="M1062.67,-104.47C1075.32,-107.16 1091.46,-110.6 1108.32,-114.19"/>
<polygon fill="black" stroke="black" points="1107.48,-117.59 1117.99,-116.25 1108.94,-110.75 1107.48,-117.59"/>
</g>
<!-- 140377799245888&#45;&gt;140377799248000 -->
<g id="edge9" class="edge">
<title>140377799245888&#45;&gt;140377799248000</title>
<path fill="none" stroke="black" d="M1405.27,-135C1412.75,-135 1421.15,-135 1429.54,-135"/>
<polygon fill="black" stroke="black" points="1429.35,-138.5 1439.35,-135 1429.35,-131.5 1429.35,-138.5"/>
</g>
<!-- 140377799292960&#45;&gt;140377799247664 -->
<g id="edge10" class="edge">
<title>140377799292960&#45;&gt;140377799247664</title>
<path fill="none" stroke="black" d="M832.3,-113.4C846.85,-122.8 866.24,-135.31 883.22,-146.28"/>
<polygon fill="black" stroke="black" points="881.31,-149.21 891.61,-151.7 885.11,-143.33 881.31,-149.21"/>
</g>
<!-- 140377799292480&#45;&gt;140377799248864 -->
<g id="edge11" class="edge">
<title>140377799292480&#45;&gt;140377799248864</title>
<path fill="none" stroke="black" d="M832.3,-41.4C846.85,-50.8 866.24,-63.31 883.22,-74.28"/>
<polygon fill="black" stroke="black" points="881.31,-77.21 891.61,-79.7 885.11,-71.33 881.31,-77.21"/>
</g>
</g>
</svg>
