<?xml version="1.0" encoding="utf-8" standalone="no"?>
<!DOCTYPE svg PUBLIC "-//W3C//DTD SVG 1.1//EN"
  "http://www.w3.org/Graphics/SVG/1.1/DTD/svg11.dtd">
<svg xmlns:xlink="http://www.w3.org/1999/xlink" width="864pt" height="576pt" viewBox="0 0 864 576" xmlns="http://www.w3.org/2000/svg" version="1.1">
 <metadata>
  <rdf:RDF xmlns:dc="http://purl.org/dc/elements/1.1/" xmlns:cc="http://creativecommons.org/ns#" xmlns:rdf="http://www.w3.org/1999/02/22-rdf-syntax-ns#">
   <cc:Work>
    <dc:type rdf:resource="http://purl.org/dc/dcmitype/StillImage"/>
    <dc:date>2023-08-17T14:42:19.969697</dc:date>
    <dc:format>image/svg+xml</dc:format>
    <dc:creator>
     <cc:Agent>
      <dc:title>Matplotlib v3.7.1, https://matplotlib.org/</dc:title>
     </cc:Agent>
    </dc:creator>
   </cc:Work>
  </rdf:RDF>
 </metadata>
 <defs>
  <style type="text/css">*{stroke-linejoin: round; stroke-linecap: butt}</style>
 </defs>
 <g id="figure_1">
  <g id="patch_1">
   <path d="M 0 576 
L 864 576 
L 864 0 
L 0 0 
z
" style="fill: #ffffff"/>
  </g>
  <g id="axes_1">
   <g id="table_1">
    <g id="patch_2">
     <path d="M 628.83 80.1 
L 663.831203 80.1 
L 663.831203 10.8 
L 628.83 10.8 
z
" style="fill: #ffffff; stroke: #000000; stroke-linejoin: miter"/>
    </g>
    <g id="text_1">
     <!-- Edge Number -->
     <g transform="translate(629.200914 46.829688) scale(0.05 -0.05)">
      <defs>
       <path id="DejaVuSans-45" d="M 628 4666 
L 3578 4666 
L 3578 4134 
L 1259 4134 
L 1259 2753 
L 3481 2753 
L 3481 2222 
L 1259 2222 
L 1259 531 
L 3634 531 
L 3634 0 
L 628 0 
L 628 4666 
z
" transform="scale(0.015625)"/>
       <path id="DejaVuSans-64" d="M 2906 2969 
L 2906 4863 
L 3481 4863 
L 3481 0 
L 2906 0 
L 2906 525 
Q 2725 213 2448 61 
Q 2172 -91 1784 -91 
Q 1150 -91 751 415 
Q 353 922 353 1747 
Q 353 2572 751 3078 
Q 1150 3584 1784 3584 
Q 2172 3584 2448 3432 
Q 2725 3281 2906 2969 
z
M 947 1747 
Q 947 1113 1208 752 
Q 1469 391 1925 391 
Q 2381 391 2643 752 
Q 2906 1113 2906 1747 
Q 2906 2381 2643 2742 
Q 2381 3103 1925 3103 
Q 1469 3103 1208 2742 
Q 947 2381 947 1747 
z
" transform="scale(0.015625)"/>
       <path id="DejaVuSans-67" d="M 2906 1791 
Q 2906 2416 2648 2759 
Q 2391 3103 1925 3103 
Q 1463 3103 1205 2759 
Q 947 2416 947 1791 
Q 947 1169 1205 825 
Q 1463 481 1925 481 
Q 2391 481 2648 825 
Q 2906 1169 2906 1791 
z
M 3481 434 
Q 3481 -459 3084 -895 
Q 2688 -1331 1869 -1331 
Q 1566 -1331 1297 -1286 
Q 1028 -1241 775 -1147 
L 775 -588 
Q 1028 -725 1275 -790 
Q 1522 -856 1778 -856 
Q 2344 -856 2625 -561 
Q 2906 -266 2906 331 
L 2906 616 
Q 2728 306 2450 153 
Q 2172 0 1784 0 
Q 1141 0 747 490 
Q 353 981 353 1791 
Q 353 2603 747 3093 
Q 1141 3584 1784 3584 
Q 2172 3584 2450 3431 
Q 2728 3278 2906 2969 
L 2906 3500 
L 3481 3500 
L 3481 434 
z
" transform="scale(0.015625)"/>
       <path id="DejaVuSans-65" d="M 3597 1894 
L 3597 1613 
L 953 1613 
Q 991 1019 1311 708 
Q 1631 397 2203 397 
Q 2534 397 2845 478 
Q 3156 559 3463 722 
L 3463 178 
Q 3153 47 2828 -22 
Q 2503 -91 2169 -91 
Q 1331 -91 842 396 
Q 353 884 353 1716 
Q 353 2575 817 3079 
Q 1281 3584 2069 3584 
Q 2775 3584 3186 3129 
Q 3597 2675 3597 1894 
z
M 3022 2063 
Q 3016 2534 2758 2815 
Q 2500 3097 2075 3097 
Q 1594 3097 1305 2825 
Q 1016 2553 972 2059 
L 3022 2063 
z
" transform="scale(0.015625)"/>
       <path id="DejaVuSans-20" transform="scale(0.015625)"/>
       <path id="DejaVuSans-4e" d="M 628 4666 
L 1478 4666 
L 3547 763 
L 3547 4666 
L 4159 4666 
L 4159 0 
L 3309 0 
L 1241 3903 
L 1241 0 
L 628 0 
L 628 4666 
z
" transform="scale(0.015625)"/>
       <path id="DejaVuSans-75" d="M 544 1381 
L 544 3500 
L 1119 3500 
L 1119 1403 
Q 1119 906 1312 657 
Q 1506 409 1894 409 
Q 2359 409 2629 706 
Q 2900 1003 2900 1516 
L 2900 3500 
L 3475 3500 
L 3475 0 
L 2900 0 
L 2900 538 
Q 2691 219 2414 64 
Q 2138 -91 1772 -91 
Q 1169 -91 856 284 
Q 544 659 544 1381 
z
M 1991 3584 
L 1991 3584 
z
" transform="scale(0.015625)"/>
       <path id="DejaVuSans-6d" d="M 3328 2828 
Q 3544 3216 3844 3400 
Q 4144 3584 4550 3584 
Q 5097 3584 5394 3201 
Q 5691 2819 5691 2113 
L 5691 0 
L 5113 0 
L 5113 2094 
Q 5113 2597 4934 2840 
Q 4756 3084 4391 3084 
Q 3944 3084 3684 2787 
Q 3425 2491 3425 1978 
L 3425 0 
L 2847 0 
L 2847 2094 
Q 2847 2600 2669 2842 
Q 2491 3084 2119 3084 
Q 1678 3084 1418 2786 
Q 1159 2488 1159 1978 
L 1159 0 
L 581 0 
L 581 3500 
L 1159 3500 
L 1159 2956 
Q 1356 3278 1631 3431 
Q 1906 3584 2284 3584 
Q 2666 3584 2933 3390 
Q 3200 3197 3328 2828 
z
" transform="scale(0.015625)"/>
       <path id="DejaVuSans-62" d="M 3116 1747 
Q 3116 2381 2855 2742 
Q 2594 3103 2138 3103 
Q 1681 3103 1420 2742 
Q 1159 2381 1159 1747 
Q 1159 1113 1420 752 
Q 1681 391 2138 391 
Q 2594 391 2855 752 
Q 3116 1113 3116 1747 
z
M 1159 2969 
Q 1341 3281 1617 3432 
Q 1894 3584 2278 3584 
Q 2916 3584 3314 3078 
Q 3713 2572 3713 1747 
Q 3713 922 3314 415 
Q 2916 -91 2278 -91 
Q 1894 -91 1617 61 
Q 1341 213 1159 525 
L 1159 0 
L 581 0 
L 581 4863 
L 1159 4863 
L 1159 2969 
z
" transform="scale(0.015625)"/>
       <path id="DejaVuSans-72" d="M 2631 2963 
Q 2534 3019 2420 3045 
Q 2306 3072 2169 3072 
Q 1681 3072 1420 2755 
Q 1159 2438 1159 1844 
L 1159 0 
L 581 0 
L 581 3500 
L 1159 3500 
L 1159 2956 
Q 1341 3275 1631 3429 
Q 1922 3584 2338 3584 
Q 2397 3584 2469 3576 
Q 2541 3569 2628 3553 
L 2631 2963 
z
" transform="scale(0.015625)"/>
      </defs>
      <use xlink:href="#DejaVuSans-45"/>
      <use xlink:href="#DejaVuSans-64" x="63.183594"/>
      <use xlink:href="#DejaVuSans-67" x="126.660156"/>
      <use xlink:href="#DejaVuSans-65" x="190.136719"/>
      <use xlink:href="#DejaVuSans-20" x="251.660156"/>
      <use xlink:href="#DejaVuSans-4e" x="283.447266"/>
      <use xlink:href="#DejaVuSans-75" x="358.251953"/>
      <use xlink:href="#DejaVuSans-6d" x="421.630859"/>
      <use xlink:href="#DejaVuSans-62" x="519.042969"/>
      <use xlink:href="#DejaVuSans-65" x="582.519531"/>
      <use xlink:href="#DejaVuSans-72" x="644.042969"/>
     </g>
    </g>
    <g id="patch_3">
     <path d="M 663.831203 80.1 
L 746.55 80.1 
L 746.55 10.8 
L 663.831203 10.8 
z
" style="fill: #ffffff; stroke: #000000; stroke-linejoin: miter"/>
    </g>
    <g id="text_2">
     <!-- Edge Activity -->
     <g transform="translate(688.754273 46.829688) scale(0.05 -0.05)">
      <defs>
       <path id="DejaVuSans-41" d="M 2188 4044 
L 1331 1722 
L 3047 1722 
L 2188 4044 
z
M 1831 4666 
L 2547 4666 
L 4325 0 
L 3669 0 
L 3244 1197 
L 1141 1197 
L 716 0 
L 50 0 
L 1831 4666 
z
" transform="scale(0.015625)"/>
       <path id="DejaVuSans-63" d="M 3122 3366 
L 3122 2828 
Q 2878 2963 2633 3030 
Q 2388 3097 2138 3097 
Q 1578 3097 1268 2742 
Q 959 2388 959 1747 
Q 959 1106 1268 751 
Q 1578 397 2138 397 
Q 2388 397 2633 464 
Q 2878 531 3122 666 
L 3122 134 
Q 2881 22 2623 -34 
Q 2366 -91 2075 -91 
Q 1284 -91 818 406 
Q 353 903 353 1747 
Q 353 2603 823 3093 
Q 1294 3584 2113 3584 
Q 2378 3584 2631 3529 
Q 2884 3475 3122 3366 
z
" transform="scale(0.015625)"/>
       <path id="DejaVuSans-74" d="M 1172 4494 
L 1172 3500 
L 2356 3500 
L 2356 3053 
L 1172 3053 
L 1172 1153 
Q 1172 725 1289 603 
Q 1406 481 1766 481 
L 2356 481 
L 2356 0 
L 1766 0 
Q 1100 0 847 248 
Q 594 497 594 1153 
L 594 3053 
L 172 3053 
L 172 3500 
L 594 3500 
L 594 4494 
L 1172 4494 
z
" transform="scale(0.015625)"/>
       <path id="DejaVuSans-69" d="M 603 3500 
L 1178 3500 
L 1178 0 
L 603 0 
L 603 3500 
z
M 603 4863 
L 1178 4863 
L 1178 4134 
L 603 4134 
L 603 4863 
z
" transform="scale(0.015625)"/>
       <path id="DejaVuSans-76" d="M 191 3500 
L 800 3500 
L 1894 563 
L 2988 3500 
L 3597 3500 
L 2284 0 
L 1503 0 
L 191 3500 
z
" transform="scale(0.015625)"/>
       <path id="DejaVuSans-79" d="M 2059 -325 
Q 1816 -950 1584 -1140 
Q 1353 -1331 966 -1331 
L 506 -1331 
L 506 -850 
L 844 -850 
Q 1081 -850 1212 -737 
Q 1344 -625 1503 -206 
L 1606 56 
L 191 3500 
L 800 3500 
L 1894 763 
L 2988 3500 
L 3597 3500 
L 2059 -325 
z
" transform="scale(0.015625)"/>
      </defs>
      <use xlink:href="#DejaVuSans-45"/>
      <use xlink:href="#DejaVuSans-64" x="63.183594"/>
      <use xlink:href="#DejaVuSans-67" x="126.660156"/>
      <use xlink:href="#DejaVuSans-65" x="190.136719"/>
      <use xlink:href="#DejaVuSans-20" x="251.660156"/>
      <use xlink:href="#DejaVuSans-41" x="283.447266"/>
      <use xlink:href="#DejaVuSans-63" x="350.105469"/>
      <use xlink:href="#DejaVuSans-74" x="405.085938"/>
      <use xlink:href="#DejaVuSans-69" x="444.294922"/>
      <use xlink:href="#DejaVuSans-76" x="472.078125"/>
      <use xlink:href="#DejaVuSans-69" x="531.257812"/>
      <use xlink:href="#DejaVuSans-74" x="559.041016"/>
      <use xlink:href="#DejaVuSans-79" x="598.25"/>
     </g>
    </g>
    <g id="patch_4">
     <path d="M 628.83 149.4 
L 663.831203 149.4 
L 663.831203 80.1 
L 628.83 80.1 
z
" style="fill: #ffffff; stroke: #000000; stroke-linejoin: miter"/>
    </g>
    <g id="text_3">
     <!-- 1 -->
     <g transform="translate(644.739977 116.129688) scale(0.05 -0.05)">
      <defs>
       <path id="DejaVuSans-31" d="M 794 531 
L 1825 531 
L 1825 4091 
L 703 3866 
L 703 4441 
L 1819 4666 
L 2450 4666 
L 2450 531 
L 3481 531 
L 3481 0 
L 794 0 
L 794 531 
z
" transform="scale(0.015625)"/>
      </defs>
      <use xlink:href="#DejaVuSans-31"/>
     </g>
    </g>
    <g id="patch_5">
     <path d="M 663.831203 149.4 
L 746.55 149.4 
L 746.55 80.1 
L 663.831203 80.1 
z
" style="fill: #ffffff; stroke: #000000; stroke-linejoin: miter"/>
    </g>
    <g id="text_4">
     <!-- Submit Request -->
     <g transform="translate(685.372633 116.129688) scale(0.05 -0.05)">
      <defs>
       <path id="DejaVuSans-53" d="M 3425 4513 
L 3425 3897 
Q 3066 4069 2747 4153 
Q 2428 4238 2131 4238 
Q 1616 4238 1336 4038 
Q 1056 3838 1056 3469 
Q 1056 3159 1242 3001 
Q 1428 2844 1947 2747 
L 2328 2669 
Q 3034 2534 3370 2195 
Q 3706 1856 3706 1288 
Q 3706 609 3251 259 
Q 2797 -91 1919 -91 
Q 1588 -91 1214 -16 
Q 841 59 441 206 
L 441 856 
Q 825 641 1194 531 
Q 1563 422 1919 422 
Q 2459 422 2753 634 
Q 3047 847 3047 1241 
Q 3047 1584 2836 1778 
Q 2625 1972 2144 2069 
L 1759 2144 
Q 1053 2284 737 2584 
Q 422 2884 422 3419 
Q 422 4038 858 4394 
Q 1294 4750 2059 4750 
Q 2388 4750 2728 4690 
Q 3069 4631 3425 4513 
z
" transform="scale(0.015625)"/>
       <path id="DejaVuSans-52" d="M 2841 2188 
Q 3044 2119 3236 1894 
Q 3428 1669 3622 1275 
L 4263 0 
L 3584 0 
L 2988 1197 
Q 2756 1666 2539 1819 
Q 2322 1972 1947 1972 
L 1259 1972 
L 1259 0 
L 628 0 
L 628 4666 
L 2053 4666 
Q 2853 4666 3247 4331 
Q 3641 3997 3641 3322 
Q 3641 2881 3436 2590 
Q 3231 2300 2841 2188 
z
M 1259 4147 
L 1259 2491 
L 2053 2491 
Q 2509 2491 2742 2702 
Q 2975 2913 2975 3322 
Q 2975 3731 2742 3939 
Q 2509 4147 2053 4147 
L 1259 4147 
z
" transform="scale(0.015625)"/>
       <path id="DejaVuSans-71" d="M 947 1747 
Q 947 1113 1208 752 
Q 1469 391 1925 391 
Q 2381 391 2643 752 
Q 2906 1113 2906 1747 
Q 2906 2381 2643 2742 
Q 2381 3103 1925 3103 
Q 1469 3103 1208 2742 
Q 947 2381 947 1747 
z
M 2906 525 
Q 2725 213 2448 61 
Q 2172 -91 1784 -91 
Q 1150 -91 751 415 
Q 353 922 353 1747 
Q 353 2572 751 3078 
Q 1150 3584 1784 3584 
Q 2172 3584 2448 3432 
Q 2725 3281 2906 2969 
L 2906 3500 
L 3481 3500 
L 3481 -1331 
L 2906 -1331 
L 2906 525 
z
" transform="scale(0.015625)"/>
       <path id="DejaVuSans-73" d="M 2834 3397 
L 2834 2853 
Q 2591 2978 2328 3040 
Q 2066 3103 1784 3103 
Q 1356 3103 1142 2972 
Q 928 2841 928 2578 
Q 928 2378 1081 2264 
Q 1234 2150 1697 2047 
L 1894 2003 
Q 2506 1872 2764 1633 
Q 3022 1394 3022 966 
Q 3022 478 2636 193 
Q 2250 -91 1575 -91 
Q 1294 -91 989 -36 
Q 684 19 347 128 
L 347 722 
Q 666 556 975 473 
Q 1284 391 1588 391 
Q 1994 391 2212 530 
Q 2431 669 2431 922 
Q 2431 1156 2273 1281 
Q 2116 1406 1581 1522 
L 1381 1569 
Q 847 1681 609 1914 
Q 372 2147 372 2553 
Q 372 3047 722 3315 
Q 1072 3584 1716 3584 
Q 2034 3584 2315 3537 
Q 2597 3491 2834 3397 
z
" transform="scale(0.015625)"/>
      </defs>
      <use xlink:href="#DejaVuSans-53"/>
      <use xlink:href="#DejaVuSans-75" x="63.476562"/>
      <use xlink:href="#DejaVuSans-62" x="126.855469"/>
      <use xlink:href="#DejaVuSans-6d" x="190.332031"/>
      <use xlink:href="#DejaVuSans-69" x="287.744141"/>
      <use xlink:href="#DejaVuSans-74" x="315.527344"/>
      <use xlink:href="#DejaVuSans-20" x="354.736328"/>
      <use xlink:href="#DejaVuSans-52" x="386.523438"/>
      <use xlink:href="#DejaVuSans-65" x="451.505859"/>
      <use xlink:href="#DejaVuSans-71" x="513.029297"/>
      <use xlink:href="#DejaVuSans-75" x="576.505859"/>
      <use xlink:href="#DejaVuSans-65" x="639.884766"/>
      <use xlink:href="#DejaVuSans-73" x="701.408203"/>
      <use xlink:href="#DejaVuSans-74" x="753.507812"/>
     </g>
    </g>
    <g id="patch_6">
     <path d="M 628.83 218.7 
L 663.831203 218.7 
L 663.831203 149.4 
L 628.83 149.4 
z
" style="fill: #ffffff; stroke: #000000; stroke-linejoin: miter"/>
    </g>
    <g id="text_5">
     <!-- 2 -->
     <g transform="translate(644.739977 185.429688) scale(0.05 -0.05)">
      <defs>
       <path id="DejaVuSans-32" d="M 1228 531 
L 3431 531 
L 3431 0 
L 469 0 
L 469 531 
Q 828 903 1448 1529 
Q 2069 2156 2228 2338 
Q 2531 2678 2651 2914 
Q 2772 3150 2772 3378 
Q 2772 3750 2511 3984 
Q 2250 4219 1831 4219 
Q 1534 4219 1204 4116 
Q 875 4013 500 3803 
L 500 4441 
Q 881 4594 1212 4672 
Q 1544 4750 1819 4750 
Q 2544 4750 2975 4387 
Q 3406 4025 3406 3419 
Q 3406 3131 3298 2873 
Q 3191 2616 2906 2266 
Q 2828 2175 2409 1742 
Q 1991 1309 1228 531 
z
" transform="scale(0.015625)"/>
      </defs>
      <use xlink:href="#DejaVuSans-32"/>
     </g>
    </g>
    <g id="patch_7">
     <path d="M 663.831203 218.7 
L 746.55 218.7 
L 746.55 149.4 
L 663.831203 149.4 
z
" style="fill: #ffffff; stroke: #000000; stroke-linejoin: miter"/>
    </g>
    <g id="text_6">
     <!-- Approve Request -->
     <g transform="translate(683.837477 185.429688) scale(0.05 -0.05)">
      <defs>
       <path id="DejaVuSans-70" d="M 1159 525 
L 1159 -1331 
L 581 -1331 
L 581 3500 
L 1159 3500 
L 1159 2969 
Q 1341 3281 1617 3432 
Q 1894 3584 2278 3584 
Q 2916 3584 3314 3078 
Q 3713 2572 3713 1747 
Q 3713 922 3314 415 
Q 2916 -91 2278 -91 
Q 1894 -91 1617 61 
Q 1341 213 1159 525 
z
M 3116 1747 
Q 3116 2381 2855 2742 
Q 2594 3103 2138 3103 
Q 1681 3103 1420 2742 
Q 1159 2381 1159 1747 
Q 1159 1113 1420 752 
Q 1681 391 2138 391 
Q 2594 391 2855 752 
Q 3116 1113 3116 1747 
z
" transform="scale(0.015625)"/>
       <path id="DejaVuSans-6f" d="M 1959 3097 
Q 1497 3097 1228 2736 
Q 959 2375 959 1747 
Q 959 1119 1226 758 
Q 1494 397 1959 397 
Q 2419 397 2687 759 
Q 2956 1122 2956 1747 
Q 2956 2369 2687 2733 
Q 2419 3097 1959 3097 
z
M 1959 3584 
Q 2709 3584 3137 3096 
Q 3566 2609 3566 1747 
Q 3566 888 3137 398 
Q 2709 -91 1959 -91 
Q 1206 -91 779 398 
Q 353 888 353 1747 
Q 353 2609 779 3096 
Q 1206 3584 1959 3584 
z
" transform="scale(0.015625)"/>
      </defs>
      <use xlink:href="#DejaVuSans-41"/>
      <use xlink:href="#DejaVuSans-70" x="68.408203"/>
      <use xlink:href="#DejaVuSans-70" x="131.884766"/>
      <use xlink:href="#DejaVuSans-72" x="195.361328"/>
      <use xlink:href="#DejaVuSans-6f" x="234.224609"/>
      <use xlink:href="#DejaVuSans-76" x="295.40625"/>
      <use xlink:href="#DejaVuSans-65" x="354.585938"/>
      <use xlink:href="#DejaVuSans-20" x="416.109375"/>
      <use xlink:href="#DejaVuSans-52" x="447.896484"/>
      <use xlink:href="#DejaVuSans-65" x="512.878906"/>
      <use xlink:href="#DejaVuSans-71" x="574.402344"/>
      <use xlink:href="#DejaVuSans-75" x="637.878906"/>
      <use xlink:href="#DejaVuSans-65" x="701.257812"/>
      <use xlink:href="#DejaVuSans-73" x="762.78125"/>
      <use xlink:href="#DejaVuSans-74" x="814.880859"/>
     </g>
    </g>
    <g id="patch_8">
     <path d="M 628.83 288 
L 663.831203 288 
L 663.831203 218.7 
L 628.83 218.7 
z
" style="fill: #ffffff; stroke: #000000; stroke-linejoin: miter"/>
    </g>
    <g id="text_7">
     <!-- 3 -->
     <g transform="translate(644.739977 254.729688) scale(0.05 -0.05)">
      <defs>
       <path id="DejaVuSans-33" d="M 2597 2516 
Q 3050 2419 3304 2112 
Q 3559 1806 3559 1356 
Q 3559 666 3084 287 
Q 2609 -91 1734 -91 
Q 1441 -91 1130 -33 
Q 819 25 488 141 
L 488 750 
Q 750 597 1062 519 
Q 1375 441 1716 441 
Q 2309 441 2620 675 
Q 2931 909 2931 1356 
Q 2931 1769 2642 2001 
Q 2353 2234 1838 2234 
L 1294 2234 
L 1294 2753 
L 1863 2753 
Q 2328 2753 2575 2939 
Q 2822 3125 2822 3475 
Q 2822 3834 2567 4026 
Q 2313 4219 1838 4219 
Q 1578 4219 1281 4162 
Q 984 4106 628 3988 
L 628 4550 
Q 988 4650 1302 4700 
Q 1616 4750 1894 4750 
Q 2613 4750 3031 4423 
Q 3450 4097 3450 3541 
Q 3450 3153 3228 2886 
Q 3006 2619 2597 2516 
z
" transform="scale(0.015625)"/>
      </defs>
      <use xlink:href="#DejaVuSans-33"/>
     </g>
    </g>
    <g id="patch_9">
     <path d="M 663.831203 288 
L 746.55 288 
L 746.55 218.7 
L 663.831203 218.7 
z
" style="fill: #ffffff; stroke: #000000; stroke-linejoin: miter"/>
    </g>
    <g id="text_8">
     <!-- Reject Request -->
     <g transform="translate(686.490602 254.729688) scale(0.05 -0.05)">
      <defs>
       <path id="DejaVuSans-6a" d="M 603 3500 
L 1178 3500 
L 1178 -63 
Q 1178 -731 923 -1031 
Q 669 -1331 103 -1331 
L -116 -1331 
L -116 -844 
L 38 -844 
Q 366 -844 484 -692 
Q 603 -541 603 -63 
L 603 3500 
z
M 603 4863 
L 1178 4863 
L 1178 4134 
L 603 4134 
L 603 4863 
z
" transform="scale(0.015625)"/>
      </defs>
      <use xlink:href="#DejaVuSans-52"/>
      <use xlink:href="#DejaVuSans-65" x="64.982422"/>
      <use xlink:href="#DejaVuSans-6a" x="126.505859"/>
      <use xlink:href="#DejaVuSans-65" x="154.289062"/>
      <use xlink:href="#DejaVuSans-63" x="215.8125"/>
      <use xlink:href="#DejaVuSans-74" x="270.792969"/>
      <use xlink:href="#DejaVuSans-20" x="310.001953"/>
      <use xlink:href="#DejaVuSans-52" x="341.789062"/>
      <use xlink:href="#DejaVuSans-65" x="406.771484"/>
      <use xlink:href="#DejaVuSans-71" x="468.294922"/>
      <use xlink:href="#DejaVuSans-75" x="531.771484"/>
      <use xlink:href="#DejaVuSans-65" x="595.150391"/>
      <use xlink:href="#DejaVuSans-73" x="656.673828"/>
      <use xlink:href="#DejaVuSans-74" x="708.773438"/>
     </g>
    </g>
    <g id="patch_10">
     <path d="M 628.83 357.3 
L 663.831203 357.3 
L 663.831203 288 
L 628.83 288 
z
" style="fill: #ffffff; stroke: #000000; stroke-linejoin: miter"/>
    </g>
    <g id="text_9">
     <!-- 4 -->
     <g transform="translate(644.739977 324.029688) scale(0.05 -0.05)">
      <defs>
       <path id="DejaVuSans-34" d="M 2419 4116 
L 825 1625 
L 2419 1625 
L 2419 4116 
z
M 2253 4666 
L 3047 4666 
L 3047 1625 
L 3713 1625 
L 3713 1100 
L 3047 1100 
L 3047 0 
L 2419 0 
L 2419 1100 
L 313 1100 
L 313 1709 
L 2253 4666 
z
" transform="scale(0.015625)"/>
      </defs>
      <use xlink:href="#DejaVuSans-34"/>
     </g>
    </g>
    <g id="patch_11">
     <path d="M 663.831203 357.3 
L 746.55 357.3 
L 746.55 288 
L 663.831203 288 
z
" style="fill: #ffffff; stroke: #000000; stroke-linejoin: miter"/>
    </g>
    <g id="text_10">
     <!-- Approve Request -->
     <g transform="translate(683.837477 324.029688) scale(0.05 -0.05)">
      <use xlink:href="#DejaVuSans-41"/>
      <use xlink:href="#DejaVuSans-70" x="68.408203"/>
      <use xlink:href="#DejaVuSans-70" x="131.884766"/>
      <use xlink:href="#DejaVuSans-72" x="195.361328"/>
      <use xlink:href="#DejaVuSans-6f" x="234.224609"/>
      <use xlink:href="#DejaVuSans-76" x="295.40625"/>
      <use xlink:href="#DejaVuSans-65" x="354.585938"/>
      <use xlink:href="#DejaVuSans-20" x="416.109375"/>
      <use xlink:href="#DejaVuSans-52" x="447.896484"/>
      <use xlink:href="#DejaVuSans-65" x="512.878906"/>
      <use xlink:href="#DejaVuSans-71" x="574.402344"/>
      <use xlink:href="#DejaVuSans-75" x="637.878906"/>
      <use xlink:href="#DejaVuSans-65" x="701.257812"/>
      <use xlink:href="#DejaVuSans-73" x="762.78125"/>
      <use xlink:href="#DejaVuSans-74" x="814.880859"/>
     </g>
    </g>
    <g id="patch_12">
     <path d="M 628.83 426.6 
L 663.831203 426.6 
L 663.831203 357.3 
L 628.83 357.3 
z
" style="fill: #ffffff; stroke: #000000; stroke-linejoin: miter"/>
    </g>
    <g id="text_11">
     <!-- 5 -->
     <g transform="translate(644.739977 393.329688) scale(0.05 -0.05)">
      <defs>
       <path id="DejaVuSans-35" d="M 691 4666 
L 3169 4666 
L 3169 4134 
L 1269 4134 
L 1269 2991 
Q 1406 3038 1543 3061 
Q 1681 3084 1819 3084 
Q 2600 3084 3056 2656 
Q 3513 2228 3513 1497 
Q 3513 744 3044 326 
Q 2575 -91 1722 -91 
Q 1428 -91 1123 -41 
Q 819 9 494 109 
L 494 744 
Q 775 591 1075 516 
Q 1375 441 1709 441 
Q 2250 441 2565 725 
Q 2881 1009 2881 1497 
Q 2881 1984 2565 2268 
Q 2250 2553 1709 2553 
Q 1456 2553 1204 2497 
Q 953 2441 691 2322 
L 691 4666 
z
" transform="scale(0.015625)"/>
      </defs>
      <use xlink:href="#DejaVuSans-35"/>
     </g>
    </g>
    <g id="patch_13">
     <path d="M 663.831203 426.6 
L 746.55 426.6 
L 746.55 357.3 
L 663.831203 357.3 
z
" style="fill: #ffffff; stroke: #000000; stroke-linejoin: miter"/>
    </g>
    <g id="text_12">
     <!-- File Travel Permit -->
     <g transform="translate(683.938258 393.329688) scale(0.05 -0.05)">
      <defs>
       <path id="DejaVuSans-46" d="M 628 4666 
L 3309 4666 
L 3309 4134 
L 1259 4134 
L 1259 2759 
L 3109 2759 
L 3109 2228 
L 1259 2228 
L 1259 0 
L 628 0 
L 628 4666 
z
" transform="scale(0.015625)"/>
       <path id="DejaVuSans-6c" d="M 603 4863 
L 1178 4863 
L 1178 0 
L 603 0 
L 603 4863 
z
" transform="scale(0.015625)"/>
       <path id="DejaVuSans-54" d="M -19 4666 
L 3928 4666 
L 3928 4134 
L 2272 4134 
L 2272 0 
L 1638 0 
L 1638 4134 
L -19 4134 
L -19 4666 
z
" transform="scale(0.015625)"/>
       <path id="DejaVuSans-61" d="M 2194 1759 
Q 1497 1759 1228 1600 
Q 959 1441 959 1056 
Q 959 750 1161 570 
Q 1363 391 1709 391 
Q 2188 391 2477 730 
Q 2766 1069 2766 1631 
L 2766 1759 
L 2194 1759 
z
M 3341 1997 
L 3341 0 
L 2766 0 
L 2766 531 
Q 2569 213 2275 61 
Q 1981 -91 1556 -91 
Q 1019 -91 701 211 
Q 384 513 384 1019 
Q 384 1609 779 1909 
Q 1175 2209 1959 2209 
L 2766 2209 
L 2766 2266 
Q 2766 2663 2505 2880 
Q 2244 3097 1772 3097 
Q 1472 3097 1187 3025 
Q 903 2953 641 2809 
L 641 3341 
Q 956 3463 1253 3523 
Q 1550 3584 1831 3584 
Q 2591 3584 2966 3190 
Q 3341 2797 3341 1997 
z
" transform="scale(0.015625)"/>
       <path id="DejaVuSans-50" d="M 1259 4147 
L 1259 2394 
L 2053 2394 
Q 2494 2394 2734 2622 
Q 2975 2850 2975 3272 
Q 2975 3691 2734 3919 
Q 2494 4147 2053 4147 
L 1259 4147 
z
M 628 4666 
L 2053 4666 
Q 2838 4666 3239 4311 
Q 3641 3956 3641 3272 
Q 3641 2581 3239 2228 
Q 2838 1875 2053 1875 
L 1259 1875 
L 1259 0 
L 628 0 
L 628 4666 
z
" transform="scale(0.015625)"/>
      </defs>
      <use xlink:href="#DejaVuSans-46"/>
      <use xlink:href="#DejaVuSans-69" x="50.269531"/>
      <use xlink:href="#DejaVuSans-6c" x="78.052734"/>
      <use xlink:href="#DejaVuSans-65" x="105.835938"/>
      <use xlink:href="#DejaVuSans-20" x="167.359375"/>
      <use xlink:href="#DejaVuSans-54" x="199.146484"/>
      <use xlink:href="#DejaVuSans-72" x="245.480469"/>
      <use xlink:href="#DejaVuSans-61" x="286.59375"/>
      <use xlink:href="#DejaVuSans-76" x="347.873047"/>
      <use xlink:href="#DejaVuSans-65" x="407.052734"/>
      <use xlink:href="#DejaVuSans-6c" x="468.576172"/>
      <use xlink:href="#DejaVuSans-20" x="496.359375"/>
      <use xlink:href="#DejaVuSans-50" x="528.146484"/>
      <use xlink:href="#DejaVuSans-65" x="584.824219"/>
      <use xlink:href="#DejaVuSans-72" x="646.347656"/>
      <use xlink:href="#DejaVuSans-6d" x="685.710938"/>
      <use xlink:href="#DejaVuSans-69" x="783.123047"/>
      <use xlink:href="#DejaVuSans-74" x="810.90625"/>
     </g>
    </g>
    <g id="patch_14">
     <path d="M 628.83 495.9 
L 663.831203 495.9 
L 663.831203 426.6 
L 628.83 426.6 
z
" style="fill: #ffffff; stroke: #000000; stroke-linejoin: miter"/>
    </g>
    <g id="text_13">
     <!-- 6 -->
     <g transform="translate(644.739977 462.629687) scale(0.05 -0.05)">
      <defs>
       <path id="DejaVuSans-36" d="M 2113 2584 
Q 1688 2584 1439 2293 
Q 1191 2003 1191 1497 
Q 1191 994 1439 701 
Q 1688 409 2113 409 
Q 2538 409 2786 701 
Q 3034 994 3034 1497 
Q 3034 2003 2786 2293 
Q 2538 2584 2113 2584 
z
M 3366 4563 
L 3366 3988 
Q 3128 4100 2886 4159 
Q 2644 4219 2406 4219 
Q 1781 4219 1451 3797 
Q 1122 3375 1075 2522 
Q 1259 2794 1537 2939 
Q 1816 3084 2150 3084 
Q 2853 3084 3261 2657 
Q 3669 2231 3669 1497 
Q 3669 778 3244 343 
Q 2819 -91 2113 -91 
Q 1303 -91 875 529 
Q 447 1150 447 2328 
Q 447 3434 972 4092 
Q 1497 4750 2381 4750 
Q 2619 4750 2861 4703 
Q 3103 4656 3366 4563 
z
" transform="scale(0.015625)"/>
      </defs>
      <use xlink:href="#DejaVuSans-36"/>
     </g>
    </g>
    <g id="patch_15">
     <path d="M 663.831203 495.9 
L 746.55 495.9 
L 746.55 426.6 
L 663.831203 426.6 
z
" style="fill: #ffffff; stroke: #000000; stroke-linejoin: miter"/>
    </g>
    <g id="text_14">
     <!-- Submit Travel Declaration -->
     <g transform="translate(672.88982 462.629687) scale(0.05 -0.05)">
      <defs>
       <path id="DejaVuSans-44" d="M 1259 4147 
L 1259 519 
L 2022 519 
Q 2988 519 3436 956 
Q 3884 1394 3884 2338 
Q 3884 3275 3436 3711 
Q 2988 4147 2022 4147 
L 1259 4147 
z
M 628 4666 
L 1925 4666 
Q 3281 4666 3915 4102 
Q 4550 3538 4550 2338 
Q 4550 1131 3912 565 
Q 3275 0 1925 0 
L 628 0 
L 628 4666 
z
" transform="scale(0.015625)"/>
       <path id="DejaVuSans-6e" d="M 3513 2113 
L 3513 0 
L 2938 0 
L 2938 2094 
Q 2938 2591 2744 2837 
Q 2550 3084 2163 3084 
Q 1697 3084 1428 2787 
Q 1159 2491 1159 1978 
L 1159 0 
L 581 0 
L 581 3500 
L 1159 3500 
L 1159 2956 
Q 1366 3272 1645 3428 
Q 1925 3584 2291 3584 
Q 2894 3584 3203 3211 
Q 3513 2838 3513 2113 
z
" transform="scale(0.015625)"/>
      </defs>
      <use xlink:href="#DejaVuSans-53"/>
      <use xlink:href="#DejaVuSans-75" x="63.476562"/>
      <use xlink:href="#DejaVuSans-62" x="126.855469"/>
      <use xlink:href="#DejaVuSans-6d" x="190.332031"/>
      <use xlink:href="#DejaVuSans-69" x="287.744141"/>
      <use xlink:href="#DejaVuSans-74" x="315.527344"/>
      <use xlink:href="#DejaVuSans-20" x="354.736328"/>
      <use xlink:href="#DejaVuSans-54" x="386.523438"/>
      <use xlink:href="#DejaVuSans-72" x="432.857422"/>
      <use xlink:href="#DejaVuSans-61" x="473.970703"/>
      <use xlink:href="#DejaVuSans-76" x="535.25"/>
      <use xlink:href="#DejaVuSans-65" x="594.429688"/>
      <use xlink:href="#DejaVuSans-6c" x="655.953125"/>
      <use xlink:href="#DejaVuSans-20" x="683.736328"/>
      <use xlink:href="#DejaVuSans-44" x="715.523438"/>
      <use xlink:href="#DejaVuSans-65" x="792.525391"/>
      <use xlink:href="#DejaVuSans-63" x="854.048828"/>
      <use xlink:href="#DejaVuSans-6c" x="909.029297"/>
      <use xlink:href="#DejaVuSans-61" x="936.8125"/>
      <use xlink:href="#DejaVuSans-72" x="998.091797"/>
      <use xlink:href="#DejaVuSans-61" x="1039.205078"/>
      <use xlink:href="#DejaVuSans-74" x="1100.484375"/>
      <use xlink:href="#DejaVuSans-69" x="1139.693359"/>
      <use xlink:href="#DejaVuSans-6f" x="1167.476562"/>
      <use xlink:href="#DejaVuSans-6e" x="1228.658203"/>
     </g>
    </g>
    <g id="patch_16">
     <path d="M 628.83 565.2 
L 663.831203 565.2 
L 663.831203 495.9 
L 628.83 495.9 
z
" style="fill: #ffffff; stroke: #000000; stroke-linejoin: miter"/>
    </g>
    <g id="text_15">
     <!-- 7 -->
     <g transform="translate(644.739977 531.929688) scale(0.05 -0.05)">
      <defs>
       <path id="DejaVuSans-37" d="M 525 4666 
L 3525 4666 
L 3525 4397 
L 1831 0 
L 1172 0 
L 2766 4134 
L 525 4134 
L 525 4666 
z
" transform="scale(0.015625)"/>
      </defs>
      <use xlink:href="#DejaVuSans-37"/>
     </g>
    </g>
    <g id="patch_17">
     <path d="M 663.831203 565.2 
L 746.55 565.2 
L 746.55 495.9 
L 663.831203 495.9 
z
" style="fill: #ffffff; stroke: #000000; stroke-linejoin: miter"/>
    </g>
    <g id="text_16">
     <!-- Submit Reimbursement Request -->
     <g transform="translate(664.707789 531.929688) scale(0.05 -0.05)">
      <use xlink:href="#DejaVuSans-53"/>
      <use xlink:href="#DejaVuSans-75" x="63.476562"/>
      <use xlink:href="#DejaVuSans-62" x="126.855469"/>
      <use xlink:href="#DejaVuSans-6d" x="190.332031"/>
      <use xlink:href="#DejaVuSans-69" x="287.744141"/>
      <use xlink:href="#DejaVuSans-74" x="315.527344"/>
      <use xlink:href="#DejaVuSans-20" x="354.736328"/>
      <use xlink:href="#DejaVuSans-52" x="386.523438"/>
      <use xlink:href="#DejaVuSans-65" x="451.505859"/>
      <use xlink:href="#DejaVuSans-69" x="513.029297"/>
      <use xlink:href="#DejaVuSans-6d" x="540.8125"/>
      <use xlink:href="#DejaVuSans-62" x="638.224609"/>
      <use xlink:href="#DejaVuSans-75" x="701.701172"/>
      <use xlink:href="#DejaVuSans-72" x="765.080078"/>
      <use xlink:href="#DejaVuSans-73" x="806.193359"/>
      <use xlink:href="#DejaVuSans-65" x="858.292969"/>
      <use xlink:href="#DejaVuSans-6d" x="919.816406"/>
      <use xlink:href="#DejaVuSans-65" x="1017.228516"/>
      <use xlink:href="#DejaVuSans-6e" x="1078.751953"/>
      <use xlink:href="#DejaVuSans-74" x="1142.130859"/>
      <use xlink:href="#DejaVuSans-20" x="1181.339844"/>
      <use xlink:href="#DejaVuSans-52" x="1213.126953"/>
      <use xlink:href="#DejaVuSans-65" x="1278.109375"/>
      <use xlink:href="#DejaVuSans-71" x="1339.632812"/>
      <use xlink:href="#DejaVuSans-75" x="1403.109375"/>
      <use xlink:href="#DejaVuSans-65" x="1466.488281"/>
      <use xlink:href="#DejaVuSans-73" x="1528.011719"/>
      <use xlink:href="#DejaVuSans-74" x="1580.111328"/>
     </g>
    </g>
   </g>
   <g id="patch_18">
    <path d="M 543.422886 509.952941 
Q 455.424213 383.165127 327.902359 297.831773 
" clip-path="url(#p7584ee098b)" style="fill: none; stroke: #000000; stroke-opacity: 0.5; stroke-width: 0.8; stroke-linecap: round"/>
    <path d="M 330.114444 301.718504 
L 327.902359 297.831773 
L 332.338995 298.394144 
z
" clip-path="url(#p7584ee098b)" style="fill-opacity: 0.5; stroke: #000000; stroke-opacity: 0.5; stroke-width: 0.8; stroke-linecap: round"/>
   </g>
   <g id="patch_19">
    <path d="M 324.836611 299.692516 
Q 412.835284 426.480329 540.357138 511.813683 
" clip-path="url(#p7584ee098b)" style="fill: none; stroke: #000000; stroke-opacity: 0.5; stroke-width: 0.8; stroke-linecap: round"/>
    <path d="M 538.145053 507.926952 
L 540.357138 511.813683 
L 535.920502 511.251313 
z
" clip-path="url(#p7584ee098b)" style="fill-opacity: 0.5; stroke: #000000; stroke-opacity: 0.5; stroke-width: 0.8; stroke-linecap: round"/>
   </g>
   <g id="patch_20">
    <path d="M 543.422886 509.952941 
Q 455.424213 383.165127 327.902359 297.831773 
" clip-path="url(#p7584ee098b)" style="fill: none; stroke: #000000; stroke-opacity: 0.5; stroke-width: 0.8; stroke-linecap: round"/>
    <path d="M 330.114444 301.718504 
L 327.902359 297.831773 
L 332.338995 298.394144 
z
" clip-path="url(#p7584ee098b)" style="fill-opacity: 0.5; stroke: #000000; stroke-opacity: 0.5; stroke-width: 0.8; stroke-linecap: round"/>
   </g>
   <g id="patch_21">
    <path d="M 314.74744 285.618862 
Q 213.157716 151.155399 70.055695 63.851089 
" clip-path="url(#p7584ee098b)" style="fill: none; stroke: #000000; stroke-opacity: 0.5; stroke-width: 0.8; stroke-linecap: round"/>
    <path d="M 72.428758 67.641679 
L 70.055695 63.851089 
L 74.512005 64.226993 
z
" clip-path="url(#p7584ee098b)" style="fill-opacity: 0.5; stroke: #000000; stroke-opacity: 0.5; stroke-width: 0.8; stroke-linecap: round"/>
   </g>
   <g id="patch_22">
    <path d="M 543.422886 509.952941 
Q 455.424213 383.165127 327.902359 297.831773 
" clip-path="url(#p7584ee098b)" style="fill: none; stroke: #000000; stroke-opacity: 0.5; stroke-width: 0.8; stroke-linecap: round"/>
    <path d="M 330.114444 301.718504 
L 327.902359 297.831773 
L 332.338995 298.394144 
z
" clip-path="url(#p7584ee098b)" style="fill-opacity: 0.5; stroke: #000000; stroke-opacity: 0.5; stroke-width: 0.8; stroke-linecap: round"/>
   </g>
   <g id="patch_23">
    <path d="M 543.422886 509.952941 
Q 455.424213 383.165127 327.902359 297.831773 
" clip-path="url(#p7584ee098b)" style="fill: none; stroke: #000000; stroke-opacity: 0.5; stroke-width: 0.8; stroke-linecap: round"/>
    <path d="M 330.114444 301.718504 
L 327.902359 297.831773 
L 332.338995 298.394144 
z
" clip-path="url(#p7584ee098b)" style="fill-opacity: 0.5; stroke: #000000; stroke-opacity: 0.5; stroke-width: 0.8; stroke-linecap: round"/>
   </g>
   <g id="patch_24">
    <path d="M 543.422886 509.952941 
Q 455.424213 383.165127 327.902359 297.831773 
" clip-path="url(#p7584ee098b)" style="fill: none; stroke: #000000; stroke-opacity: 0.5; stroke-width: 0.8; stroke-linecap: round"/>
    <path d="M 330.114444 301.718504 
L 327.902359 297.831773 
L 332.338995 298.394144 
z
" clip-path="url(#p7584ee098b)" style="fill-opacity: 0.5; stroke: #000000; stroke-opacity: 0.5; stroke-width: 0.8; stroke-linecap: round"/>
   </g>
   <g id="text_17">
    <g id="patch_25">
     <path d="M 428.469964 408.533852 
L 432.656759 411.428476 
Q 434.630886 412.793328 435.995738 410.819201 
L 440.398808 404.450584 
Q 441.763661 402.476457 439.789533 401.111605 
L 435.602739 398.216981 
Q 433.628611 396.852128 432.263759 398.826256 
L 427.860689 405.194872 
Q 426.495837 407.168999 428.469964 408.533852 
z
" clip-path="url(#p7584ee098b)" style="fill: #ffffff; stroke: #ffffff; stroke-linejoin: miter"/>
    </g>
    <g clip-path="url(#p7584ee098b)">
     <!-- 7 -->
     <g style="fill: #808080" transform="translate(430.780971 405.191202) rotate(-325.341182) scale(0.08 -0.08)">
      <use xlink:href="#DejaVuSans-37"/>
     </g>
    </g>
   </g>
   <g id="text_18">
    <g id="patch_26">
     <path d="M 428.469964 408.533852 
L 432.656759 411.428476 
Q 434.630886 412.793328 435.995738 410.819201 
L 440.398808 404.450584 
Q 441.763661 402.476457 439.789533 401.111605 
L 435.602739 398.216981 
Q 433.628611 396.852128 432.263759 398.826256 
L 427.860689 405.194872 
Q 426.495837 407.168999 428.469964 408.533852 
z
" clip-path="url(#p7584ee098b)" style="fill: #ffffff; stroke: #ffffff; stroke-linejoin: miter"/>
    </g>
    <g clip-path="url(#p7584ee098b)">
     <!-- 2 -->
     <g style="fill: #808080" transform="translate(430.780971 405.191202) rotate(-325.341182) scale(0.08 -0.08)">
      <use xlink:href="#DejaVuSans-32"/>
     </g>
    </g>
   </g>
   <g id="text_19">
    <g id="patch_27">
     <path d="M 185.39168 179.654978 
L 189.68527 182.38869 
Q 191.709753 183.677671 192.998733 181.653188 
L 197.157038 175.122123 
Q 198.446018 173.097641 196.421536 171.808661 
L 192.127946 169.074948 
Q 190.103463 167.785967 188.814483 169.81045 
L 184.656178 176.341515 
Q 183.367198 178.365997 185.39168 179.654978 
z
" clip-path="url(#p7584ee098b)" style="fill: #ffffff; stroke: #ffffff; stroke-linejoin: miter"/>
    </g>
    <g clip-path="url(#p7584ee098b)">
     <!-- 4 -->
     <g style="fill: #808080" transform="translate(187.57422 176.227065) rotate(-327.515245) scale(0.08 -0.08)">
      <use xlink:href="#DejaVuSans-34"/>
     </g>
    </g>
   </g>
   <g id="patch_28">
    <path d="M 434.129749 517.090909 
C 517.327865 517.090909 597.129603 505.261625 655.959555 484.20832 
C 714.789507 463.155015 747.844469 434.596598 747.844469 404.822728 
C 747.844469 375.048859 714.789507 346.490441 655.959555 325.437136 
C 597.129603 304.383831 517.327865 292.554547 434.129749 292.554547 
C 350.931632 292.554547 271.129895 304.383831 212.299942 325.437136 
C 153.46999 346.490441 120.415028 375.048859 120.415028 404.822728 
C 120.415028 434.596598 153.46999 463.155015 212.299942 484.20832 
C 271.129895 505.261625 350.931632 517.090909 434.129749 517.090909 
L 434.129749 517.090909 
z
" clip-path="url(#p7584ee098b)" style="fill: none; stroke-dasharray: 3.7,1.6; stroke-dashoffset: 0; stroke: #0000ff; stroke-linejoin: miter"/>
   </g>
   <g id="PathCollection_1">
    <path d="M 548.32314 534.272675 
C 552.879798 534.272675 557.25044 532.462295 560.472483 529.240252 
C 563.694527 526.018209 565.504906 521.647567 565.504906 517.090909 
C 565.504906 512.534252 563.694527 508.16361 560.472483 504.941566 
C 557.25044 501.719523 552.879798 499.909144 548.32314 499.909144 
C 543.766483 499.909144 539.395841 501.719523 536.173798 504.941566 
C 532.951754 508.16361 531.141375 512.534252 531.141375 517.090909 
C 531.141375 521.647567 532.951754 526.018209 536.173798 529.240252 
C 539.395841 532.462295 543.766483 534.272675 548.32314 534.272675 
z
" clip-path="url(#p7584ee098b)" style="fill: #1f77b4; fill-opacity: 0.8; stroke: #1f77b4; stroke-opacity: 0.8"/>
    <path d="M 319.936357 307.634119 
C 323.935506 307.634119 327.771398 306.04524 330.599224 303.217414 
C 333.427049 300.389589 335.015928 296.553696 335.015928 292.554547 
C 335.015928 288.555398 333.427049 284.719506 330.599224 281.89168 
C 327.771398 279.063855 323.935506 277.474976 319.936357 277.474976 
C 315.937208 277.474976 312.101315 279.063855 309.27349 281.89168 
C 306.445664 284.719506 304.856785 288.555398 304.856785 292.554547 
C 304.856785 296.553696 306.445664 300.389589 309.27349 303.217414 
C 312.101315 306.04524 315.937208 307.634119 319.936357 307.634119 
z
" clip-path="url(#p7584ee098b)" style="fill: #8c564b; fill-opacity: 0.8; stroke: #8c564b; stroke-opacity: 0.8"/>
    <path d="M 61.87686 73.988662 
C 65.876009 73.988662 69.711901 72.399783 72.539727 69.571958 
C 75.367552 66.744133 76.956431 62.90824 76.956431 58.909091 
C 76.956431 54.909942 75.367552 51.074049 72.539727 48.246224 
C 69.711901 45.418398 65.876009 43.82952 61.87686 43.82952 
C 57.87771 43.82952 54.041818 45.418398 51.213992 48.246224 
C 48.386167 51.074049 46.797288 54.909942 46.797288 58.909091 
C 46.797288 62.90824 48.386167 66.744133 51.213992 69.571958 
C 54.041818 72.399783 57.87771 73.988662 61.87686 73.988662 
z
" clip-path="url(#p7584ee098b)" style="fill: #9edae5; fill-opacity: 0.8; stroke: #9edae5; stroke-opacity: 0.8"/>
   </g>
   <g id="text_20">
    <g clip-path="url(#p7584ee098b)">
     <!-- Employee -->
     <g transform="translate(523.558297 519.850284) scale(0.1 -0.1)">
      <use xlink:href="#DejaVuSans-45"/>
      <use xlink:href="#DejaVuSans-6d" x="63.183594"/>
      <use xlink:href="#DejaVuSans-70" x="160.595703"/>
      <use xlink:href="#DejaVuSans-6c" x="224.072266"/>
      <use xlink:href="#DejaVuSans-6f" x="251.855469"/>
      <use xlink:href="#DejaVuSans-79" x="313.037109"/>
      <use xlink:href="#DejaVuSans-65" x="372.216797"/>
      <use xlink:href="#DejaVuSans-65" x="433.740234"/>
     </g>
    </g>
   </g>
   <g id="text_21">
    <g clip-path="url(#p7584ee098b)">
     <!-- Travel Administration -->
     <g transform="translate(266.900419 295.313922) scale(0.1 -0.1)">
      <use xlink:href="#DejaVuSans-54"/>
      <use xlink:href="#DejaVuSans-72" x="46.333984"/>
      <use xlink:href="#DejaVuSans-61" x="87.447266"/>
      <use xlink:href="#DejaVuSans-76" x="148.726562"/>
      <use xlink:href="#DejaVuSans-65" x="207.90625"/>
      <use xlink:href="#DejaVuSans-6c" x="269.429688"/>
      <use xlink:href="#DejaVuSans-20" x="297.212891"/>
      <use xlink:href="#DejaVuSans-41" x="329"/>
      <use xlink:href="#DejaVuSans-64" x="395.658203"/>
      <use xlink:href="#DejaVuSans-6d" x="459.134766"/>
      <use xlink:href="#DejaVuSans-69" x="556.546875"/>
      <use xlink:href="#DejaVuSans-6e" x="584.330078"/>
      <use xlink:href="#DejaVuSans-69" x="647.708984"/>
      <use xlink:href="#DejaVuSans-73" x="675.492188"/>
      <use xlink:href="#DejaVuSans-74" x="727.591797"/>
      <use xlink:href="#DejaVuSans-72" x="766.800781"/>
      <use xlink:href="#DejaVuSans-61" x="807.914062"/>
      <use xlink:href="#DejaVuSans-74" x="869.193359"/>
      <use xlink:href="#DejaVuSans-69" x="908.402344"/>
      <use xlink:href="#DejaVuSans-6f" x="936.185547"/>
      <use xlink:href="#DejaVuSans-6e" x="997.367188"/>
     </g>
    </g>
   </g>
   <g id="text_22">
    <g clip-path="url(#p7584ee098b)">
     <!-- Budget Owner/Supervisor -->
     <g transform="translate(-2.423922 61.668466) scale(0.1 -0.1)">
      <defs>
       <path id="DejaVuSans-42" d="M 1259 2228 
L 1259 519 
L 2272 519 
Q 2781 519 3026 730 
Q 3272 941 3272 1375 
Q 3272 1813 3026 2020 
Q 2781 2228 2272 2228 
L 1259 2228 
z
M 1259 4147 
L 1259 2741 
L 2194 2741 
Q 2656 2741 2882 2914 
Q 3109 3088 3109 3444 
Q 3109 3797 2882 3972 
Q 2656 4147 2194 4147 
L 1259 4147 
z
M 628 4666 
L 2241 4666 
Q 2963 4666 3353 4366 
Q 3744 4066 3744 3513 
Q 3744 3084 3544 2831 
Q 3344 2578 2956 2516 
Q 3422 2416 3680 2098 
Q 3938 1781 3938 1306 
Q 3938 681 3513 340 
Q 3088 0 2303 0 
L 628 0 
L 628 4666 
z
" transform="scale(0.015625)"/>
       <path id="DejaVuSans-4f" d="M 2522 4238 
Q 1834 4238 1429 3725 
Q 1025 3213 1025 2328 
Q 1025 1447 1429 934 
Q 1834 422 2522 422 
Q 3209 422 3611 934 
Q 4013 1447 4013 2328 
Q 4013 3213 3611 3725 
Q 3209 4238 2522 4238 
z
M 2522 4750 
Q 3503 4750 4090 4092 
Q 4678 3434 4678 2328 
Q 4678 1225 4090 567 
Q 3503 -91 2522 -91 
Q 1538 -91 948 565 
Q 359 1222 359 2328 
Q 359 3434 948 4092 
Q 1538 4750 2522 4750 
z
" transform="scale(0.015625)"/>
       <path id="DejaVuSans-77" d="M 269 3500 
L 844 3500 
L 1563 769 
L 2278 3500 
L 2956 3500 
L 3675 769 
L 4391 3500 
L 4966 3500 
L 4050 0 
L 3372 0 
L 2619 2869 
L 1863 0 
L 1184 0 
L 269 3500 
z
" transform="scale(0.015625)"/>
       <path id="DejaVuSans-2f" d="M 1625 4666 
L 2156 4666 
L 531 -594 
L 0 -594 
L 1625 4666 
z
" transform="scale(0.015625)"/>
      </defs>
      <use xlink:href="#DejaVuSans-42"/>
      <use xlink:href="#DejaVuSans-75" x="68.603516"/>
      <use xlink:href="#DejaVuSans-64" x="131.982422"/>
      <use xlink:href="#DejaVuSans-67" x="195.458984"/>
      <use xlink:href="#DejaVuSans-65" x="258.935547"/>
      <use xlink:href="#DejaVuSans-74" x="320.458984"/>
      <use xlink:href="#DejaVuSans-20" x="359.667969"/>
      <use xlink:href="#DejaVuSans-4f" x="391.455078"/>
      <use xlink:href="#DejaVuSans-77" x="470.166016"/>
      <use xlink:href="#DejaVuSans-6e" x="551.953125"/>
      <use xlink:href="#DejaVuSans-65" x="615.332031"/>
      <use xlink:href="#DejaVuSans-72" x="676.855469"/>
      <use xlink:href="#DejaVuSans-2f" x="717.96875"/>
      <use xlink:href="#DejaVuSans-53" x="751.660156"/>
      <use xlink:href="#DejaVuSans-75" x="815.136719"/>
      <use xlink:href="#DejaVuSans-70" x="878.515625"/>
      <use xlink:href="#DejaVuSans-65" x="941.992188"/>
      <use xlink:href="#DejaVuSans-72" x="1003.515625"/>
      <use xlink:href="#DejaVuSans-76" x="1044.628906"/>
      <use xlink:href="#DejaVuSans-69" x="1103.808594"/>
      <use xlink:href="#DejaVuSans-73" x="1131.591797"/>
      <use xlink:href="#DejaVuSans-6f" x="1183.691406"/>
      <use xlink:href="#DejaVuSans-72" x="1244.873047"/>
     </g>
    </g>
   </g>
  </g>
 </g>
 <defs>
  <clipPath id="p7584ee098b">
   <rect x="10.8" y="10.8" width="588.6" height="554.4"/>
  </clipPath>
 </defs>
</svg>
