<?xml version="1.0" encoding="utf-8" standalone="no"?>
<!DOCTYPE svg PUBLIC "-//W3C//DTD SVG 1.1//EN"
  "http://www.w3.org/Graphics/SVG/1.1/DTD/svg11.dtd">
<svg xmlns:xlink="http://www.w3.org/1999/xlink" width="864pt" height="576pt" viewBox="0 0 864 576" xmlns="http://www.w3.org/2000/svg" version="1.1">
 <metadata>
  <rdf:RDF xmlns:dc="http://purl.org/dc/elements/1.1/" xmlns:cc="http://creativecommons.org/ns#" xmlns:rdf="http://www.w3.org/1999/02/22-rdf-syntax-ns#">
   <cc:Work>
    <dc:type rdf:resource="http://purl.org/dc/dcmitype/StillImage"/>
    <dc:date>2023-07-13T16:38:18.197067</dc:date>
    <dc:format>image/svg+xml</dc:format>
    <dc:creator>
     <cc:Agent>
      <dc:title>Matplotlib v3.7.1, https://matplotlib.org/</dc:title>
     </cc:Agent>
    </dc:creator>
   </cc:Work>
  </rdf:RDF>
 </metadata>
 <defs>
  <style type="text/css">*{stroke-linejoin: round; stroke-linecap: butt}</style>
 </defs>
 <g id="figure_1">
  <g id="patch_1">
   <path d="M 0 576 
L 864 576 
L 864 0 
L 0 0 
z
" style="fill: #ffffff"/>
  </g>
  <g id="axes_1">
   <g id="table_1">
    <g id="patch_2">
     <path d="M 628.83 80.1 
L 659.145219 80.1 
L 659.145219 10.8 
L 628.83 10.8 
z
" style="fill: #ffffff; stroke: #000000; stroke-linejoin: miter"/>
    </g>
    <g id="text_1">
     <!-- Edge Number -->
     <g transform="translate(626.857922 46.829688) scale(0.05 -0.05)">
      <defs>
       <path id="DejaVuSans-45" d="M 628 4666 
L 3578 4666 
L 3578 4134 
L 1259 4134 
L 1259 2753 
L 3481 2753 
L 3481 2222 
L 1259 2222 
L 1259 531 
L 3634 531 
L 3634 0 
L 628 0 
L 628 4666 
z
" transform="scale(0.015625)"/>
       <path id="DejaVuSans-64" d="M 2906 2969 
L 2906 4863 
L 3481 4863 
L 3481 0 
L 2906 0 
L 2906 525 
Q 2725 213 2448 61 
Q 2172 -91 1784 -91 
Q 1150 -91 751 415 
Q 353 922 353 1747 
Q 353 2572 751 3078 
Q 1150 3584 1784 3584 
Q 2172 3584 2448 3432 
Q 2725 3281 2906 2969 
z
M 947 1747 
Q 947 1113 1208 752 
Q 1469 391 1925 391 
Q 2381 391 2643 752 
Q 2906 1113 2906 1747 
Q 2906 2381 2643 2742 
Q 2381 3103 1925 3103 
Q 1469 3103 1208 2742 
Q 947 2381 947 1747 
z
" transform="scale(0.015625)"/>
       <path id="DejaVuSans-67" d="M 2906 1791 
Q 2906 2416 2648 2759 
Q 2391 3103 1925 3103 
Q 1463 3103 1205 2759 
Q 947 2416 947 1791 
Q 947 1169 1205 825 
Q 1463 481 1925 481 
Q 2391 481 2648 825 
Q 2906 1169 2906 1791 
z
M 3481 434 
Q 3481 -459 3084 -895 
Q 2688 -1331 1869 -1331 
Q 1566 -1331 1297 -1286 
Q 1028 -1241 775 -1147 
L 775 -588 
Q 1028 -725 1275 -790 
Q 1522 -856 1778 -856 
Q 2344 -856 2625 -561 
Q 2906 -266 2906 331 
L 2906 616 
Q 2728 306 2450 153 
Q 2172 0 1784 0 
Q 1141 0 747 490 
Q 353 981 353 1791 
Q 353 2603 747 3093 
Q 1141 3584 1784 3584 
Q 2172 3584 2450 3431 
Q 2728 3278 2906 2969 
L 2906 3500 
L 3481 3500 
L 3481 434 
z
" transform="scale(0.015625)"/>
       <path id="DejaVuSans-65" d="M 3597 1894 
L 3597 1613 
L 953 1613 
Q 991 1019 1311 708 
Q 1631 397 2203 397 
Q 2534 397 2845 478 
Q 3156 559 3463 722 
L 3463 178 
Q 3153 47 2828 -22 
Q 2503 -91 2169 -91 
Q 1331 -91 842 396 
Q 353 884 353 1716 
Q 353 2575 817 3079 
Q 1281 3584 2069 3584 
Q 2775 3584 3186 3129 
Q 3597 2675 3597 1894 
z
M 3022 2063 
Q 3016 2534 2758 2815 
Q 2500 3097 2075 3097 
Q 1594 3097 1305 2825 
Q 1016 2553 972 2059 
L 3022 2063 
z
" transform="scale(0.015625)"/>
       <path id="DejaVuSans-20" transform="scale(0.015625)"/>
       <path id="DejaVuSans-4e" d="M 628 4666 
L 1478 4666 
L 3547 763 
L 3547 4666 
L 4159 4666 
L 4159 0 
L 3309 0 
L 1241 3903 
L 1241 0 
L 628 0 
L 628 4666 
z
" transform="scale(0.015625)"/>
       <path id="DejaVuSans-75" d="M 544 1381 
L 544 3500 
L 1119 3500 
L 1119 1403 
Q 1119 906 1312 657 
Q 1506 409 1894 409 
Q 2359 409 2629 706 
Q 2900 1003 2900 1516 
L 2900 3500 
L 3475 3500 
L 3475 0 
L 2900 0 
L 2900 538 
Q 2691 219 2414 64 
Q 2138 -91 1772 -91 
Q 1169 -91 856 284 
Q 544 659 544 1381 
z
M 1991 3584 
L 1991 3584 
z
" transform="scale(0.015625)"/>
       <path id="DejaVuSans-6d" d="M 3328 2828 
Q 3544 3216 3844 3400 
Q 4144 3584 4550 3584 
Q 5097 3584 5394 3201 
Q 5691 2819 5691 2113 
L 5691 0 
L 5113 0 
L 5113 2094 
Q 5113 2597 4934 2840 
Q 4756 3084 4391 3084 
Q 3944 3084 3684 2787 
Q 3425 2491 3425 1978 
L 3425 0 
L 2847 0 
L 2847 2094 
Q 2847 2600 2669 2842 
Q 2491 3084 2119 3084 
Q 1678 3084 1418 2786 
Q 1159 2488 1159 1978 
L 1159 0 
L 581 0 
L 581 3500 
L 1159 3500 
L 1159 2956 
Q 1356 3278 1631 3431 
Q 1906 3584 2284 3584 
Q 2666 3584 2933 3390 
Q 3200 3197 3328 2828 
z
" transform="scale(0.015625)"/>
       <path id="DejaVuSans-62" d="M 3116 1747 
Q 3116 2381 2855 2742 
Q 2594 3103 2138 3103 
Q 1681 3103 1420 2742 
Q 1159 2381 1159 1747 
Q 1159 1113 1420 752 
Q 1681 391 2138 391 
Q 2594 391 2855 752 
Q 3116 1113 3116 1747 
z
M 1159 2969 
Q 1341 3281 1617 3432 
Q 1894 3584 2278 3584 
Q 2916 3584 3314 3078 
Q 3713 2572 3713 1747 
Q 3713 922 3314 415 
Q 2916 -91 2278 -91 
Q 1894 -91 1617 61 
Q 1341 213 1159 525 
L 1159 0 
L 581 0 
L 581 4863 
L 1159 4863 
L 1159 2969 
z
" transform="scale(0.015625)"/>
       <path id="DejaVuSans-72" d="M 2631 2963 
Q 2534 3019 2420 3045 
Q 2306 3072 2169 3072 
Q 1681 3072 1420 2755 
Q 1159 2438 1159 1844 
L 1159 0 
L 581 0 
L 581 3500 
L 1159 3500 
L 1159 2956 
Q 1341 3275 1631 3429 
Q 1922 3584 2338 3584 
Q 2397 3584 2469 3576 
Q 2541 3569 2628 3553 
L 2631 2963 
z
" transform="scale(0.015625)"/>
      </defs>
      <use xlink:href="#DejaVuSans-45"/>
      <use xlink:href="#DejaVuSans-64" x="63.183594"/>
      <use xlink:href="#DejaVuSans-67" x="126.660156"/>
      <use xlink:href="#DejaVuSans-65" x="190.136719"/>
      <use xlink:href="#DejaVuSans-20" x="251.660156"/>
      <use xlink:href="#DejaVuSans-4e" x="283.447266"/>
      <use xlink:href="#DejaVuSans-75" x="358.251953"/>
      <use xlink:href="#DejaVuSans-6d" x="421.630859"/>
      <use xlink:href="#DejaVuSans-62" x="519.042969"/>
      <use xlink:href="#DejaVuSans-65" x="582.519531"/>
      <use xlink:href="#DejaVuSans-72" x="644.042969"/>
     </g>
    </g>
    <g id="patch_3">
     <path d="M 659.145219 80.1 
L 746.55 80.1 
L 746.55 10.8 
L 659.145219 10.8 
z
" style="fill: #ffffff; stroke: #000000; stroke-linejoin: miter"/>
    </g>
    <g id="text_2">
     <!-- Edge Activity -->
     <g transform="translate(686.411282 46.829688) scale(0.05 -0.05)">
      <defs>
       <path id="DejaVuSans-41" d="M 2188 4044 
L 1331 1722 
L 3047 1722 
L 2188 4044 
z
M 1831 4666 
L 2547 4666 
L 4325 0 
L 3669 0 
L 3244 1197 
L 1141 1197 
L 716 0 
L 50 0 
L 1831 4666 
z
" transform="scale(0.015625)"/>
       <path id="DejaVuSans-63" d="M 3122 3366 
L 3122 2828 
Q 2878 2963 2633 3030 
Q 2388 3097 2138 3097 
Q 1578 3097 1268 2742 
Q 959 2388 959 1747 
Q 959 1106 1268 751 
Q 1578 397 2138 397 
Q 2388 397 2633 464 
Q 2878 531 3122 666 
L 3122 134 
Q 2881 22 2623 -34 
Q 2366 -91 2075 -91 
Q 1284 -91 818 406 
Q 353 903 353 1747 
Q 353 2603 823 3093 
Q 1294 3584 2113 3584 
Q 2378 3584 2631 3529 
Q 2884 3475 3122 3366 
z
" transform="scale(0.015625)"/>
       <path id="DejaVuSans-74" d="M 1172 4494 
L 1172 3500 
L 2356 3500 
L 2356 3053 
L 1172 3053 
L 1172 1153 
Q 1172 725 1289 603 
Q 1406 481 1766 481 
L 2356 481 
L 2356 0 
L 1766 0 
Q 1100 0 847 248 
Q 594 497 594 1153 
L 594 3053 
L 172 3053 
L 172 3500 
L 594 3500 
L 594 4494 
L 1172 4494 
z
" transform="scale(0.015625)"/>
       <path id="DejaVuSans-69" d="M 603 3500 
L 1178 3500 
L 1178 0 
L 603 0 
L 603 3500 
z
M 603 4863 
L 1178 4863 
L 1178 4134 
L 603 4134 
L 603 4863 
z
" transform="scale(0.015625)"/>
       <path id="DejaVuSans-76" d="M 191 3500 
L 800 3500 
L 1894 563 
L 2988 3500 
L 3597 3500 
L 2284 0 
L 1503 0 
L 191 3500 
z
" transform="scale(0.015625)"/>
       <path id="DejaVuSans-79" d="M 2059 -325 
Q 1816 -950 1584 -1140 
Q 1353 -1331 966 -1331 
L 506 -1331 
L 506 -850 
L 844 -850 
Q 1081 -850 1212 -737 
Q 1344 -625 1503 -206 
L 1606 56 
L 191 3500 
L 800 3500 
L 1894 763 
L 2988 3500 
L 3597 3500 
L 2059 -325 
z
" transform="scale(0.015625)"/>
      </defs>
      <use xlink:href="#DejaVuSans-45"/>
      <use xlink:href="#DejaVuSans-64" x="63.183594"/>
      <use xlink:href="#DejaVuSans-67" x="126.660156"/>
      <use xlink:href="#DejaVuSans-65" x="190.136719"/>
      <use xlink:href="#DejaVuSans-20" x="251.660156"/>
      <use xlink:href="#DejaVuSans-41" x="283.447266"/>
      <use xlink:href="#DejaVuSans-63" x="350.105469"/>
      <use xlink:href="#DejaVuSans-74" x="405.085938"/>
      <use xlink:href="#DejaVuSans-69" x="444.294922"/>
      <use xlink:href="#DejaVuSans-76" x="472.078125"/>
      <use xlink:href="#DejaVuSans-69" x="531.257812"/>
      <use xlink:href="#DejaVuSans-74" x="559.041016"/>
      <use xlink:href="#DejaVuSans-79" x="598.25"/>
     </g>
    </g>
    <g id="patch_4">
     <path d="M 628.83 149.4 
L 659.145219 149.4 
L 659.145219 80.1 
L 628.83 80.1 
z
" style="fill: #ffffff; stroke: #000000; stroke-linejoin: miter"/>
    </g>
    <g id="text_3">
     <!-- 1 -->
     <g transform="translate(642.396985 116.129688) scale(0.05 -0.05)">
      <defs>
       <path id="DejaVuSans-31" d="M 794 531 
L 1825 531 
L 1825 4091 
L 703 3866 
L 703 4441 
L 1819 4666 
L 2450 4666 
L 2450 531 
L 3481 531 
L 3481 0 
L 794 0 
L 794 531 
z
" transform="scale(0.015625)"/>
      </defs>
      <use xlink:href="#DejaVuSans-31"/>
     </g>
    </g>
    <g id="patch_5">
     <path d="M 659.145219 149.4 
L 746.55 149.4 
L 746.55 80.1 
L 659.145219 80.1 
z
" style="fill: #ffffff; stroke: #000000; stroke-linejoin: miter"/>
    </g>
    <g id="text_4">
     <!-- Send Research Approaches and Results -->
     <g transform="translate(653.459328 116.129688) scale(0.05 -0.05)">
      <defs>
       <path id="DejaVuSans-53" d="M 3425 4513 
L 3425 3897 
Q 3066 4069 2747 4153 
Q 2428 4238 2131 4238 
Q 1616 4238 1336 4038 
Q 1056 3838 1056 3469 
Q 1056 3159 1242 3001 
Q 1428 2844 1947 2747 
L 2328 2669 
Q 3034 2534 3370 2195 
Q 3706 1856 3706 1288 
Q 3706 609 3251 259 
Q 2797 -91 1919 -91 
Q 1588 -91 1214 -16 
Q 841 59 441 206 
L 441 856 
Q 825 641 1194 531 
Q 1563 422 1919 422 
Q 2459 422 2753 634 
Q 3047 847 3047 1241 
Q 3047 1584 2836 1778 
Q 2625 1972 2144 2069 
L 1759 2144 
Q 1053 2284 737 2584 
Q 422 2884 422 3419 
Q 422 4038 858 4394 
Q 1294 4750 2059 4750 
Q 2388 4750 2728 4690 
Q 3069 4631 3425 4513 
z
" transform="scale(0.015625)"/>
       <path id="DejaVuSans-6e" d="M 3513 2113 
L 3513 0 
L 2938 0 
L 2938 2094 
Q 2938 2591 2744 2837 
Q 2550 3084 2163 3084 
Q 1697 3084 1428 2787 
Q 1159 2491 1159 1978 
L 1159 0 
L 581 0 
L 581 3500 
L 1159 3500 
L 1159 2956 
Q 1366 3272 1645 3428 
Q 1925 3584 2291 3584 
Q 2894 3584 3203 3211 
Q 3513 2838 3513 2113 
z
" transform="scale(0.015625)"/>
       <path id="DejaVuSans-52" d="M 2841 2188 
Q 3044 2119 3236 1894 
Q 3428 1669 3622 1275 
L 4263 0 
L 3584 0 
L 2988 1197 
Q 2756 1666 2539 1819 
Q 2322 1972 1947 1972 
L 1259 1972 
L 1259 0 
L 628 0 
L 628 4666 
L 2053 4666 
Q 2853 4666 3247 4331 
Q 3641 3997 3641 3322 
Q 3641 2881 3436 2590 
Q 3231 2300 2841 2188 
z
M 1259 4147 
L 1259 2491 
L 2053 2491 
Q 2509 2491 2742 2702 
Q 2975 2913 2975 3322 
Q 2975 3731 2742 3939 
Q 2509 4147 2053 4147 
L 1259 4147 
z
" transform="scale(0.015625)"/>
       <path id="DejaVuSans-73" d="M 2834 3397 
L 2834 2853 
Q 2591 2978 2328 3040 
Q 2066 3103 1784 3103 
Q 1356 3103 1142 2972 
Q 928 2841 928 2578 
Q 928 2378 1081 2264 
Q 1234 2150 1697 2047 
L 1894 2003 
Q 2506 1872 2764 1633 
Q 3022 1394 3022 966 
Q 3022 478 2636 193 
Q 2250 -91 1575 -91 
Q 1294 -91 989 -36 
Q 684 19 347 128 
L 347 722 
Q 666 556 975 473 
Q 1284 391 1588 391 
Q 1994 391 2212 530 
Q 2431 669 2431 922 
Q 2431 1156 2273 1281 
Q 2116 1406 1581 1522 
L 1381 1569 
Q 847 1681 609 1914 
Q 372 2147 372 2553 
Q 372 3047 722 3315 
Q 1072 3584 1716 3584 
Q 2034 3584 2315 3537 
Q 2597 3491 2834 3397 
z
" transform="scale(0.015625)"/>
       <path id="DejaVuSans-61" d="M 2194 1759 
Q 1497 1759 1228 1600 
Q 959 1441 959 1056 
Q 959 750 1161 570 
Q 1363 391 1709 391 
Q 2188 391 2477 730 
Q 2766 1069 2766 1631 
L 2766 1759 
L 2194 1759 
z
M 3341 1997 
L 3341 0 
L 2766 0 
L 2766 531 
Q 2569 213 2275 61 
Q 1981 -91 1556 -91 
Q 1019 -91 701 211 
Q 384 513 384 1019 
Q 384 1609 779 1909 
Q 1175 2209 1959 2209 
L 2766 2209 
L 2766 2266 
Q 2766 2663 2505 2880 
Q 2244 3097 1772 3097 
Q 1472 3097 1187 3025 
Q 903 2953 641 2809 
L 641 3341 
Q 956 3463 1253 3523 
Q 1550 3584 1831 3584 
Q 2591 3584 2966 3190 
Q 3341 2797 3341 1997 
z
" transform="scale(0.015625)"/>
       <path id="DejaVuSans-68" d="M 3513 2113 
L 3513 0 
L 2938 0 
L 2938 2094 
Q 2938 2591 2744 2837 
Q 2550 3084 2163 3084 
Q 1697 3084 1428 2787 
Q 1159 2491 1159 1978 
L 1159 0 
L 581 0 
L 581 4863 
L 1159 4863 
L 1159 2956 
Q 1366 3272 1645 3428 
Q 1925 3584 2291 3584 
Q 2894 3584 3203 3211 
Q 3513 2838 3513 2113 
z
" transform="scale(0.015625)"/>
       <path id="DejaVuSans-70" d="M 1159 525 
L 1159 -1331 
L 581 -1331 
L 581 3500 
L 1159 3500 
L 1159 2969 
Q 1341 3281 1617 3432 
Q 1894 3584 2278 3584 
Q 2916 3584 3314 3078 
Q 3713 2572 3713 1747 
Q 3713 922 3314 415 
Q 2916 -91 2278 -91 
Q 1894 -91 1617 61 
Q 1341 213 1159 525 
z
M 3116 1747 
Q 3116 2381 2855 2742 
Q 2594 3103 2138 3103 
Q 1681 3103 1420 2742 
Q 1159 2381 1159 1747 
Q 1159 1113 1420 752 
Q 1681 391 2138 391 
Q 2594 391 2855 752 
Q 3116 1113 3116 1747 
z
" transform="scale(0.015625)"/>
       <path id="DejaVuSans-6f" d="M 1959 3097 
Q 1497 3097 1228 2736 
Q 959 2375 959 1747 
Q 959 1119 1226 758 
Q 1494 397 1959 397 
Q 2419 397 2687 759 
Q 2956 1122 2956 1747 
Q 2956 2369 2687 2733 
Q 2419 3097 1959 3097 
z
M 1959 3584 
Q 2709 3584 3137 3096 
Q 3566 2609 3566 1747 
Q 3566 888 3137 398 
Q 2709 -91 1959 -91 
Q 1206 -91 779 398 
Q 353 888 353 1747 
Q 353 2609 779 3096 
Q 1206 3584 1959 3584 
z
" transform="scale(0.015625)"/>
       <path id="DejaVuSans-6c" d="M 603 4863 
L 1178 4863 
L 1178 0 
L 603 0 
L 603 4863 
z
" transform="scale(0.015625)"/>
      </defs>
      <use xlink:href="#DejaVuSans-53"/>
      <use xlink:href="#DejaVuSans-65" x="63.476562"/>
      <use xlink:href="#DejaVuSans-6e" x="125"/>
      <use xlink:href="#DejaVuSans-64" x="188.378906"/>
      <use xlink:href="#DejaVuSans-20" x="251.855469"/>
      <use xlink:href="#DejaVuSans-52" x="283.642578"/>
      <use xlink:href="#DejaVuSans-65" x="348.625"/>
      <use xlink:href="#DejaVuSans-73" x="410.148438"/>
      <use xlink:href="#DejaVuSans-65" x="462.248047"/>
      <use xlink:href="#DejaVuSans-61" x="523.771484"/>
      <use xlink:href="#DejaVuSans-72" x="585.050781"/>
      <use xlink:href="#DejaVuSans-63" x="623.914062"/>
      <use xlink:href="#DejaVuSans-68" x="678.894531"/>
      <use xlink:href="#DejaVuSans-20" x="742.273438"/>
      <use xlink:href="#DejaVuSans-41" x="774.060547"/>
      <use xlink:href="#DejaVuSans-70" x="842.46875"/>
      <use xlink:href="#DejaVuSans-70" x="905.945312"/>
      <use xlink:href="#DejaVuSans-72" x="969.421875"/>
      <use xlink:href="#DejaVuSans-6f" x="1008.285156"/>
      <use xlink:href="#DejaVuSans-61" x="1069.466797"/>
      <use xlink:href="#DejaVuSans-63" x="1130.746094"/>
      <use xlink:href="#DejaVuSans-68" x="1185.726562"/>
      <use xlink:href="#DejaVuSans-65" x="1249.105469"/>
      <use xlink:href="#DejaVuSans-73" x="1310.628906"/>
      <use xlink:href="#DejaVuSans-20" x="1362.728516"/>
      <use xlink:href="#DejaVuSans-61" x="1394.515625"/>
      <use xlink:href="#DejaVuSans-6e" x="1455.794922"/>
      <use xlink:href="#DejaVuSans-64" x="1519.173828"/>
      <use xlink:href="#DejaVuSans-20" x="1582.650391"/>
      <use xlink:href="#DejaVuSans-52" x="1614.4375"/>
      <use xlink:href="#DejaVuSans-65" x="1679.419922"/>
      <use xlink:href="#DejaVuSans-73" x="1740.943359"/>
      <use xlink:href="#DejaVuSans-75" x="1793.042969"/>
      <use xlink:href="#DejaVuSans-6c" x="1856.421875"/>
      <use xlink:href="#DejaVuSans-74" x="1884.205078"/>
      <use xlink:href="#DejaVuSans-73" x="1923.414062"/>
     </g>
    </g>
    <g id="patch_6">
     <path d="M 628.83 218.7 
L 659.145219 218.7 
L 659.145219 149.4 
L 628.83 149.4 
z
" style="fill: #ffffff; stroke: #000000; stroke-linejoin: miter"/>
    </g>
    <g id="text_5">
     <!-- 2 -->
     <g transform="translate(642.396985 185.429688) scale(0.05 -0.05)">
      <defs>
       <path id="DejaVuSans-32" d="M 1228 531 
L 3431 531 
L 3431 0 
L 469 0 
L 469 531 
Q 828 903 1448 1529 
Q 2069 2156 2228 2338 
Q 2531 2678 2651 2914 
Q 2772 3150 2772 3378 
Q 2772 3750 2511 3984 
Q 2250 4219 1831 4219 
Q 1534 4219 1204 4116 
Q 875 4013 500 3803 
L 500 4441 
Q 881 4594 1212 4672 
Q 1544 4750 1819 4750 
Q 2544 4750 2975 4387 
Q 3406 4025 3406 3419 
Q 3406 3131 3298 2873 
Q 3191 2616 2906 2266 
Q 2828 2175 2409 1742 
Q 1991 1309 1228 531 
z
" transform="scale(0.015625)"/>
      </defs>
      <use xlink:href="#DejaVuSans-32"/>
     </g>
    </g>
    <g id="patch_7">
     <path d="M 659.145219 218.7 
L 746.55 218.7 
L 746.55 149.4 
L 659.145219 149.4 
z
" style="fill: #ffffff; stroke: #000000; stroke-linejoin: miter"/>
    </g>
    <g id="text_6">
     <!-- Conduct Clinical Trial -->
     <g transform="translate(676.750735 185.429688) scale(0.05 -0.05)">
      <defs>
       <path id="DejaVuSans-43" d="M 4122 4306 
L 4122 3641 
Q 3803 3938 3442 4084 
Q 3081 4231 2675 4231 
Q 1875 4231 1450 3742 
Q 1025 3253 1025 2328 
Q 1025 1406 1450 917 
Q 1875 428 2675 428 
Q 3081 428 3442 575 
Q 3803 722 4122 1019 
L 4122 359 
Q 3791 134 3420 21 
Q 3050 -91 2638 -91 
Q 1578 -91 968 557 
Q 359 1206 359 2328 
Q 359 3453 968 4101 
Q 1578 4750 2638 4750 
Q 3056 4750 3426 4639 
Q 3797 4528 4122 4306 
z
" transform="scale(0.015625)"/>
       <path id="DejaVuSans-54" d="M -19 4666 
L 3928 4666 
L 3928 4134 
L 2272 4134 
L 2272 0 
L 1638 0 
L 1638 4134 
L -19 4134 
L -19 4666 
z
" transform="scale(0.015625)"/>
      </defs>
      <use xlink:href="#DejaVuSans-43"/>
      <use xlink:href="#DejaVuSans-6f" x="69.824219"/>
      <use xlink:href="#DejaVuSans-6e" x="131.005859"/>
      <use xlink:href="#DejaVuSans-64" x="194.384766"/>
      <use xlink:href="#DejaVuSans-75" x="257.861328"/>
      <use xlink:href="#DejaVuSans-63" x="321.240234"/>
      <use xlink:href="#DejaVuSans-74" x="376.220703"/>
      <use xlink:href="#DejaVuSans-20" x="415.429688"/>
      <use xlink:href="#DejaVuSans-43" x="447.216797"/>
      <use xlink:href="#DejaVuSans-6c" x="517.041016"/>
      <use xlink:href="#DejaVuSans-69" x="544.824219"/>
      <use xlink:href="#DejaVuSans-6e" x="572.607422"/>
      <use xlink:href="#DejaVuSans-69" x="635.986328"/>
      <use xlink:href="#DejaVuSans-63" x="663.769531"/>
      <use xlink:href="#DejaVuSans-61" x="718.75"/>
      <use xlink:href="#DejaVuSans-6c" x="780.029297"/>
      <use xlink:href="#DejaVuSans-20" x="807.8125"/>
      <use xlink:href="#DejaVuSans-54" x="839.599609"/>
      <use xlink:href="#DejaVuSans-72" x="885.933594"/>
      <use xlink:href="#DejaVuSans-69" x="927.046875"/>
      <use xlink:href="#DejaVuSans-61" x="954.830078"/>
      <use xlink:href="#DejaVuSans-6c" x="1016.109375"/>
     </g>
    </g>
    <g id="patch_8">
     <path d="M 628.83 288 
L 659.145219 288 
L 659.145219 218.7 
L 628.83 218.7 
z
" style="fill: #ffffff; stroke: #000000; stroke-linejoin: miter"/>
    </g>
    <g id="text_7">
     <!-- 3 -->
     <g transform="translate(642.396985 254.729688) scale(0.05 -0.05)">
      <defs>
       <path id="DejaVuSans-33" d="M 2597 2516 
Q 3050 2419 3304 2112 
Q 3559 1806 3559 1356 
Q 3559 666 3084 287 
Q 2609 -91 1734 -91 
Q 1441 -91 1130 -33 
Q 819 25 488 141 
L 488 750 
Q 750 597 1062 519 
Q 1375 441 1716 441 
Q 2309 441 2620 675 
Q 2931 909 2931 1356 
Q 2931 1769 2642 2001 
Q 2353 2234 1838 2234 
L 1294 2234 
L 1294 2753 
L 1863 2753 
Q 2328 2753 2575 2939 
Q 2822 3125 2822 3475 
Q 2822 3834 2567 4026 
Q 2313 4219 1838 4219 
Q 1578 4219 1281 4162 
Q 984 4106 628 3988 
L 628 4550 
Q 988 4650 1302 4700 
Q 1616 4750 1894 4750 
Q 2613 4750 3031 4423 
Q 3450 4097 3450 3541 
Q 3450 3153 3228 2886 
Q 3006 2619 2597 2516 
z
" transform="scale(0.015625)"/>
      </defs>
      <use xlink:href="#DejaVuSans-33"/>
     </g>
    </g>
    <g id="patch_9">
     <path d="M 659.145219 288 
L 746.55 288 
L 746.55 218.7 
L 659.145219 218.7 
z
" style="fill: #ffffff; stroke: #000000; stroke-linejoin: miter"/>
    </g>
    <g id="text_8">
     <!-- Forward Clinical Trial Protocols -->
     <g transform="translate(664.914016 254.729688) scale(0.05 -0.05)">
      <defs>
       <path id="DejaVuSans-46" d="M 628 4666 
L 3309 4666 
L 3309 4134 
L 1259 4134 
L 1259 2759 
L 3109 2759 
L 3109 2228 
L 1259 2228 
L 1259 0 
L 628 0 
L 628 4666 
z
" transform="scale(0.015625)"/>
       <path id="DejaVuSans-77" d="M 269 3500 
L 844 3500 
L 1563 769 
L 2278 3500 
L 2956 3500 
L 3675 769 
L 4391 3500 
L 4966 3500 
L 4050 0 
L 3372 0 
L 2619 2869 
L 1863 0 
L 1184 0 
L 269 3500 
z
" transform="scale(0.015625)"/>
       <path id="DejaVuSans-50" d="M 1259 4147 
L 1259 2394 
L 2053 2394 
Q 2494 2394 2734 2622 
Q 2975 2850 2975 3272 
Q 2975 3691 2734 3919 
Q 2494 4147 2053 4147 
L 1259 4147 
z
M 628 4666 
L 2053 4666 
Q 2838 4666 3239 4311 
Q 3641 3956 3641 3272 
Q 3641 2581 3239 2228 
Q 2838 1875 2053 1875 
L 1259 1875 
L 1259 0 
L 628 0 
L 628 4666 
z
" transform="scale(0.015625)"/>
      </defs>
      <use xlink:href="#DejaVuSans-46"/>
      <use xlink:href="#DejaVuSans-6f" x="53.894531"/>
      <use xlink:href="#DejaVuSans-72" x="115.076172"/>
      <use xlink:href="#DejaVuSans-77" x="156.189453"/>
      <use xlink:href="#DejaVuSans-61" x="237.976562"/>
      <use xlink:href="#DejaVuSans-72" x="299.255859"/>
      <use xlink:href="#DejaVuSans-64" x="338.619141"/>
      <use xlink:href="#DejaVuSans-20" x="402.095703"/>
      <use xlink:href="#DejaVuSans-43" x="433.882812"/>
      <use xlink:href="#DejaVuSans-6c" x="503.707031"/>
      <use xlink:href="#DejaVuSans-69" x="531.490234"/>
      <use xlink:href="#DejaVuSans-6e" x="559.273438"/>
      <use xlink:href="#DejaVuSans-69" x="622.652344"/>
      <use xlink:href="#DejaVuSans-63" x="650.435547"/>
      <use xlink:href="#DejaVuSans-61" x="705.416016"/>
      <use xlink:href="#DejaVuSans-6c" x="766.695312"/>
      <use xlink:href="#DejaVuSans-20" x="794.478516"/>
      <use xlink:href="#DejaVuSans-54" x="826.265625"/>
      <use xlink:href="#DejaVuSans-72" x="872.599609"/>
      <use xlink:href="#DejaVuSans-69" x="913.712891"/>
      <use xlink:href="#DejaVuSans-61" x="941.496094"/>
      <use xlink:href="#DejaVuSans-6c" x="1002.775391"/>
      <use xlink:href="#DejaVuSans-20" x="1030.558594"/>
      <use xlink:href="#DejaVuSans-50" x="1062.345703"/>
      <use xlink:href="#DejaVuSans-72" x="1120.898438"/>
      <use xlink:href="#DejaVuSans-6f" x="1159.761719"/>
      <use xlink:href="#DejaVuSans-74" x="1220.943359"/>
      <use xlink:href="#DejaVuSans-6f" x="1260.152344"/>
      <use xlink:href="#DejaVuSans-63" x="1321.333984"/>
      <use xlink:href="#DejaVuSans-6f" x="1376.314453"/>
      <use xlink:href="#DejaVuSans-6c" x="1437.496094"/>
      <use xlink:href="#DejaVuSans-73" x="1465.279297"/>
     </g>
    </g>
    <g id="patch_10">
     <path d="M 628.83 357.3 
L 659.145219 357.3 
L 659.145219 288 
L 628.83 288 
z
" style="fill: #ffffff; stroke: #000000; stroke-linejoin: miter"/>
    </g>
    <g id="text_9">
     <!-- 4 -->
     <g transform="translate(642.396985 324.029688) scale(0.05 -0.05)">
      <defs>
       <path id="DejaVuSans-34" d="M 2419 4116 
L 825 1625 
L 2419 1625 
L 2419 4116 
z
M 2253 4666 
L 3047 4666 
L 3047 1625 
L 3713 1625 
L 3713 1100 
L 3047 1100 
L 3047 0 
L 2419 0 
L 2419 1100 
L 313 1100 
L 313 1709 
L 2253 4666 
z
" transform="scale(0.015625)"/>
      </defs>
      <use xlink:href="#DejaVuSans-34"/>
     </g>
    </g>
    <g id="patch_11">
     <path d="M 659.145219 357.3 
L 746.55 357.3 
L 746.55 288 
L 659.145219 288 
z
" style="fill: #ffffff; stroke: #000000; stroke-linejoin: miter"/>
    </g>
    <g id="text_10">
     <!-- Hand Over Protocols -->
     <g transform="translate(677.2855 324.029688) scale(0.05 -0.05)">
      <defs>
       <path id="DejaVuSans-48" d="M 628 4666 
L 1259 4666 
L 1259 2753 
L 3553 2753 
L 3553 4666 
L 4184 4666 
L 4184 0 
L 3553 0 
L 3553 2222 
L 1259 2222 
L 1259 0 
L 628 0 
L 628 4666 
z
" transform="scale(0.015625)"/>
       <path id="DejaVuSans-4f" d="M 2522 4238 
Q 1834 4238 1429 3725 
Q 1025 3213 1025 2328 
Q 1025 1447 1429 934 
Q 1834 422 2522 422 
Q 3209 422 3611 934 
Q 4013 1447 4013 2328 
Q 4013 3213 3611 3725 
Q 3209 4238 2522 4238 
z
M 2522 4750 
Q 3503 4750 4090 4092 
Q 4678 3434 4678 2328 
Q 4678 1225 4090 567 
Q 3503 -91 2522 -91 
Q 1538 -91 948 565 
Q 359 1222 359 2328 
Q 359 3434 948 4092 
Q 1538 4750 2522 4750 
z
" transform="scale(0.015625)"/>
      </defs>
      <use xlink:href="#DejaVuSans-48"/>
      <use xlink:href="#DejaVuSans-61" x="75.195312"/>
      <use xlink:href="#DejaVuSans-6e" x="136.474609"/>
      <use xlink:href="#DejaVuSans-64" x="199.853516"/>
      <use xlink:href="#DejaVuSans-20" x="263.330078"/>
      <use xlink:href="#DejaVuSans-4f" x="295.117188"/>
      <use xlink:href="#DejaVuSans-76" x="373.828125"/>
      <use xlink:href="#DejaVuSans-65" x="433.007812"/>
      <use xlink:href="#DejaVuSans-72" x="494.53125"/>
      <use xlink:href="#DejaVuSans-20" x="535.644531"/>
      <use xlink:href="#DejaVuSans-50" x="567.431641"/>
      <use xlink:href="#DejaVuSans-72" x="625.984375"/>
      <use xlink:href="#DejaVuSans-6f" x="664.847656"/>
      <use xlink:href="#DejaVuSans-74" x="726.029297"/>
      <use xlink:href="#DejaVuSans-6f" x="765.238281"/>
      <use xlink:href="#DejaVuSans-63" x="826.419922"/>
      <use xlink:href="#DejaVuSans-6f" x="881.400391"/>
      <use xlink:href="#DejaVuSans-6c" x="942.582031"/>
      <use xlink:href="#DejaVuSans-73" x="970.365234"/>
     </g>
    </g>
    <g id="patch_12">
     <path d="M 628.83 426.6 
L 659.145219 426.6 
L 659.145219 357.3 
L 628.83 357.3 
z
" style="fill: #ffffff; stroke: #000000; stroke-linejoin: miter"/>
    </g>
    <g id="text_11">
     <!-- 5 -->
     <g transform="translate(642.396985 393.329688) scale(0.05 -0.05)">
      <defs>
       <path id="DejaVuSans-35" d="M 691 4666 
L 3169 4666 
L 3169 4134 
L 1269 4134 
L 1269 2991 
Q 1406 3038 1543 3061 
Q 1681 3084 1819 3084 
Q 2600 3084 3056 2656 
Q 3513 2228 3513 1497 
Q 3513 744 3044 326 
Q 2575 -91 1722 -91 
Q 1428 -91 1123 -41 
Q 819 9 494 109 
L 494 744 
Q 775 591 1075 516 
Q 1375 441 1709 441 
Q 2250 441 2565 725 
Q 2881 1009 2881 1497 
Q 2881 1984 2565 2268 
Q 2250 2553 1709 2553 
Q 1456 2553 1204 2497 
Q 953 2441 691 2322 
L 691 4666 
z
" transform="scale(0.015625)"/>
      </defs>
      <use xlink:href="#DejaVuSans-35"/>
     </g>
    </g>
    <g id="patch_13">
     <path d="M 659.145219 426.6 
L 746.55 426.6 
L 746.55 357.3 
L 659.145219 357.3 
z
" style="fill: #ffffff; stroke: #000000; stroke-linejoin: miter"/>
    </g>
    <g id="text_12">
     <!-- Review Protocols -->
     <g transform="translate(681.757375 393.329688) scale(0.05 -0.05)">
      <use xlink:href="#DejaVuSans-52"/>
      <use xlink:href="#DejaVuSans-65" x="64.982422"/>
      <use xlink:href="#DejaVuSans-76" x="126.505859"/>
      <use xlink:href="#DejaVuSans-69" x="185.685547"/>
      <use xlink:href="#DejaVuSans-65" x="213.46875"/>
      <use xlink:href="#DejaVuSans-77" x="274.992188"/>
      <use xlink:href="#DejaVuSans-20" x="356.779297"/>
      <use xlink:href="#DejaVuSans-50" x="388.566406"/>
      <use xlink:href="#DejaVuSans-72" x="447.119141"/>
      <use xlink:href="#DejaVuSans-6f" x="485.982422"/>
      <use xlink:href="#DejaVuSans-74" x="547.164062"/>
      <use xlink:href="#DejaVuSans-6f" x="586.373047"/>
      <use xlink:href="#DejaVuSans-63" x="647.554688"/>
      <use xlink:href="#DejaVuSans-6f" x="702.535156"/>
      <use xlink:href="#DejaVuSans-6c" x="763.716797"/>
      <use xlink:href="#DejaVuSans-73" x="791.5"/>
     </g>
    </g>
    <g id="patch_14">
     <path d="M 628.83 495.9 
L 659.145219 495.9 
L 659.145219 426.6 
L 628.83 426.6 
z
" style="fill: #ffffff; stroke: #000000; stroke-linejoin: miter"/>
    </g>
    <g id="text_13">
     <!-- 6 -->
     <g transform="translate(642.396985 462.629687) scale(0.05 -0.05)">
      <defs>
       <path id="DejaVuSans-36" d="M 2113 2584 
Q 1688 2584 1439 2293 
Q 1191 2003 1191 1497 
Q 1191 994 1439 701 
Q 1688 409 2113 409 
Q 2538 409 2786 701 
Q 3034 994 3034 1497 
Q 3034 2003 2786 2293 
Q 2538 2584 2113 2584 
z
M 3366 4563 
L 3366 3988 
Q 3128 4100 2886 4159 
Q 2644 4219 2406 4219 
Q 1781 4219 1451 3797 
Q 1122 3375 1075 2522 
Q 1259 2794 1537 2939 
Q 1816 3084 2150 3084 
Q 2853 3084 3261 2657 
Q 3669 2231 3669 1497 
Q 3669 778 3244 343 
Q 2819 -91 2113 -91 
Q 1303 -91 875 529 
Q 447 1150 447 2328 
Q 447 3434 972 4092 
Q 1497 4750 2381 4750 
Q 2619 4750 2861 4703 
Q 3103 4656 3366 4563 
z
" transform="scale(0.015625)"/>
      </defs>
      <use xlink:href="#DejaVuSans-36"/>
     </g>
    </g>
    <g id="patch_15">
     <path d="M 659.145219 495.9 
L 746.55 495.9 
L 746.55 426.6 
L 659.145219 426.6 
z
" style="fill: #ffffff; stroke: #000000; stroke-linejoin: miter"/>
    </g>
    <g id="text_14">
     <!-- Review Protocols -->
     <g transform="translate(681.757375 462.629687) scale(0.05 -0.05)">
      <use xlink:href="#DejaVuSans-52"/>
      <use xlink:href="#DejaVuSans-65" x="64.982422"/>
      <use xlink:href="#DejaVuSans-76" x="126.505859"/>
      <use xlink:href="#DejaVuSans-69" x="185.685547"/>
      <use xlink:href="#DejaVuSans-65" x="213.46875"/>
      <use xlink:href="#DejaVuSans-77" x="274.992188"/>
      <use xlink:href="#DejaVuSans-20" x="356.779297"/>
      <use xlink:href="#DejaVuSans-50" x="388.566406"/>
      <use xlink:href="#DejaVuSans-72" x="447.119141"/>
      <use xlink:href="#DejaVuSans-6f" x="485.982422"/>
      <use xlink:href="#DejaVuSans-74" x="547.164062"/>
      <use xlink:href="#DejaVuSans-6f" x="586.373047"/>
      <use xlink:href="#DejaVuSans-63" x="647.554688"/>
      <use xlink:href="#DejaVuSans-6f" x="702.535156"/>
      <use xlink:href="#DejaVuSans-6c" x="763.716797"/>
      <use xlink:href="#DejaVuSans-73" x="791.5"/>
     </g>
    </g>
    <g id="patch_16">
     <path d="M 628.83 565.2 
L 659.145219 565.2 
L 659.145219 495.9 
L 628.83 495.9 
z
" style="fill: #ffffff; stroke: #000000; stroke-linejoin: miter"/>
    </g>
    <g id="text_15">
     <!-- 7 -->
     <g transform="translate(642.396985 531.929688) scale(0.05 -0.05)">
      <defs>
       <path id="DejaVuSans-37" d="M 525 4666 
L 3525 4666 
L 3525 4397 
L 1831 0 
L 1172 0 
L 2766 4134 
L 525 4134 
L 525 4666 
z
" transform="scale(0.015625)"/>
      </defs>
      <use xlink:href="#DejaVuSans-37"/>
     </g>
    </g>
    <g id="patch_17">
     <path d="M 659.145219 565.2 
L 746.55 565.2 
L 746.55 495.9 
L 659.145219 495.9 
z
" style="fill: #ffffff; stroke: #000000; stroke-linejoin: miter"/>
    </g>
    <g id="text_16">
     <!-- Receive Acceptance or Rejection -->
     <g transform="translate(662.008938 531.929688) scale(0.05 -0.05)">
      <defs>
       <path id="DejaVuSans-6a" d="M 603 3500 
L 1178 3500 
L 1178 -63 
Q 1178 -731 923 -1031 
Q 669 -1331 103 -1331 
L -116 -1331 
L -116 -844 
L 38 -844 
Q 366 -844 484 -692 
Q 603 -541 603 -63 
L 603 3500 
z
M 603 4863 
L 1178 4863 
L 1178 4134 
L 603 4134 
L 603 4863 
z
" transform="scale(0.015625)"/>
      </defs>
      <use xlink:href="#DejaVuSans-52"/>
      <use xlink:href="#DejaVuSans-65" x="64.982422"/>
      <use xlink:href="#DejaVuSans-63" x="126.505859"/>
      <use xlink:href="#DejaVuSans-65" x="181.486328"/>
      <use xlink:href="#DejaVuSans-69" x="243.009766"/>
      <use xlink:href="#DejaVuSans-76" x="270.792969"/>
      <use xlink:href="#DejaVuSans-65" x="329.972656"/>
      <use xlink:href="#DejaVuSans-20" x="391.496094"/>
      <use xlink:href="#DejaVuSans-41" x="423.283203"/>
      <use xlink:href="#DejaVuSans-63" x="489.941406"/>
      <use xlink:href="#DejaVuSans-63" x="544.921875"/>
      <use xlink:href="#DejaVuSans-65" x="599.902344"/>
      <use xlink:href="#DejaVuSans-70" x="661.425781"/>
      <use xlink:href="#DejaVuSans-74" x="724.902344"/>
      <use xlink:href="#DejaVuSans-61" x="764.111328"/>
      <use xlink:href="#DejaVuSans-6e" x="825.390625"/>
      <use xlink:href="#DejaVuSans-63" x="888.769531"/>
      <use xlink:href="#DejaVuSans-65" x="943.75"/>
      <use xlink:href="#DejaVuSans-20" x="1005.273438"/>
      <use xlink:href="#DejaVuSans-6f" x="1037.060547"/>
      <use xlink:href="#DejaVuSans-72" x="1098.242188"/>
      <use xlink:href="#DejaVuSans-20" x="1139.355469"/>
      <use xlink:href="#DejaVuSans-52" x="1171.142578"/>
      <use xlink:href="#DejaVuSans-65" x="1236.125"/>
      <use xlink:href="#DejaVuSans-6a" x="1297.648438"/>
      <use xlink:href="#DejaVuSans-65" x="1325.431641"/>
      <use xlink:href="#DejaVuSans-63" x="1386.955078"/>
      <use xlink:href="#DejaVuSans-74" x="1441.935547"/>
      <use xlink:href="#DejaVuSans-69" x="1481.144531"/>
      <use xlink:href="#DejaVuSans-6f" x="1508.927734"/>
      <use xlink:href="#DejaVuSans-6e" x="1570.109375"/>
     </g>
    </g>
   </g>
   <g id="patch_18">
    <path d="M 360.399302 230.585961 
Q 467.166132 165.295123 542.568494 66.535373 
" clip-path="url(#p81af0a2733)" style="fill: none; stroke: #000000; stroke-opacity: 0.5; stroke-width: 0.8; stroke-linecap: round"/>
    <path d="M 538.551482 68.500981 
L 542.568494 66.535373 
L 541.730773 70.928347 
z
" clip-path="url(#p81af0a2733)" style="fill-opacity: 0.5; stroke: #000000; stroke-opacity: 0.5; stroke-width: 0.8; stroke-linecap: round"/>
   </g>
   <g id="patch_19">
    <path d="M 540.904795 63.382245 
Q 434.137965 128.673083 358.735603 227.432833 
" clip-path="url(#p81af0a2733)" style="fill: none; stroke: #000000; stroke-opacity: 0.5; stroke-width: 0.8; stroke-linecap: round"/>
    <path d="M 362.752615 225.467225 
L 358.735603 227.432833 
L 359.573323 223.039859 
z
" clip-path="url(#p81af0a2733)" style="fill-opacity: 0.5; stroke: #000000; stroke-opacity: 0.5; stroke-width: 0.8; stroke-linecap: round"/>
   </g>
   <g id="patch_20">
    <path d="M 357.263073 242.588192 
Q 422.00017 354.829925 522.301284 435.438904 
" clip-path="url(#p81af0a2733)" style="fill: none; stroke: #000000; stroke-opacity: 0.5; stroke-width: 0.8; stroke-linecap: round"/>
    <path d="M 520.436274 431.37421 
L 522.301284 435.438904 
L 517.930523 434.492096 
z
" clip-path="url(#p81af0a2733)" style="fill-opacity: 0.5; stroke: #000000; stroke-opacity: 0.5; stroke-width: 0.8; stroke-linecap: round"/>
   </g>
   <g id="patch_21">
    <path d="M 521.171604 442.293493 
Q 398.728201 456.016638 290.297771 512.619748 
" clip-path="url(#p81af0a2733)" style="fill: none; stroke: #000000; stroke-opacity: 0.5; stroke-width: 0.8; stroke-linecap: round"/>
    <path d="M 294.769226 512.541658 
L 290.297771 512.619748 
L 292.918172 508.995731 
z
" clip-path="url(#p81af0a2733)" style="fill-opacity: 0.5; stroke: #000000; stroke-opacity: 0.5; stroke-width: 0.8; stroke-linecap: round"/>
   </g>
   <g id="patch_22">
    <path d="M 525.499635 433.854556 
Q 460.762538 321.612823 360.461424 241.003844 
" clip-path="url(#p81af0a2733)" style="fill: none; stroke: #000000; stroke-opacity: 0.5; stroke-width: 0.8; stroke-linecap: round"/>
    <path d="M 362.326434 245.068538 
L 360.461424 241.003844 
L 364.832185 241.950652 
z
" clip-path="url(#p81af0a2733)" style="fill-opacity: 0.5; stroke: #000000; stroke-opacity: 0.5; stroke-width: 0.8; stroke-linecap: round"/>
   </g>
   <g id="patch_23">
    <path d="M 285.529752 509.25332 
Q 344.018881 382.785153 352.448016 244.598127 
" clip-path="url(#p81af0a2733)" style="fill: none; stroke: #000000; stroke-opacity: 0.5; stroke-width: 0.8; stroke-linecap: round"/>
    <path d="M 350.208187 248.468937 
L 352.448016 244.598127 
L 354.200766 248.712476 
z
" clip-path="url(#p81af0a2733)" style="fill-opacity: 0.5; stroke: #000000; stroke-opacity: 0.5; stroke-width: 0.8; stroke-linecap: round"/>
   </g>
   <g id="patch_24">
    <path d="M 344.514915 236.892142 
Q 195.585229 269.945808 69.777333 354.63878 
" clip-path="url(#p81af0a2733)" style="fill: none; stroke: #000000; stroke-opacity: 0.5; stroke-width: 0.8; stroke-linecap: round"/>
    <path d="M 74.212391 354.064096 
L 69.777333 354.63878 
L 71.978621 350.745923 
z
" clip-path="url(#p81af0a2733)" style="fill-opacity: 0.5; stroke: #000000; stroke-opacity: 0.5; stroke-width: 0.8; stroke-linecap: round"/>
   </g>
   <g id="text_17">
    <g id="patch_25">
     <path d="M 451.861236 153.643192 
L 456.159808 150.917319 
Q 458.186639 149.632035 456.901355 147.605204 
L 452.754976 141.066561 
Q 451.469692 139.03973 449.44286 140.325014 
L 445.144289 143.050887 
Q 443.117458 144.336171 444.402742 146.363002 
L 448.549121 152.901645 
Q 449.834405 154.928476 451.861236 153.643192 
z
" clip-path="url(#p81af0a2733)" style="fill: #ffffff; stroke: #ffffff; stroke-linejoin: miter"/>
    </g>
    <g clip-path="url(#p81af0a2733)">
     <!-- 1 -->
     <g style="fill: #808080" transform="translate(449.684956 150.211302) rotate(-32.380199) scale(0.08 -0.08)">
      <use xlink:href="#DejaVuSans-31"/>
     </g>
    </g>
   </g>
   <g id="text_18">
    <g id="patch_26">
     <path d="M 451.861236 153.643192 
L 456.159808 150.917319 
Q 458.186639 149.632035 456.901355 147.605204 
L 452.754976 141.066561 
Q 451.469692 139.03973 449.44286 140.325014 
L 445.144289 143.050887 
Q 443.117458 144.336171 444.402742 146.363002 
L 448.549121 152.901645 
Q 449.834405 154.928476 451.861236 153.643192 
z
" clip-path="url(#p81af0a2733)" style="fill: #ffffff; stroke: #ffffff; stroke-linejoin: miter"/>
    </g>
    <g clip-path="url(#p81af0a2733)">
     <!-- 2 -->
     <g style="fill: #808080" transform="translate(449.684956 150.211302) rotate(-32.380199) scale(0.08 -0.08)">
      <use xlink:href="#DejaVuSans-32"/>
     </g>
    </g>
   </g>
   <g id="text_19">
    <g id="patch_27">
     <path d="M 435.435647 341.454664 
L 439.370313 344.683673 
Q 441.225558 346.206192 442.748077 344.350947 
L 447.659788 338.365848 
Q 449.182307 336.510603 447.327062 334.988084 
L 443.392395 331.759074 
Q 441.53715 330.236555 440.014631 332.0918 
L 435.102921 338.076899 
Q 433.580401 339.932145 435.435647 341.454664 
z
" clip-path="url(#p81af0a2733)" style="fill: #ffffff; stroke: #ffffff; stroke-linejoin: miter"/>
    </g>
    <g clip-path="url(#p81af0a2733)">
     <!-- 3 -->
     <g style="fill: #808080" transform="translate(438.013621 338.313308) rotate(-320.625763) scale(0.08 -0.08)">
      <use xlink:href="#DejaVuSans-33"/>
     </g>
    </g>
   </g>
   <g id="text_20">
    <g id="patch_28">
     <path d="M 404.644858 485.903069 
L 409.621414 484.83443 
Q 411.967923 484.330552 411.464046 481.984043 
L 409.838517 474.414105 
Q 409.33464 472.067595 406.98813 472.571472 
L 402.011574 473.640112 
Q 399.665064 474.143989 400.168942 476.490499 
L 401.794471 484.060437 
Q 402.298348 486.406947 404.644858 485.903069 
z
" clip-path="url(#p81af0a2733)" style="fill: #ffffff; stroke: #ffffff; stroke-linejoin: miter"/>
    </g>
    <g clip-path="url(#p81af0a2733)">
     <!-- 4 -->
     <g style="fill: #808080" transform="translate(403.791678 481.929891) rotate(-12.119356) scale(0.08 -0.08)">
      <use xlink:href="#DejaVuSans-34"/>
     </g>
    </g>
   </g>
   <g id="text_21">
    <g id="patch_29">
     <path d="M 435.435647 341.454664 
L 439.370313 344.683673 
Q 441.225558 346.206192 442.748077 344.350947 
L 447.659788 338.365848 
Q 449.182307 336.510603 447.327062 334.988084 
L 443.392395 331.759074 
Q 441.53715 330.236555 440.014631 332.0918 
L 435.102921 338.076899 
Q 433.580401 339.932145 435.435647 341.454664 
z
" clip-path="url(#p81af0a2733)" style="fill: #ffffff; stroke: #ffffff; stroke-linejoin: miter"/>
    </g>
    <g clip-path="url(#p81af0a2733)">
     <!-- 5 -->
     <g style="fill: #808080" transform="translate(438.013621 338.313308) rotate(-320.625763) scale(0.08 -0.08)">
      <use xlink:href="#DejaVuSans-35"/>
     </g>
    </g>
   </g>
   <g id="text_22">
    <g id="patch_30">
     <path d="M 322.460036 380.587691 
L 324.178347 375.7965 
Q 324.988552 373.537393 322.729445 372.727187 
L 315.441469 370.113431 
Q 313.182362 369.303225 312.372156 371.562333 
L 310.653846 376.353524 
Q 309.84364 378.612631 312.102748 379.422837 
L 319.390723 382.036593 
Q 321.649831 382.846799 322.460036 380.587691 
z
" clip-path="url(#p81af0a2733)" style="fill: #ffffff; stroke: #ffffff; stroke-linejoin: miter"/>
    </g>
    <g clip-path="url(#p81af0a2733)">
     <!-- 6 -->
     <g style="fill: #808080" transform="translate(318.634849 379.215828) rotate(-70.270156) scale(0.08 -0.08)">
      <use xlink:href="#DejaVuSans-36"/>
     </g>
    </g>
   </g>
   <g id="text_23">
    <g id="patch_31">
     <path d="M 206.804699 304.274371 
L 211.677547 302.803504 
Q 213.975157 302.109971 213.281625 299.812361 
L 211.04426 292.400175 
Q 210.350727 290.102564 208.053117 290.796097 
L 203.180269 292.266964 
Q 200.882659 292.960497 201.576191 295.258107 
L 203.813556 302.670293 
Q 204.507089 304.967903 206.804699 304.274371 
z
" clip-path="url(#p81af0a2733)" style="fill: #ffffff; stroke: #ffffff; stroke-linejoin: miter"/>
    </g>
    <g clip-path="url(#p81af0a2733)">
     <!-- 7 -->
     <g style="fill: #808080" transform="translate(205.630389 300.38399) rotate(-16.796416) scale(0.08 -0.08)">
      <use xlink:href="#DejaVuSans-37"/>
     </g>
    </g>
   </g>
   <g id="patch_32">
    <path d="M 428.234271 567.312283 
C 508.301387 567.312283 585.099939 540.527999 641.715939 492.858359 
C 698.33194 445.188719 730.142942 380.525738 730.142942 313.110687 
C 730.142942 245.695636 698.33194 181.032654 641.715939 133.363015 
C 585.099939 85.693375 508.301387 58.909091 428.234271 58.909091 
C 348.167156 58.909091 271.368603 85.693375 214.752603 133.363015 
C 158.136603 181.032654 126.325601 245.695636 126.325601 313.110687 
C 126.325601 380.525738 158.136603 445.188719 214.752603 492.858359 
C 271.368603 540.527999 348.167156 567.312283 428.234271 567.312283 
L 428.234271 567.312283 
z
" clip-path="url(#p81af0a2733)" style="fill: none; stroke-dasharray: 3.7,1.6; stroke-dashoffset: 0; stroke: #0000ff; stroke-linejoin: miter"/>
   </g>
   <g id="PathCollection_1">
    <path d="M 352.980956 251.878315 
C 357.44146 251.878315 361.719874 250.106138 364.873927 246.952085 
C 368.027979 243.798033 369.800156 239.519619 369.800156 235.059115 
C 369.800156 230.598611 368.027979 226.320197 364.873927 223.166145 
C 361.719874 220.012092 357.44146 218.239915 352.980956 218.239915 
C 348.520452 218.239915 344.242039 220.012092 341.087986 223.166145 
C 337.933933 226.320197 336.161756 230.598611 336.161756 235.059115 
C 336.161756 239.519619 337.933933 243.798033 341.087986 246.952085 
C 344.242039 250.106138 348.520452 251.878315 352.980956 251.878315 
z
" clip-path="url(#p81af0a2733)" style="fill: #1f77b4; fill-opacity: 0.8; stroke: #1f77b4; stroke-opacity: 0.8"/>
    <path d="M 548.32314 70.030051 
C 551.272453 70.030051 554.101367 68.858276 556.186847 66.772797 
C 558.272326 64.687318 559.4441 61.858404 559.4441 58.909091 
C 559.4441 55.959778 558.272326 53.130864 556.186847 51.045385 
C 554.101367 48.959906 551.272453 47.788131 548.32314 47.788131 
C 545.373828 47.788131 542.544914 48.959906 540.459434 51.045385 
C 538.373955 53.130864 537.202181 55.959778 537.202181 58.909091 
C 537.202181 61.858404 538.373955 64.687318 540.459434 66.772797 
C 542.544914 68.858276 545.373828 70.030051 548.32314 70.030051 
z
" clip-path="url(#p81af0a2733)" style="fill: #98df8a; fill-opacity: 0.8; stroke: #98df8a; stroke-opacity: 0.8"/>
    <path d="M 529.781752 452.504592 
C 532.731065 452.504592 535.559979 451.332818 537.645458 449.247339 
C 539.730937 447.161859 540.902712 444.332946 540.902712 441.383633 
C 540.902712 438.43432 539.730937 435.605406 537.645458 433.519927 
C 535.559979 431.434447 532.731065 430.262673 529.781752 430.262673 
C 526.832439 430.262673 524.003525 431.434447 521.918046 433.519927 
C 519.832567 435.605406 518.660792 438.43432 518.660792 441.383633 
C 518.660792 444.332946 519.832567 447.161859 521.918046 449.247339 
C 524.003525 451.332818 526.832439 452.504592 529.781752 452.504592 
z
" clip-path="url(#p81af0a2733)" style="fill: #8c564b; fill-opacity: 0.8; stroke: #8c564b; stroke-opacity: 0.8"/>
    <path d="M 281.851236 528.211869 
C 284.800549 528.211869 287.629463 527.040094 289.714942 524.954615 
C 291.800421 522.869136 292.972196 520.040222 292.972196 517.090909 
C 292.972196 514.141596 291.800421 511.312682 289.714942 509.227203 
C 287.629463 507.141724 284.800549 505.969949 281.851236 505.969949 
C 278.901923 505.969949 276.073009 507.141724 273.98753 509.227203 
C 271.902051 511.312682 270.730276 514.141596 270.730276 517.090909 
C 270.730276 520.040222 271.902051 522.869136 273.98753 524.954615 
C 276.073009 527.040094 278.901923 528.211869 281.851236 528.211869 
z
" clip-path="url(#p81af0a2733)" style="fill: #c7c7c7; fill-opacity: 0.8; stroke: #c7c7c7; stroke-opacity: 0.8"/>
    <path d="M 61.87686 369.813765 
C 64.47649 369.813765 66.969995 368.780921 68.808212 366.942705 
C 70.646428 365.104489 71.679272 362.610983 71.679272 360.011353 
C 71.679272 357.411723 70.646428 354.918217 68.808212 353.080001 
C 66.969995 351.241785 64.47649 350.208941 61.87686 350.208941 
C 59.277229 350.208941 56.783724 351.241785 54.945508 353.080001 
C 53.107291 354.918217 52.074448 357.411723 52.074448 360.011353 
C 52.074448 362.610983 53.107291 365.104489 54.945508 366.942705 
C 56.783724 368.780921 59.277229 369.813765 61.87686 369.813765 
z
" clip-path="url(#p81af0a2733)" style="fill: #9edae5; fill-opacity: 0.8; stroke: #9edae5; stroke-opacity: 0.8"/>
   </g>
   <g id="text_24">
    <g clip-path="url(#p81af0a2733)">
     <!-- Pharmaceutical Company -->
     <g transform="translate(288.9083 237.81849) scale(0.1 -0.1)">
      <use xlink:href="#DejaVuSans-50"/>
      <use xlink:href="#DejaVuSans-68" x="60.302734"/>
      <use xlink:href="#DejaVuSans-61" x="123.681641"/>
      <use xlink:href="#DejaVuSans-72" x="184.960938"/>
      <use xlink:href="#DejaVuSans-6d" x="224.324219"/>
      <use xlink:href="#DejaVuSans-61" x="321.736328"/>
      <use xlink:href="#DejaVuSans-63" x="383.015625"/>
      <use xlink:href="#DejaVuSans-65" x="437.996094"/>
      <use xlink:href="#DejaVuSans-75" x="499.519531"/>
      <use xlink:href="#DejaVuSans-74" x="562.898438"/>
      <use xlink:href="#DejaVuSans-69" x="602.107422"/>
      <use xlink:href="#DejaVuSans-63" x="629.890625"/>
      <use xlink:href="#DejaVuSans-61" x="684.871094"/>
      <use xlink:href="#DejaVuSans-6c" x="746.150391"/>
      <use xlink:href="#DejaVuSans-20" x="773.933594"/>
      <use xlink:href="#DejaVuSans-43" x="805.720703"/>
      <use xlink:href="#DejaVuSans-6f" x="875.544922"/>
      <use xlink:href="#DejaVuSans-6d" x="936.726562"/>
      <use xlink:href="#DejaVuSans-70" x="1034.138672"/>
      <use xlink:href="#DejaVuSans-61" x="1097.615234"/>
      <use xlink:href="#DejaVuSans-6e" x="1158.894531"/>
      <use xlink:href="#DejaVuSans-79" x="1222.273438"/>
     </g>
    </g>
   </g>
   <g id="text_25">
    <g clip-path="url(#p81af0a2733)">
     <!-- Clinical Research Organization -->
     <g transform="translate(472.217672 61.668466) scale(0.1 -0.1)">
      <defs>
       <path id="DejaVuSans-7a" d="M 353 3500 
L 3084 3500 
L 3084 2975 
L 922 459 
L 3084 459 
L 3084 0 
L 275 0 
L 275 525 
L 2438 3041 
L 353 3041 
L 353 3500 
z
" transform="scale(0.015625)"/>
      </defs>
      <use xlink:href="#DejaVuSans-43"/>
      <use xlink:href="#DejaVuSans-6c" x="69.824219"/>
      <use xlink:href="#DejaVuSans-69" x="97.607422"/>
      <use xlink:href="#DejaVuSans-6e" x="125.390625"/>
      <use xlink:href="#DejaVuSans-69" x="188.769531"/>
      <use xlink:href="#DejaVuSans-63" x="216.552734"/>
      <use xlink:href="#DejaVuSans-61" x="271.533203"/>
      <use xlink:href="#DejaVuSans-6c" x="332.8125"/>
      <use xlink:href="#DejaVuSans-20" x="360.595703"/>
      <use xlink:href="#DejaVuSans-52" x="392.382812"/>
      <use xlink:href="#DejaVuSans-65" x="457.365234"/>
      <use xlink:href="#DejaVuSans-73" x="518.888672"/>
      <use xlink:href="#DejaVuSans-65" x="570.988281"/>
      <use xlink:href="#DejaVuSans-61" x="632.511719"/>
      <use xlink:href="#DejaVuSans-72" x="693.791016"/>
      <use xlink:href="#DejaVuSans-63" x="732.654297"/>
      <use xlink:href="#DejaVuSans-68" x="787.634766"/>
      <use xlink:href="#DejaVuSans-20" x="851.013672"/>
      <use xlink:href="#DejaVuSans-4f" x="882.800781"/>
      <use xlink:href="#DejaVuSans-72" x="961.511719"/>
      <use xlink:href="#DejaVuSans-67" x="1000.875"/>
      <use xlink:href="#DejaVuSans-61" x="1064.351562"/>
      <use xlink:href="#DejaVuSans-6e" x="1125.630859"/>
      <use xlink:href="#DejaVuSans-69" x="1189.009766"/>
      <use xlink:href="#DejaVuSans-7a" x="1216.792969"/>
      <use xlink:href="#DejaVuSans-61" x="1269.283203"/>
      <use xlink:href="#DejaVuSans-74" x="1330.5625"/>
      <use xlink:href="#DejaVuSans-69" x="1369.771484"/>
      <use xlink:href="#DejaVuSans-6f" x="1397.554688"/>
      <use xlink:href="#DejaVuSans-6e" x="1458.736328"/>
     </g>
    </g>
   </g>
   <g id="text_26">
    <g clip-path="url(#p81af0a2733)">
     <!-- Investigational Review Board -->
     <g transform="translate(457.165346 444.143008) scale(0.1 -0.1)">
      <defs>
       <path id="DejaVuSans-49" d="M 628 4666 
L 1259 4666 
L 1259 0 
L 628 0 
L 628 4666 
z
" transform="scale(0.015625)"/>
       <path id="DejaVuSans-42" d="M 1259 2228 
L 1259 519 
L 2272 519 
Q 2781 519 3026 730 
Q 3272 941 3272 1375 
Q 3272 1813 3026 2020 
Q 2781 2228 2272 2228 
L 1259 2228 
z
M 1259 4147 
L 1259 2741 
L 2194 2741 
Q 2656 2741 2882 2914 
Q 3109 3088 3109 3444 
Q 3109 3797 2882 3972 
Q 2656 4147 2194 4147 
L 1259 4147 
z
M 628 4666 
L 2241 4666 
Q 2963 4666 3353 4366 
Q 3744 4066 3744 3513 
Q 3744 3084 3544 2831 
Q 3344 2578 2956 2516 
Q 3422 2416 3680 2098 
Q 3938 1781 3938 1306 
Q 3938 681 3513 340 
Q 3088 0 2303 0 
L 628 0 
L 628 4666 
z
" transform="scale(0.015625)"/>
      </defs>
      <use xlink:href="#DejaVuSans-49"/>
      <use xlink:href="#DejaVuSans-6e" x="29.492188"/>
      <use xlink:href="#DejaVuSans-76" x="92.871094"/>
      <use xlink:href="#DejaVuSans-65" x="152.050781"/>
      <use xlink:href="#DejaVuSans-73" x="213.574219"/>
      <use xlink:href="#DejaVuSans-74" x="265.673828"/>
      <use xlink:href="#DejaVuSans-69" x="304.882812"/>
      <use xlink:href="#DejaVuSans-67" x="332.666016"/>
      <use xlink:href="#DejaVuSans-61" x="396.142578"/>
      <use xlink:href="#DejaVuSans-74" x="457.421875"/>
      <use xlink:href="#DejaVuSans-69" x="496.630859"/>
      <use xlink:href="#DejaVuSans-6f" x="524.414062"/>
      <use xlink:href="#DejaVuSans-6e" x="585.595703"/>
      <use xlink:href="#DejaVuSans-61" x="648.974609"/>
      <use xlink:href="#DejaVuSans-6c" x="710.253906"/>
      <use xlink:href="#DejaVuSans-20" x="738.037109"/>
      <use xlink:href="#DejaVuSans-52" x="769.824219"/>
      <use xlink:href="#DejaVuSans-65" x="834.806641"/>
      <use xlink:href="#DejaVuSans-76" x="896.330078"/>
      <use xlink:href="#DejaVuSans-69" x="955.509766"/>
      <use xlink:href="#DejaVuSans-65" x="983.292969"/>
      <use xlink:href="#DejaVuSans-77" x="1044.816406"/>
      <use xlink:href="#DejaVuSans-20" x="1126.603516"/>
      <use xlink:href="#DejaVuSans-42" x="1158.390625"/>
      <use xlink:href="#DejaVuSans-6f" x="1226.994141"/>
      <use xlink:href="#DejaVuSans-61" x="1288.175781"/>
      <use xlink:href="#DejaVuSans-72" x="1349.455078"/>
      <use xlink:href="#DejaVuSans-64" x="1388.818359"/>
     </g>
    </g>
   </g>
   <g id="text_27">
    <g clip-path="url(#p81af0a2733)">
     <!-- Ethics Committee -->
     <g transform="translate(237.477017 519.850284) scale(0.1 -0.1)">
      <use xlink:href="#DejaVuSans-45"/>
      <use xlink:href="#DejaVuSans-74" x="63.183594"/>
      <use xlink:href="#DejaVuSans-68" x="102.392578"/>
      <use xlink:href="#DejaVuSans-69" x="165.771484"/>
      <use xlink:href="#DejaVuSans-63" x="193.554688"/>
      <use xlink:href="#DejaVuSans-73" x="248.535156"/>
      <use xlink:href="#DejaVuSans-20" x="300.634766"/>
      <use xlink:href="#DejaVuSans-43" x="332.421875"/>
      <use xlink:href="#DejaVuSans-6f" x="402.246094"/>
      <use xlink:href="#DejaVuSans-6d" x="463.427734"/>
      <use xlink:href="#DejaVuSans-6d" x="560.839844"/>
      <use xlink:href="#DejaVuSans-69" x="658.251953"/>
      <use xlink:href="#DejaVuSans-74" x="686.035156"/>
      <use xlink:href="#DejaVuSans-74" x="725.244141"/>
      <use xlink:href="#DejaVuSans-65" x="764.453125"/>
      <use xlink:href="#DejaVuSans-65" x="825.976562"/>
     </g>
    </g>
   </g>
   <g id="text_28">
    <g clip-path="url(#p81af0a2733)">
     <!-- Pharmacies and Healthcare Providers -->
     <g transform="translate(-31.707515 362.770728) scale(0.1 -0.1)">
      <use xlink:href="#DejaVuSans-50"/>
      <use xlink:href="#DejaVuSans-68" x="60.302734"/>
      <use xlink:href="#DejaVuSans-61" x="123.681641"/>
      <use xlink:href="#DejaVuSans-72" x="184.960938"/>
      <use xlink:href="#DejaVuSans-6d" x="224.324219"/>
      <use xlink:href="#DejaVuSans-61" x="321.736328"/>
      <use xlink:href="#DejaVuSans-63" x="383.015625"/>
      <use xlink:href="#DejaVuSans-69" x="437.996094"/>
      <use xlink:href="#DejaVuSans-65" x="465.779297"/>
      <use xlink:href="#DejaVuSans-73" x="527.302734"/>
      <use xlink:href="#DejaVuSans-20" x="579.402344"/>
      <use xlink:href="#DejaVuSans-61" x="611.189453"/>
      <use xlink:href="#DejaVuSans-6e" x="672.46875"/>
      <use xlink:href="#DejaVuSans-64" x="735.847656"/>
      <use xlink:href="#DejaVuSans-20" x="799.324219"/>
      <use xlink:href="#DejaVuSans-48" x="831.111328"/>
      <use xlink:href="#DejaVuSans-65" x="906.306641"/>
      <use xlink:href="#DejaVuSans-61" x="967.830078"/>
      <use xlink:href="#DejaVuSans-6c" x="1029.109375"/>
      <use xlink:href="#DejaVuSans-74" x="1056.892578"/>
      <use xlink:href="#DejaVuSans-68" x="1096.101562"/>
      <use xlink:href="#DejaVuSans-63" x="1159.480469"/>
      <use xlink:href="#DejaVuSans-61" x="1214.460938"/>
      <use xlink:href="#DejaVuSans-72" x="1275.740234"/>
      <use xlink:href="#DejaVuSans-65" x="1314.603516"/>
      <use xlink:href="#DejaVuSans-20" x="1376.126953"/>
      <use xlink:href="#DejaVuSans-50" x="1407.914062"/>
      <use xlink:href="#DejaVuSans-72" x="1466.466797"/>
      <use xlink:href="#DejaVuSans-6f" x="1505.330078"/>
      <use xlink:href="#DejaVuSans-76" x="1566.511719"/>
      <use xlink:href="#DejaVuSans-69" x="1625.691406"/>
      <use xlink:href="#DejaVuSans-64" x="1653.474609"/>
      <use xlink:href="#DejaVuSans-65" x="1716.951172"/>
      <use xlink:href="#DejaVuSans-72" x="1778.474609"/>
      <use xlink:href="#DejaVuSans-73" x="1819.587891"/>
     </g>
    </g>
   </g>
  </g>
 </g>
 <defs>
  <clipPath id="p81af0a2733">
   <rect x="10.8" y="10.8" width="588.6" height="554.4"/>
  </clipPath>
 </defs>
</svg>
