<?xml version="1.0" encoding="utf-8" standalone="no"?>
<!DOCTYPE svg PUBLIC "-//W3C//DTD SVG 1.1//EN"
  "http://www.w3.org/Graphics/SVG/1.1/DTD/svg11.dtd">
<svg xmlns:xlink="http://www.w3.org/1999/xlink" width="864pt" height="576pt" viewBox="0 0 864 576" xmlns="http://www.w3.org/2000/svg" version="1.1">
 <metadata>
  <rdf:RDF xmlns:dc="http://purl.org/dc/elements/1.1/" xmlns:cc="http://creativecommons.org/ns#" xmlns:rdf="http://www.w3.org/1999/02/22-rdf-syntax-ns#">
   <cc:Work>
    <dc:type rdf:resource="http://purl.org/dc/dcmitype/StillImage"/>
    <dc:date>2023-07-13T13:38:48.427424</dc:date>
    <dc:format>image/svg+xml</dc:format>
    <dc:creator>
     <cc:Agent>
      <dc:title>Matplotlib v3.7.1, https://matplotlib.org/</dc:title>
     </cc:Agent>
    </dc:creator>
   </cc:Work>
  </rdf:RDF>
 </metadata>
 <defs>
  <style type="text/css">*{stroke-linejoin: round; stroke-linecap: butt}</style>
 </defs>
 <g id="figure_1">
  <g id="patch_1">
   <path d="M 0 576 
L 864 576 
L 864 0 
L 0 0 
z
" style="fill: #ffffff"/>
  </g>
  <g id="axes_1">
   <g id="table_1">
    <g id="patch_2">
     <path d="M 628.83 66.24 
L 655.110794 66.24 
L 655.110794 10.8 
L 628.83 10.8 
z
" style="fill: #ffffff; stroke: #000000; stroke-linejoin: miter"/>
    </g>
    <g id="text_1">
     <!-- Edge Number -->
     <g transform="translate(624.840709 39.899688) scale(0.05 -0.05)">
      <defs>
       <path id="DejaVuSans-45" d="M 628 4666 
L 3578 4666 
L 3578 4134 
L 1259 4134 
L 1259 2753 
L 3481 2753 
L 3481 2222 
L 1259 2222 
L 1259 531 
L 3634 531 
L 3634 0 
L 628 0 
L 628 4666 
z
" transform="scale(0.015625)"/>
       <path id="DejaVuSans-64" d="M 2906 2969 
L 2906 4863 
L 3481 4863 
L 3481 0 
L 2906 0 
L 2906 525 
Q 2725 213 2448 61 
Q 2172 -91 1784 -91 
Q 1150 -91 751 415 
Q 353 922 353 1747 
Q 353 2572 751 3078 
Q 1150 3584 1784 3584 
Q 2172 3584 2448 3432 
Q 2725 3281 2906 2969 
z
M 947 1747 
Q 947 1113 1208 752 
Q 1469 391 1925 391 
Q 2381 391 2643 752 
Q 2906 1113 2906 1747 
Q 2906 2381 2643 2742 
Q 2381 3103 1925 3103 
Q 1469 3103 1208 2742 
Q 947 2381 947 1747 
z
" transform="scale(0.015625)"/>
       <path id="DejaVuSans-67" d="M 2906 1791 
Q 2906 2416 2648 2759 
Q 2391 3103 1925 3103 
Q 1463 3103 1205 2759 
Q 947 2416 947 1791 
Q 947 1169 1205 825 
Q 1463 481 1925 481 
Q 2391 481 2648 825 
Q 2906 1169 2906 1791 
z
M 3481 434 
Q 3481 -459 3084 -895 
Q 2688 -1331 1869 -1331 
Q 1566 -1331 1297 -1286 
Q 1028 -1241 775 -1147 
L 775 -588 
Q 1028 -725 1275 -790 
Q 1522 -856 1778 -856 
Q 2344 -856 2625 -561 
Q 2906 -266 2906 331 
L 2906 616 
Q 2728 306 2450 153 
Q 2172 0 1784 0 
Q 1141 0 747 490 
Q 353 981 353 1791 
Q 353 2603 747 3093 
Q 1141 3584 1784 3584 
Q 2172 3584 2450 3431 
Q 2728 3278 2906 2969 
L 2906 3500 
L 3481 3500 
L 3481 434 
z
" transform="scale(0.015625)"/>
       <path id="DejaVuSans-65" d="M 3597 1894 
L 3597 1613 
L 953 1613 
Q 991 1019 1311 708 
Q 1631 397 2203 397 
Q 2534 397 2845 478 
Q 3156 559 3463 722 
L 3463 178 
Q 3153 47 2828 -22 
Q 2503 -91 2169 -91 
Q 1331 -91 842 396 
Q 353 884 353 1716 
Q 353 2575 817 3079 
Q 1281 3584 2069 3584 
Q 2775 3584 3186 3129 
Q 3597 2675 3597 1894 
z
M 3022 2063 
Q 3016 2534 2758 2815 
Q 2500 3097 2075 3097 
Q 1594 3097 1305 2825 
Q 1016 2553 972 2059 
L 3022 2063 
z
" transform="scale(0.015625)"/>
       <path id="DejaVuSans-20" transform="scale(0.015625)"/>
       <path id="DejaVuSans-4e" d="M 628 4666 
L 1478 4666 
L 3547 763 
L 3547 4666 
L 4159 4666 
L 4159 0 
L 3309 0 
L 1241 3903 
L 1241 0 
L 628 0 
L 628 4666 
z
" transform="scale(0.015625)"/>
       <path id="DejaVuSans-75" d="M 544 1381 
L 544 3500 
L 1119 3500 
L 1119 1403 
Q 1119 906 1312 657 
Q 1506 409 1894 409 
Q 2359 409 2629 706 
Q 2900 1003 2900 1516 
L 2900 3500 
L 3475 3500 
L 3475 0 
L 2900 0 
L 2900 538 
Q 2691 219 2414 64 
Q 2138 -91 1772 -91 
Q 1169 -91 856 284 
Q 544 659 544 1381 
z
M 1991 3584 
L 1991 3584 
z
" transform="scale(0.015625)"/>
       <path id="DejaVuSans-6d" d="M 3328 2828 
Q 3544 3216 3844 3400 
Q 4144 3584 4550 3584 
Q 5097 3584 5394 3201 
Q 5691 2819 5691 2113 
L 5691 0 
L 5113 0 
L 5113 2094 
Q 5113 2597 4934 2840 
Q 4756 3084 4391 3084 
Q 3944 3084 3684 2787 
Q 3425 2491 3425 1978 
L 3425 0 
L 2847 0 
L 2847 2094 
Q 2847 2600 2669 2842 
Q 2491 3084 2119 3084 
Q 1678 3084 1418 2786 
Q 1159 2488 1159 1978 
L 1159 0 
L 581 0 
L 581 3500 
L 1159 3500 
L 1159 2956 
Q 1356 3278 1631 3431 
Q 1906 3584 2284 3584 
Q 2666 3584 2933 3390 
Q 3200 3197 3328 2828 
z
" transform="scale(0.015625)"/>
       <path id="DejaVuSans-62" d="M 3116 1747 
Q 3116 2381 2855 2742 
Q 2594 3103 2138 3103 
Q 1681 3103 1420 2742 
Q 1159 2381 1159 1747 
Q 1159 1113 1420 752 
Q 1681 391 2138 391 
Q 2594 391 2855 752 
Q 3116 1113 3116 1747 
z
M 1159 2969 
Q 1341 3281 1617 3432 
Q 1894 3584 2278 3584 
Q 2916 3584 3314 3078 
Q 3713 2572 3713 1747 
Q 3713 922 3314 415 
Q 2916 -91 2278 -91 
Q 1894 -91 1617 61 
Q 1341 213 1159 525 
L 1159 0 
L 581 0 
L 581 4863 
L 1159 4863 
L 1159 2969 
z
" transform="scale(0.015625)"/>
       <path id="DejaVuSans-72" d="M 2631 2963 
Q 2534 3019 2420 3045 
Q 2306 3072 2169 3072 
Q 1681 3072 1420 2755 
Q 1159 2438 1159 1844 
L 1159 0 
L 581 0 
L 581 3500 
L 1159 3500 
L 1159 2956 
Q 1341 3275 1631 3429 
Q 1922 3584 2338 3584 
Q 2397 3584 2469 3576 
Q 2541 3569 2628 3553 
L 2631 2963 
z
" transform="scale(0.015625)"/>
      </defs>
      <use xlink:href="#DejaVuSans-45"/>
      <use xlink:href="#DejaVuSans-64" x="63.183594"/>
      <use xlink:href="#DejaVuSans-67" x="126.660156"/>
      <use xlink:href="#DejaVuSans-65" x="190.136719"/>
      <use xlink:href="#DejaVuSans-20" x="251.660156"/>
      <use xlink:href="#DejaVuSans-4e" x="283.447266"/>
      <use xlink:href="#DejaVuSans-75" x="358.251953"/>
      <use xlink:href="#DejaVuSans-6d" x="421.630859"/>
      <use xlink:href="#DejaVuSans-62" x="519.042969"/>
      <use xlink:href="#DejaVuSans-65" x="582.519531"/>
      <use xlink:href="#DejaVuSans-72" x="644.042969"/>
     </g>
    </g>
    <g id="patch_3">
     <path d="M 655.110794 66.24 
L 746.55 66.24 
L 746.55 10.8 
L 655.110794 10.8 
z
" style="fill: #ffffff; stroke: #000000; stroke-linejoin: miter"/>
    </g>
    <g id="text_2">
     <!-- Edge Activity -->
     <g transform="translate(684.394069 39.899688) scale(0.05 -0.05)">
      <defs>
       <path id="DejaVuSans-41" d="M 2188 4044 
L 1331 1722 
L 3047 1722 
L 2188 4044 
z
M 1831 4666 
L 2547 4666 
L 4325 0 
L 3669 0 
L 3244 1197 
L 1141 1197 
L 716 0 
L 50 0 
L 1831 4666 
z
" transform="scale(0.015625)"/>
       <path id="DejaVuSans-63" d="M 3122 3366 
L 3122 2828 
Q 2878 2963 2633 3030 
Q 2388 3097 2138 3097 
Q 1578 3097 1268 2742 
Q 959 2388 959 1747 
Q 959 1106 1268 751 
Q 1578 397 2138 397 
Q 2388 397 2633 464 
Q 2878 531 3122 666 
L 3122 134 
Q 2881 22 2623 -34 
Q 2366 -91 2075 -91 
Q 1284 -91 818 406 
Q 353 903 353 1747 
Q 353 2603 823 3093 
Q 1294 3584 2113 3584 
Q 2378 3584 2631 3529 
Q 2884 3475 3122 3366 
z
" transform="scale(0.015625)"/>
       <path id="DejaVuSans-74" d="M 1172 4494 
L 1172 3500 
L 2356 3500 
L 2356 3053 
L 1172 3053 
L 1172 1153 
Q 1172 725 1289 603 
Q 1406 481 1766 481 
L 2356 481 
L 2356 0 
L 1766 0 
Q 1100 0 847 248 
Q 594 497 594 1153 
L 594 3053 
L 172 3053 
L 172 3500 
L 594 3500 
L 594 4494 
L 1172 4494 
z
" transform="scale(0.015625)"/>
       <path id="DejaVuSans-69" d="M 603 3500 
L 1178 3500 
L 1178 0 
L 603 0 
L 603 3500 
z
M 603 4863 
L 1178 4863 
L 1178 4134 
L 603 4134 
L 603 4863 
z
" transform="scale(0.015625)"/>
       <path id="DejaVuSans-76" d="M 191 3500 
L 800 3500 
L 1894 563 
L 2988 3500 
L 3597 3500 
L 2284 0 
L 1503 0 
L 191 3500 
z
" transform="scale(0.015625)"/>
       <path id="DejaVuSans-79" d="M 2059 -325 
Q 1816 -950 1584 -1140 
Q 1353 -1331 966 -1331 
L 506 -1331 
L 506 -850 
L 844 -850 
Q 1081 -850 1212 -737 
Q 1344 -625 1503 -206 
L 1606 56 
L 191 3500 
L 800 3500 
L 1894 763 
L 2988 3500 
L 3597 3500 
L 2059 -325 
z
" transform="scale(0.015625)"/>
      </defs>
      <use xlink:href="#DejaVuSans-45"/>
      <use xlink:href="#DejaVuSans-64" x="63.183594"/>
      <use xlink:href="#DejaVuSans-67" x="126.660156"/>
      <use xlink:href="#DejaVuSans-65" x="190.136719"/>
      <use xlink:href="#DejaVuSans-20" x="251.660156"/>
      <use xlink:href="#DejaVuSans-41" x="283.447266"/>
      <use xlink:href="#DejaVuSans-63" x="350.105469"/>
      <use xlink:href="#DejaVuSans-74" x="405.085938"/>
      <use xlink:href="#DejaVuSans-69" x="444.294922"/>
      <use xlink:href="#DejaVuSans-76" x="472.078125"/>
      <use xlink:href="#DejaVuSans-69" x="531.257812"/>
      <use xlink:href="#DejaVuSans-74" x="559.041016"/>
      <use xlink:href="#DejaVuSans-79" x="598.25"/>
     </g>
    </g>
    <g id="patch_4">
     <path d="M 628.83 121.68 
L 655.110794 121.68 
L 655.110794 66.24 
L 628.83 66.24 
z
" style="fill: #ffffff; stroke: #000000; stroke-linejoin: miter"/>
    </g>
    <g id="text_3">
     <!-- 1 -->
     <g transform="translate(640.379772 95.339688) scale(0.05 -0.05)">
      <defs>
       <path id="DejaVuSans-31" d="M 794 531 
L 1825 531 
L 1825 4091 
L 703 3866 
L 703 4441 
L 1819 4666 
L 2450 4666 
L 2450 531 
L 3481 531 
L 3481 0 
L 794 0 
L 794 531 
z
" transform="scale(0.015625)"/>
      </defs>
      <use xlink:href="#DejaVuSans-31"/>
     </g>
    </g>
    <g id="patch_5">
     <path d="M 655.110794 121.68 
L 746.55 121.68 
L 746.55 66.24 
L 655.110794 66.24 
z
" style="fill: #ffffff; stroke: #000000; stroke-linejoin: miter"/>
    </g>
    <g id="text_4">
     <!-- receive order -->
     <g transform="translate(684.233912 95.339688) scale(0.05 -0.05)">
      <defs>
       <path id="DejaVuSans-6f" d="M 1959 3097 
Q 1497 3097 1228 2736 
Q 959 2375 959 1747 
Q 959 1119 1226 758 
Q 1494 397 1959 397 
Q 2419 397 2687 759 
Q 2956 1122 2956 1747 
Q 2956 2369 2687 2733 
Q 2419 3097 1959 3097 
z
M 1959 3584 
Q 2709 3584 3137 3096 
Q 3566 2609 3566 1747 
Q 3566 888 3137 398 
Q 2709 -91 1959 -91 
Q 1206 -91 779 398 
Q 353 888 353 1747 
Q 353 2609 779 3096 
Q 1206 3584 1959 3584 
z
" transform="scale(0.015625)"/>
      </defs>
      <use xlink:href="#DejaVuSans-72"/>
      <use xlink:href="#DejaVuSans-65" x="38.863281"/>
      <use xlink:href="#DejaVuSans-63" x="100.386719"/>
      <use xlink:href="#DejaVuSans-65" x="155.367188"/>
      <use xlink:href="#DejaVuSans-69" x="216.890625"/>
      <use xlink:href="#DejaVuSans-76" x="244.673828"/>
      <use xlink:href="#DejaVuSans-65" x="303.853516"/>
      <use xlink:href="#DejaVuSans-20" x="365.376953"/>
      <use xlink:href="#DejaVuSans-6f" x="397.164062"/>
      <use xlink:href="#DejaVuSans-72" x="458.345703"/>
      <use xlink:href="#DejaVuSans-64" x="497.708984"/>
      <use xlink:href="#DejaVuSans-65" x="561.185547"/>
      <use xlink:href="#DejaVuSans-72" x="622.708984"/>
     </g>
    </g>
    <g id="patch_6">
     <path d="M 628.83 177.12 
L 655.110794 177.12 
L 655.110794 121.68 
L 628.83 121.68 
z
" style="fill: #ffffff; stroke: #000000; stroke-linejoin: miter"/>
    </g>
    <g id="text_5">
     <!-- 2 -->
     <g transform="translate(640.379772 150.779688) scale(0.05 -0.05)">
      <defs>
       <path id="DejaVuSans-32" d="M 1228 531 
L 3431 531 
L 3431 0 
L 469 0 
L 469 531 
Q 828 903 1448 1529 
Q 2069 2156 2228 2338 
Q 2531 2678 2651 2914 
Q 2772 3150 2772 3378 
Q 2772 3750 2511 3984 
Q 2250 4219 1831 4219 
Q 1534 4219 1204 4116 
Q 875 4013 500 3803 
L 500 4441 
Q 881 4594 1212 4672 
Q 1544 4750 1819 4750 
Q 2544 4750 2975 4387 
Q 3406 4025 3406 3419 
Q 3406 3131 3298 2873 
Q 3191 2616 2906 2266 
Q 2828 2175 2409 1742 
Q 1991 1309 1228 531 
z
" transform="scale(0.015625)"/>
      </defs>
      <use xlink:href="#DejaVuSans-32"/>
     </g>
    </g>
    <g id="patch_7">
     <path d="M 655.110794 177.12 
L 746.55 177.12 
L 746.55 121.68 
L 655.110794 121.68 
z
" style="fill: #ffffff; stroke: #000000; stroke-linejoin: miter"/>
    </g>
    <g id="text_6">
     <!-- accept order -->
     <g transform="translate(684.98235 150.779688) scale(0.05 -0.05)">
      <defs>
       <path id="DejaVuSans-61" d="M 2194 1759 
Q 1497 1759 1228 1600 
Q 959 1441 959 1056 
Q 959 750 1161 570 
Q 1363 391 1709 391 
Q 2188 391 2477 730 
Q 2766 1069 2766 1631 
L 2766 1759 
L 2194 1759 
z
M 3341 1997 
L 3341 0 
L 2766 0 
L 2766 531 
Q 2569 213 2275 61 
Q 1981 -91 1556 -91 
Q 1019 -91 701 211 
Q 384 513 384 1019 
Q 384 1609 779 1909 
Q 1175 2209 1959 2209 
L 2766 2209 
L 2766 2266 
Q 2766 2663 2505 2880 
Q 2244 3097 1772 3097 
Q 1472 3097 1187 3025 
Q 903 2953 641 2809 
L 641 3341 
Q 956 3463 1253 3523 
Q 1550 3584 1831 3584 
Q 2591 3584 2966 3190 
Q 3341 2797 3341 1997 
z
" transform="scale(0.015625)"/>
       <path id="DejaVuSans-70" d="M 1159 525 
L 1159 -1331 
L 581 -1331 
L 581 3500 
L 1159 3500 
L 1159 2969 
Q 1341 3281 1617 3432 
Q 1894 3584 2278 3584 
Q 2916 3584 3314 3078 
Q 3713 2572 3713 1747 
Q 3713 922 3314 415 
Q 2916 -91 2278 -91 
Q 1894 -91 1617 61 
Q 1341 213 1159 525 
z
M 3116 1747 
Q 3116 2381 2855 2742 
Q 2594 3103 2138 3103 
Q 1681 3103 1420 2742 
Q 1159 2381 1159 1747 
Q 1159 1113 1420 752 
Q 1681 391 2138 391 
Q 2594 391 2855 752 
Q 3116 1113 3116 1747 
z
" transform="scale(0.015625)"/>
      </defs>
      <use xlink:href="#DejaVuSans-61"/>
      <use xlink:href="#DejaVuSans-63" x="61.279297"/>
      <use xlink:href="#DejaVuSans-63" x="116.259766"/>
      <use xlink:href="#DejaVuSans-65" x="171.240234"/>
      <use xlink:href="#DejaVuSans-70" x="232.763672"/>
      <use xlink:href="#DejaVuSans-74" x="296.240234"/>
      <use xlink:href="#DejaVuSans-20" x="335.449219"/>
      <use xlink:href="#DejaVuSans-6f" x="367.236328"/>
      <use xlink:href="#DejaVuSans-72" x="428.417969"/>
      <use xlink:href="#DejaVuSans-64" x="467.78125"/>
      <use xlink:href="#DejaVuSans-65" x="531.257812"/>
      <use xlink:href="#DejaVuSans-72" x="592.78125"/>
     </g>
    </g>
    <g id="patch_8">
     <path d="M 628.83 232.56 
L 655.110794 232.56 
L 655.110794 177.12 
L 628.83 177.12 
z
" style="fill: #ffffff; stroke: #000000; stroke-linejoin: miter"/>
    </g>
    <g id="text_7">
     <!-- 3 -->
     <g transform="translate(640.379772 206.219688) scale(0.05 -0.05)">
      <defs>
       <path id="DejaVuSans-33" d="M 2597 2516 
Q 3050 2419 3304 2112 
Q 3559 1806 3559 1356 
Q 3559 666 3084 287 
Q 2609 -91 1734 -91 
Q 1441 -91 1130 -33 
Q 819 25 488 141 
L 488 750 
Q 750 597 1062 519 
Q 1375 441 1716 441 
Q 2309 441 2620 675 
Q 2931 909 2931 1356 
Q 2931 1769 2642 2001 
Q 2353 2234 1838 2234 
L 1294 2234 
L 1294 2753 
L 1863 2753 
Q 2328 2753 2575 2939 
Q 2822 3125 2822 3475 
Q 2822 3834 2567 4026 
Q 2313 4219 1838 4219 
Q 1578 4219 1281 4162 
Q 984 4106 628 3988 
L 628 4550 
Q 988 4650 1302 4700 
Q 1616 4750 1894 4750 
Q 2613 4750 3031 4423 
Q 3450 4097 3450 3541 
Q 3450 3153 3228 2886 
Q 3006 2619 2597 2516 
z
" transform="scale(0.015625)"/>
      </defs>
      <use xlink:href="#DejaVuSans-33"/>
     </g>
    </g>
    <g id="patch_9">
     <path d="M 655.110794 232.56 
L 746.55 232.56 
L 746.55 177.12 
L 655.110794 177.12 
z
" style="fill: #ffffff; stroke: #000000; stroke-linejoin: miter"/>
    </g>
    <g id="text_8">
     <!-- inform storehouse and engineering department -->
     <g transform="translate(641.230787 206.219688) scale(0.05 -0.05)">
      <defs>
       <path id="DejaVuSans-6e" d="M 3513 2113 
L 3513 0 
L 2938 0 
L 2938 2094 
Q 2938 2591 2744 2837 
Q 2550 3084 2163 3084 
Q 1697 3084 1428 2787 
Q 1159 2491 1159 1978 
L 1159 0 
L 581 0 
L 581 3500 
L 1159 3500 
L 1159 2956 
Q 1366 3272 1645 3428 
Q 1925 3584 2291 3584 
Q 2894 3584 3203 3211 
Q 3513 2838 3513 2113 
z
" transform="scale(0.015625)"/>
       <path id="DejaVuSans-66" d="M 2375 4863 
L 2375 4384 
L 1825 4384 
Q 1516 4384 1395 4259 
Q 1275 4134 1275 3809 
L 1275 3500 
L 2222 3500 
L 2222 3053 
L 1275 3053 
L 1275 0 
L 697 0 
L 697 3053 
L 147 3053 
L 147 3500 
L 697 3500 
L 697 3744 
Q 697 4328 969 4595 
Q 1241 4863 1831 4863 
L 2375 4863 
z
" transform="scale(0.015625)"/>
       <path id="DejaVuSans-73" d="M 2834 3397 
L 2834 2853 
Q 2591 2978 2328 3040 
Q 2066 3103 1784 3103 
Q 1356 3103 1142 2972 
Q 928 2841 928 2578 
Q 928 2378 1081 2264 
Q 1234 2150 1697 2047 
L 1894 2003 
Q 2506 1872 2764 1633 
Q 3022 1394 3022 966 
Q 3022 478 2636 193 
Q 2250 -91 1575 -91 
Q 1294 -91 989 -36 
Q 684 19 347 128 
L 347 722 
Q 666 556 975 473 
Q 1284 391 1588 391 
Q 1994 391 2212 530 
Q 2431 669 2431 922 
Q 2431 1156 2273 1281 
Q 2116 1406 1581 1522 
L 1381 1569 
Q 847 1681 609 1914 
Q 372 2147 372 2553 
Q 372 3047 722 3315 
Q 1072 3584 1716 3584 
Q 2034 3584 2315 3537 
Q 2597 3491 2834 3397 
z
" transform="scale(0.015625)"/>
       <path id="DejaVuSans-68" d="M 3513 2113 
L 3513 0 
L 2938 0 
L 2938 2094 
Q 2938 2591 2744 2837 
Q 2550 3084 2163 3084 
Q 1697 3084 1428 2787 
Q 1159 2491 1159 1978 
L 1159 0 
L 581 0 
L 581 4863 
L 1159 4863 
L 1159 2956 
Q 1366 3272 1645 3428 
Q 1925 3584 2291 3584 
Q 2894 3584 3203 3211 
Q 3513 2838 3513 2113 
z
" transform="scale(0.015625)"/>
      </defs>
      <use xlink:href="#DejaVuSans-69"/>
      <use xlink:href="#DejaVuSans-6e" x="27.783203"/>
      <use xlink:href="#DejaVuSans-66" x="91.162109"/>
      <use xlink:href="#DejaVuSans-6f" x="126.367188"/>
      <use xlink:href="#DejaVuSans-72" x="187.548828"/>
      <use xlink:href="#DejaVuSans-6d" x="226.912109"/>
      <use xlink:href="#DejaVuSans-20" x="324.324219"/>
      <use xlink:href="#DejaVuSans-73" x="356.111328"/>
      <use xlink:href="#DejaVuSans-74" x="408.210938"/>
      <use xlink:href="#DejaVuSans-6f" x="447.419922"/>
      <use xlink:href="#DejaVuSans-72" x="508.601562"/>
      <use xlink:href="#DejaVuSans-65" x="547.464844"/>
      <use xlink:href="#DejaVuSans-68" x="608.988281"/>
      <use xlink:href="#DejaVuSans-6f" x="672.367188"/>
      <use xlink:href="#DejaVuSans-75" x="733.548828"/>
      <use xlink:href="#DejaVuSans-73" x="796.927734"/>
      <use xlink:href="#DejaVuSans-65" x="849.027344"/>
      <use xlink:href="#DejaVuSans-20" x="910.550781"/>
      <use xlink:href="#DejaVuSans-61" x="942.337891"/>
      <use xlink:href="#DejaVuSans-6e" x="1003.617188"/>
      <use xlink:href="#DejaVuSans-64" x="1066.996094"/>
      <use xlink:href="#DejaVuSans-20" x="1130.472656"/>
      <use xlink:href="#DejaVuSans-65" x="1162.259766"/>
      <use xlink:href="#DejaVuSans-6e" x="1223.783203"/>
      <use xlink:href="#DejaVuSans-67" x="1287.162109"/>
      <use xlink:href="#DejaVuSans-69" x="1350.638672"/>
      <use xlink:href="#DejaVuSans-6e" x="1378.421875"/>
      <use xlink:href="#DejaVuSans-65" x="1441.800781"/>
      <use xlink:href="#DejaVuSans-65" x="1503.324219"/>
      <use xlink:href="#DejaVuSans-72" x="1564.847656"/>
      <use xlink:href="#DejaVuSans-69" x="1605.960938"/>
      <use xlink:href="#DejaVuSans-6e" x="1633.744141"/>
      <use xlink:href="#DejaVuSans-67" x="1697.123047"/>
      <use xlink:href="#DejaVuSans-20" x="1760.599609"/>
      <use xlink:href="#DejaVuSans-64" x="1792.386719"/>
      <use xlink:href="#DejaVuSans-65" x="1855.863281"/>
      <use xlink:href="#DejaVuSans-70" x="1917.386719"/>
      <use xlink:href="#DejaVuSans-61" x="1980.863281"/>
      <use xlink:href="#DejaVuSans-72" x="2042.142578"/>
      <use xlink:href="#DejaVuSans-74" x="2083.255859"/>
      <use xlink:href="#DejaVuSans-6d" x="2122.464844"/>
      <use xlink:href="#DejaVuSans-65" x="2219.876953"/>
      <use xlink:href="#DejaVuSans-6e" x="2281.400391"/>
      <use xlink:href="#DejaVuSans-74" x="2344.779297"/>
     </g>
    </g>
    <g id="patch_10">
     <path d="M 628.83 288 
L 655.110794 288 
L 655.110794 232.56 
L 628.83 232.56 
z
" style="fill: #ffffff; stroke: #000000; stroke-linejoin: miter"/>
    </g>
    <g id="text_9">
     <!-- 4 -->
     <g transform="translate(640.379772 261.659687) scale(0.05 -0.05)">
      <defs>
       <path id="DejaVuSans-34" d="M 2419 4116 
L 825 1625 
L 2419 1625 
L 2419 4116 
z
M 2253 4666 
L 3047 4666 
L 3047 1625 
L 3713 1625 
L 3713 1100 
L 3047 1100 
L 3047 0 
L 2419 0 
L 2419 1100 
L 313 1100 
L 313 1709 
L 2253 4666 
z
" transform="scale(0.015625)"/>
      </defs>
      <use xlink:href="#DejaVuSans-34"/>
     </g>
    </g>
    <g id="patch_11">
     <path d="M 655.110794 288 
L 746.55 288 
L 746.55 232.56 
L 655.110794 232.56 
z
" style="fill: #ffffff; stroke: #000000; stroke-linejoin: miter"/>
    </g>
    <g id="text_10">
     <!-- inform storehouse and engineering department -->
     <g transform="translate(641.230787 261.659687) scale(0.05 -0.05)">
      <use xlink:href="#DejaVuSans-69"/>
      <use xlink:href="#DejaVuSans-6e" x="27.783203"/>
      <use xlink:href="#DejaVuSans-66" x="91.162109"/>
      <use xlink:href="#DejaVuSans-6f" x="126.367188"/>
      <use xlink:href="#DejaVuSans-72" x="187.548828"/>
      <use xlink:href="#DejaVuSans-6d" x="226.912109"/>
      <use xlink:href="#DejaVuSans-20" x="324.324219"/>
      <use xlink:href="#DejaVuSans-73" x="356.111328"/>
      <use xlink:href="#DejaVuSans-74" x="408.210938"/>
      <use xlink:href="#DejaVuSans-6f" x="447.419922"/>
      <use xlink:href="#DejaVuSans-72" x="508.601562"/>
      <use xlink:href="#DejaVuSans-65" x="547.464844"/>
      <use xlink:href="#DejaVuSans-68" x="608.988281"/>
      <use xlink:href="#DejaVuSans-6f" x="672.367188"/>
      <use xlink:href="#DejaVuSans-75" x="733.548828"/>
      <use xlink:href="#DejaVuSans-73" x="796.927734"/>
      <use xlink:href="#DejaVuSans-65" x="849.027344"/>
      <use xlink:href="#DejaVuSans-20" x="910.550781"/>
      <use xlink:href="#DejaVuSans-61" x="942.337891"/>
      <use xlink:href="#DejaVuSans-6e" x="1003.617188"/>
      <use xlink:href="#DejaVuSans-64" x="1066.996094"/>
      <use xlink:href="#DejaVuSans-20" x="1130.472656"/>
      <use xlink:href="#DejaVuSans-65" x="1162.259766"/>
      <use xlink:href="#DejaVuSans-6e" x="1223.783203"/>
      <use xlink:href="#DejaVuSans-67" x="1287.162109"/>
      <use xlink:href="#DejaVuSans-69" x="1350.638672"/>
      <use xlink:href="#DejaVuSans-6e" x="1378.421875"/>
      <use xlink:href="#DejaVuSans-65" x="1441.800781"/>
      <use xlink:href="#DejaVuSans-65" x="1503.324219"/>
      <use xlink:href="#DejaVuSans-72" x="1564.847656"/>
      <use xlink:href="#DejaVuSans-69" x="1605.960938"/>
      <use xlink:href="#DejaVuSans-6e" x="1633.744141"/>
      <use xlink:href="#DejaVuSans-67" x="1697.123047"/>
      <use xlink:href="#DejaVuSans-20" x="1760.599609"/>
      <use xlink:href="#DejaVuSans-64" x="1792.386719"/>
      <use xlink:href="#DejaVuSans-65" x="1855.863281"/>
      <use xlink:href="#DejaVuSans-70" x="1917.386719"/>
      <use xlink:href="#DejaVuSans-61" x="1980.863281"/>
      <use xlink:href="#DejaVuSans-72" x="2042.142578"/>
      <use xlink:href="#DejaVuSans-74" x="2083.255859"/>
      <use xlink:href="#DejaVuSans-6d" x="2122.464844"/>
      <use xlink:href="#DejaVuSans-65" x="2219.876953"/>
      <use xlink:href="#DejaVuSans-6e" x="2281.400391"/>
      <use xlink:href="#DejaVuSans-74" x="2344.779297"/>
     </g>
    </g>
    <g id="patch_12">
     <path d="M 628.83 343.44 
L 655.110794 343.44 
L 655.110794 288 
L 628.83 288 
z
" style="fill: #ffffff; stroke: #000000; stroke-linejoin: miter"/>
    </g>
    <g id="text_11">
     <!-- 5 -->
     <g transform="translate(640.379772 317.099688) scale(0.05 -0.05)">
      <defs>
       <path id="DejaVuSans-35" d="M 691 4666 
L 3169 4666 
L 3169 4134 
L 1269 4134 
L 1269 2991 
Q 1406 3038 1543 3061 
Q 1681 3084 1819 3084 
Q 2600 3084 3056 2656 
Q 3513 2228 3513 1497 
Q 3513 744 3044 326 
Q 2575 -91 1722 -91 
Q 1428 -91 1123 -41 
Q 819 9 494 109 
L 494 744 
Q 775 591 1075 516 
Q 1375 441 1709 441 
Q 2250 441 2565 725 
Q 2881 1009 2881 1497 
Q 2881 1984 2565 2268 
Q 2250 2553 1709 2553 
Q 1456 2553 1204 2497 
Q 953 2441 691 2322 
L 691 4666 
z
" transform="scale(0.015625)"/>
      </defs>
      <use xlink:href="#DejaVuSans-35"/>
     </g>
    </g>
    <g id="patch_13">
     <path d="M 655.110794 343.44 
L 746.55 343.44 
L 746.55 288 
L 655.110794 288 
z
" style="fill: #ffffff; stroke: #000000; stroke-linejoin: miter"/>
    </g>
    <g id="text_12">
     <!-- prepare for assembling the ordered bicycle -->
     <g transform="translate(646.854616 317.099688) scale(0.05 -0.05)">
      <defs>
       <path id="DejaVuSans-6c" d="M 603 4863 
L 1178 4863 
L 1178 0 
L 603 0 
L 603 4863 
z
" transform="scale(0.015625)"/>
      </defs>
      <use xlink:href="#DejaVuSans-70"/>
      <use xlink:href="#DejaVuSans-72" x="63.476562"/>
      <use xlink:href="#DejaVuSans-65" x="102.339844"/>
      <use xlink:href="#DejaVuSans-70" x="163.863281"/>
      <use xlink:href="#DejaVuSans-61" x="227.339844"/>
      <use xlink:href="#DejaVuSans-72" x="288.619141"/>
      <use xlink:href="#DejaVuSans-65" x="327.482422"/>
      <use xlink:href="#DejaVuSans-20" x="389.005859"/>
      <use xlink:href="#DejaVuSans-66" x="420.792969"/>
      <use xlink:href="#DejaVuSans-6f" x="455.998047"/>
      <use xlink:href="#DejaVuSans-72" x="517.179688"/>
      <use xlink:href="#DejaVuSans-20" x="558.292969"/>
      <use xlink:href="#DejaVuSans-61" x="590.080078"/>
      <use xlink:href="#DejaVuSans-73" x="651.359375"/>
      <use xlink:href="#DejaVuSans-73" x="703.458984"/>
      <use xlink:href="#DejaVuSans-65" x="755.558594"/>
      <use xlink:href="#DejaVuSans-6d" x="817.082031"/>
      <use xlink:href="#DejaVuSans-62" x="914.494141"/>
      <use xlink:href="#DejaVuSans-6c" x="977.970703"/>
      <use xlink:href="#DejaVuSans-69" x="1005.753906"/>
      <use xlink:href="#DejaVuSans-6e" x="1033.537109"/>
      <use xlink:href="#DejaVuSans-67" x="1096.916016"/>
      <use xlink:href="#DejaVuSans-20" x="1160.392578"/>
      <use xlink:href="#DejaVuSans-74" x="1192.179688"/>
      <use xlink:href="#DejaVuSans-68" x="1231.388672"/>
      <use xlink:href="#DejaVuSans-65" x="1294.767578"/>
      <use xlink:href="#DejaVuSans-20" x="1356.291016"/>
      <use xlink:href="#DejaVuSans-6f" x="1388.078125"/>
      <use xlink:href="#DejaVuSans-72" x="1449.259766"/>
      <use xlink:href="#DejaVuSans-64" x="1488.623047"/>
      <use xlink:href="#DejaVuSans-65" x="1552.099609"/>
      <use xlink:href="#DejaVuSans-72" x="1613.623047"/>
      <use xlink:href="#DejaVuSans-65" x="1652.486328"/>
      <use xlink:href="#DejaVuSans-64" x="1714.009766"/>
      <use xlink:href="#DejaVuSans-20" x="1777.486328"/>
      <use xlink:href="#DejaVuSans-62" x="1809.273438"/>
      <use xlink:href="#DejaVuSans-69" x="1872.75"/>
      <use xlink:href="#DejaVuSans-63" x="1900.533203"/>
      <use xlink:href="#DejaVuSans-79" x="1955.513672"/>
      <use xlink:href="#DejaVuSans-63" x="2014.693359"/>
      <use xlink:href="#DejaVuSans-6c" x="2069.673828"/>
      <use xlink:href="#DejaVuSans-65" x="2097.457031"/>
     </g>
    </g>
    <g id="patch_14">
     <path d="M 628.83 398.88 
L 655.110794 398.88 
L 655.110794 343.44 
L 628.83 343.44 
z
" style="fill: #ffffff; stroke: #000000; stroke-linejoin: miter"/>
    </g>
    <g id="text_13">
     <!-- 6 -->
     <g transform="translate(640.379772 372.539688) scale(0.05 -0.05)">
      <defs>
       <path id="DejaVuSans-36" d="M 2113 2584 
Q 1688 2584 1439 2293 
Q 1191 2003 1191 1497 
Q 1191 994 1439 701 
Q 1688 409 2113 409 
Q 2538 409 2786 701 
Q 3034 994 3034 1497 
Q 3034 2003 2786 2293 
Q 2538 2584 2113 2584 
z
M 3366 4563 
L 3366 3988 
Q 3128 4100 2886 4159 
Q 2644 4219 2406 4219 
Q 1781 4219 1451 3797 
Q 1122 3375 1075 2522 
Q 1259 2794 1537 2939 
Q 1816 3084 2150 3084 
Q 2853 3084 3261 2657 
Q 3669 2231 3669 1497 
Q 3669 778 3244 343 
Q 2819 -91 2113 -91 
Q 1303 -91 875 529 
Q 447 1150 447 2328 
Q 447 3434 972 4092 
Q 1497 4750 2381 4750 
Q 2619 4750 2861 4703 
Q 3103 4656 3366 4563 
z
" transform="scale(0.015625)"/>
      </defs>
      <use xlink:href="#DejaVuSans-36"/>
     </g>
    </g>
    <g id="patch_15">
     <path d="M 655.110794 398.88 
L 746.55 398.88 
L 746.55 343.44 
L 655.110794 343.44 
z
" style="fill: #ffffff; stroke: #000000; stroke-linejoin: miter"/>
    </g>
    <g id="text_14">
     <!-- process part list of order -->
     <g transform="translate(670.171412 372.539688) scale(0.05 -0.05)">
      <use xlink:href="#DejaVuSans-70"/>
      <use xlink:href="#DejaVuSans-72" x="63.476562"/>
      <use xlink:href="#DejaVuSans-6f" x="102.339844"/>
      <use xlink:href="#DejaVuSans-63" x="163.521484"/>
      <use xlink:href="#DejaVuSans-65" x="218.501953"/>
      <use xlink:href="#DejaVuSans-73" x="280.025391"/>
      <use xlink:href="#DejaVuSans-73" x="332.125"/>
      <use xlink:href="#DejaVuSans-20" x="384.224609"/>
      <use xlink:href="#DejaVuSans-70" x="416.011719"/>
      <use xlink:href="#DejaVuSans-61" x="479.488281"/>
      <use xlink:href="#DejaVuSans-72" x="540.767578"/>
      <use xlink:href="#DejaVuSans-74" x="581.880859"/>
      <use xlink:href="#DejaVuSans-20" x="621.089844"/>
      <use xlink:href="#DejaVuSans-6c" x="652.876953"/>
      <use xlink:href="#DejaVuSans-69" x="680.660156"/>
      <use xlink:href="#DejaVuSans-73" x="708.443359"/>
      <use xlink:href="#DejaVuSans-74" x="760.542969"/>
      <use xlink:href="#DejaVuSans-20" x="799.751953"/>
      <use xlink:href="#DejaVuSans-6f" x="831.539062"/>
      <use xlink:href="#DejaVuSans-66" x="892.720703"/>
      <use xlink:href="#DejaVuSans-20" x="927.925781"/>
      <use xlink:href="#DejaVuSans-6f" x="959.712891"/>
      <use xlink:href="#DejaVuSans-72" x="1020.894531"/>
      <use xlink:href="#DejaVuSans-64" x="1060.257812"/>
      <use xlink:href="#DejaVuSans-65" x="1123.734375"/>
      <use xlink:href="#DejaVuSans-72" x="1185.257812"/>
     </g>
    </g>
    <g id="patch_16">
     <path d="M 628.83 454.32 
L 655.110794 454.32 
L 655.110794 398.88 
L 628.83 398.88 
z
" style="fill: #ffffff; stroke: #000000; stroke-linejoin: miter"/>
    </g>
    <g id="text_15">
     <!-- 7 -->
     <g transform="translate(640.379772 427.979687) scale(0.05 -0.05)">
      <defs>
       <path id="DejaVuSans-37" d="M 525 4666 
L 3525 4666 
L 3525 4397 
L 1831 0 
L 1172 0 
L 2766 4134 
L 525 4134 
L 525 4666 
z
" transform="scale(0.015625)"/>
      </defs>
      <use xlink:href="#DejaVuSans-37"/>
     </g>
    </g>
    <g id="patch_17">
     <path d="M 655.110794 454.32 
L 746.55 454.32 
L 746.55 398.88 
L 655.110794 398.88 
z
" style="fill: #ffffff; stroke: #000000; stroke-linejoin: miter"/>
    </g>
    <g id="text_16">
     <!-- check required quantity of each part -->
     <g transform="translate(655.077272 427.979687) scale(0.05 -0.05)">
      <defs>
       <path id="DejaVuSans-6b" d="M 581 4863 
L 1159 4863 
L 1159 1991 
L 2875 3500 
L 3609 3500 
L 1753 1863 
L 3688 0 
L 2938 0 
L 1159 1709 
L 1159 0 
L 581 0 
L 581 4863 
z
" transform="scale(0.015625)"/>
       <path id="DejaVuSans-71" d="M 947 1747 
Q 947 1113 1208 752 
Q 1469 391 1925 391 
Q 2381 391 2643 752 
Q 2906 1113 2906 1747 
Q 2906 2381 2643 2742 
Q 2381 3103 1925 3103 
Q 1469 3103 1208 2742 
Q 947 2381 947 1747 
z
M 2906 525 
Q 2725 213 2448 61 
Q 2172 -91 1784 -91 
Q 1150 -91 751 415 
Q 353 922 353 1747 
Q 353 2572 751 3078 
Q 1150 3584 1784 3584 
Q 2172 3584 2448 3432 
Q 2725 3281 2906 2969 
L 2906 3500 
L 3481 3500 
L 3481 -1331 
L 2906 -1331 
L 2906 525 
z
" transform="scale(0.015625)"/>
      </defs>
      <use xlink:href="#DejaVuSans-63"/>
      <use xlink:href="#DejaVuSans-68" x="54.980469"/>
      <use xlink:href="#DejaVuSans-65" x="118.359375"/>
      <use xlink:href="#DejaVuSans-63" x="179.882812"/>
      <use xlink:href="#DejaVuSans-6b" x="234.863281"/>
      <use xlink:href="#DejaVuSans-20" x="292.773438"/>
      <use xlink:href="#DejaVuSans-72" x="324.560547"/>
      <use xlink:href="#DejaVuSans-65" x="363.423828"/>
      <use xlink:href="#DejaVuSans-71" x="424.947266"/>
      <use xlink:href="#DejaVuSans-75" x="488.423828"/>
      <use xlink:href="#DejaVuSans-69" x="551.802734"/>
      <use xlink:href="#DejaVuSans-72" x="579.585938"/>
      <use xlink:href="#DejaVuSans-65" x="618.449219"/>
      <use xlink:href="#DejaVuSans-64" x="679.972656"/>
      <use xlink:href="#DejaVuSans-20" x="743.449219"/>
      <use xlink:href="#DejaVuSans-71" x="775.236328"/>
      <use xlink:href="#DejaVuSans-75" x="838.712891"/>
      <use xlink:href="#DejaVuSans-61" x="902.091797"/>
      <use xlink:href="#DejaVuSans-6e" x="963.371094"/>
      <use xlink:href="#DejaVuSans-74" x="1026.75"/>
      <use xlink:href="#DejaVuSans-69" x="1065.958984"/>
      <use xlink:href="#DejaVuSans-74" x="1093.742188"/>
      <use xlink:href="#DejaVuSans-79" x="1132.951172"/>
      <use xlink:href="#DejaVuSans-20" x="1192.130859"/>
      <use xlink:href="#DejaVuSans-6f" x="1223.917969"/>
      <use xlink:href="#DejaVuSans-66" x="1285.099609"/>
      <use xlink:href="#DejaVuSans-20" x="1320.304688"/>
      <use xlink:href="#DejaVuSans-65" x="1352.091797"/>
      <use xlink:href="#DejaVuSans-61" x="1413.615234"/>
      <use xlink:href="#DejaVuSans-63" x="1474.894531"/>
      <use xlink:href="#DejaVuSans-68" x="1529.875"/>
      <use xlink:href="#DejaVuSans-20" x="1593.253906"/>
      <use xlink:href="#DejaVuSans-70" x="1625.041016"/>
      <use xlink:href="#DejaVuSans-61" x="1688.517578"/>
      <use xlink:href="#DejaVuSans-72" x="1749.796875"/>
      <use xlink:href="#DejaVuSans-74" x="1790.910156"/>
     </g>
    </g>
    <g id="patch_18">
     <path d="M 628.83 509.76 
L 655.110794 509.76 
L 655.110794 454.32 
L 628.83 454.32 
z
" style="fill: #ffffff; stroke: #000000; stroke-linejoin: miter"/>
    </g>
    <g id="text_17">
     <!-- 8 -->
     <g transform="translate(640.379772 483.419688) scale(0.05 -0.05)">
      <defs>
       <path id="DejaVuSans-38" d="M 2034 2216 
Q 1584 2216 1326 1975 
Q 1069 1734 1069 1313 
Q 1069 891 1326 650 
Q 1584 409 2034 409 
Q 2484 409 2743 651 
Q 3003 894 3003 1313 
Q 3003 1734 2745 1975 
Q 2488 2216 2034 2216 
z
M 1403 2484 
Q 997 2584 770 2862 
Q 544 3141 544 3541 
Q 544 4100 942 4425 
Q 1341 4750 2034 4750 
Q 2731 4750 3128 4425 
Q 3525 4100 3525 3541 
Q 3525 3141 3298 2862 
Q 3072 2584 2669 2484 
Q 3125 2378 3379 2068 
Q 3634 1759 3634 1313 
Q 3634 634 3220 271 
Q 2806 -91 2034 -91 
Q 1263 -91 848 271 
Q 434 634 434 1313 
Q 434 1759 690 2068 
Q 947 2378 1403 2484 
z
M 1172 3481 
Q 1172 3119 1398 2916 
Q 1625 2713 2034 2713 
Q 2441 2713 2670 2916 
Q 2900 3119 2900 3481 
Q 2900 3844 2670 4047 
Q 2441 4250 2034 4250 
Q 1625 4250 1398 4047 
Q 1172 3844 1172 3481 
z
" transform="scale(0.015625)"/>
      </defs>
      <use xlink:href="#DejaVuSans-38"/>
     </g>
    </g>
    <g id="patch_19">
     <path d="M 655.110794 509.76 
L 746.55 509.76 
L 746.55 454.32 
L 655.110794 454.32 
z
" style="fill: #ffffff; stroke: #000000; stroke-linejoin: miter"/>
    </g>
    <g id="text_18">
     <!-- reserve part -->
     <g transform="translate(685.512819 483.419688) scale(0.05 -0.05)">
      <use xlink:href="#DejaVuSans-72"/>
      <use xlink:href="#DejaVuSans-65" x="38.863281"/>
      <use xlink:href="#DejaVuSans-73" x="100.386719"/>
      <use xlink:href="#DejaVuSans-65" x="152.486328"/>
      <use xlink:href="#DejaVuSans-72" x="214.009766"/>
      <use xlink:href="#DejaVuSans-76" x="255.123047"/>
      <use xlink:href="#DejaVuSans-65" x="314.302734"/>
      <use xlink:href="#DejaVuSans-20" x="375.826172"/>
      <use xlink:href="#DejaVuSans-70" x="407.613281"/>
      <use xlink:href="#DejaVuSans-61" x="471.089844"/>
      <use xlink:href="#DejaVuSans-72" x="532.369141"/>
      <use xlink:href="#DejaVuSans-74" x="573.482422"/>
     </g>
    </g>
    <g id="patch_20">
     <path d="M 628.83 565.2 
L 655.110794 565.2 
L 655.110794 509.76 
L 628.83 509.76 
z
" style="fill: #ffffff; stroke: #000000; stroke-linejoin: miter"/>
    </g>
    <g id="text_19">
     <!-- 9 -->
     <g transform="translate(640.379772 538.859687) scale(0.05 -0.05)">
      <defs>
       <path id="DejaVuSans-39" d="M 703 97 
L 703 672 
Q 941 559 1184 500 
Q 1428 441 1663 441 
Q 2288 441 2617 861 
Q 2947 1281 2994 2138 
Q 2813 1869 2534 1725 
Q 2256 1581 1919 1581 
Q 1219 1581 811 2004 
Q 403 2428 403 3163 
Q 403 3881 828 4315 
Q 1253 4750 1959 4750 
Q 2769 4750 3195 4129 
Q 3622 3509 3622 2328 
Q 3622 1225 3098 567 
Q 2575 -91 1691 -91 
Q 1453 -91 1209 -44 
Q 966 3 703 97 
z
M 1959 2075 
Q 2384 2075 2632 2365 
Q 2881 2656 2881 3163 
Q 2881 3666 2632 3958 
Q 2384 4250 1959 4250 
Q 1534 4250 1286 3958 
Q 1038 3666 1038 3163 
Q 1038 2656 1286 2365 
Q 1534 2075 1959 2075 
z
" transform="scale(0.015625)"/>
      </defs>
      <use xlink:href="#DejaVuSans-39"/>
     </g>
    </g>
    <g id="patch_21">
     <path d="M 655.110794 565.2 
L 746.55 565.2 
L 746.55 509.76 
L 655.110794 509.76 
z
" style="fill: #ffffff; stroke: #000000; stroke-linejoin: miter"/>
    </g>
    <g id="text_20">
     <!-- assemble bicycle -->
     <g transform="translate(679.362428 538.859687) scale(0.05 -0.05)">
      <use xlink:href="#DejaVuSans-61"/>
      <use xlink:href="#DejaVuSans-73" x="61.279297"/>
      <use xlink:href="#DejaVuSans-73" x="113.378906"/>
      <use xlink:href="#DejaVuSans-65" x="165.478516"/>
      <use xlink:href="#DejaVuSans-6d" x="227.001953"/>
      <use xlink:href="#DejaVuSans-62" x="324.414062"/>
      <use xlink:href="#DejaVuSans-6c" x="387.890625"/>
      <use xlink:href="#DejaVuSans-65" x="415.673828"/>
      <use xlink:href="#DejaVuSans-20" x="477.197266"/>
      <use xlink:href="#DejaVuSans-62" x="508.984375"/>
      <use xlink:href="#DejaVuSans-69" x="572.460938"/>
      <use xlink:href="#DejaVuSans-63" x="600.244141"/>
      <use xlink:href="#DejaVuSans-79" x="655.224609"/>
      <use xlink:href="#DejaVuSans-63" x="714.404297"/>
      <use xlink:href="#DejaVuSans-6c" x="769.384766"/>
      <use xlink:href="#DejaVuSans-65" x="797.167969"/>
     </g>
    </g>
   </g>
   <g id="patch_22">
    <path d="M 61.87686 215.572981 
C 86.036655 215.572981 86.036655 259.324034 61.87686 259.324034 
C 37.717064 259.324034 37.717064 215.572981 60.982432 215.572981 
" clip-path="url(#pe816cbbc4b)" style="fill: none; stroke: #000000; stroke-opacity: 0.5; stroke-width: 0.8; stroke-linecap: round"/>
    <path d="M 56.982432 213.572981 
L 60.982432 215.572981 
L 56.982432 217.572981 
z
" clip-path="url(#pe816cbbc4b)" style="fill-opacity: 0.5; stroke: #000000; stroke-opacity: 0.5; stroke-width: 0.8; stroke-linecap: round"/>
   </g>
   <g id="patch_23">
    <path d="M 61.87686 215.572981 
C 86.036655 215.572981 86.036655 259.324034 61.87686 259.324034 
C 37.717064 259.324034 37.717064 215.572981 60.982432 215.572981 
" clip-path="url(#pe816cbbc4b)" style="fill: none; stroke: #000000; stroke-opacity: 0.5; stroke-width: 0.8; stroke-linecap: round"/>
    <path d="M 56.982432 213.572981 
L 60.982432 215.572981 
L 56.982432 217.572981 
z
" clip-path="url(#pe816cbbc4b)" style="fill-opacity: 0.5; stroke: #000000; stroke-opacity: 0.5; stroke-width: 0.8; stroke-linecap: round"/>
   </g>
   <g id="patch_24">
    <path d="M 68.065758 265.385181 
Q 233.972758 426.742131 447.14853 514.515534 
" clip-path="url(#pe816cbbc4b)" style="fill: none; stroke: #000000; stroke-opacity: 0.5; stroke-width: 0.8; stroke-linecap: round"/>
    <path d="M 444.211251 511.143236 
L 447.14853 514.515534 
L 442.688324 514.841978 
z
" clip-path="url(#pe816cbbc4b)" style="fill-opacity: 0.5; stroke: #000000; stroke-opacity: 0.5; stroke-width: 0.8; stroke-linecap: round"/>
   </g>
   <g id="patch_25">
    <path d="M 70.428826 257.96294 
Q 322.394258 217.044711 540.15767 85.575593 
" clip-path="url(#pe816cbbc4b)" style="fill: none; stroke: #000000; stroke-opacity: 0.5; stroke-width: 0.8; stroke-linecap: round"/>
    <path d="M 535.699661 85.93078 
L 540.15767 85.575593 
L 537.767015 89.355112 
z
" clip-path="url(#pe816cbbc4b)" style="fill-opacity: 0.5; stroke: #000000; stroke-opacity: 0.5; stroke-width: 0.8; stroke-linecap: round"/>
   </g>
   <g id="patch_26">
    <path d="M 459.378619 510.153939 
Q 544.277704 308.257586 548.18377 90.166429 
" clip-path="url(#pe816cbbc4b)" style="fill: none; stroke: #000000; stroke-opacity: 0.5; stroke-width: 0.8; stroke-linecap: round"/>
    <path d="M 546.112462 94.129972 
L 548.18377 90.166429 
L 550.11182 94.201602 
z
" clip-path="url(#pe816cbbc4b)" style="fill-opacity: 0.5; stroke: #000000; stroke-opacity: 0.5; stroke-width: 0.8; stroke-linecap: round"/>
   </g>
   <g id="patch_27">
    <path d="M 548.32314 36.862886 
C 572.482936 36.862886 572.482936 80.613939 548.32314 80.613939 
C 524.163345 80.613939 524.163345 36.862886 547.428713 36.862886 
" clip-path="url(#pe816cbbc4b)" style="fill: none; stroke: #000000; stroke-opacity: 0.5; stroke-width: 0.8; stroke-linecap: round"/>
    <path d="M 543.428713 34.862886 
L 547.428713 36.862886 
L 543.428713 38.862886 
z
" clip-path="url(#pe816cbbc4b)" style="fill-opacity: 0.5; stroke: #000000; stroke-opacity: 0.5; stroke-width: 0.8; stroke-linecap: round"/>
   </g>
   <g id="patch_28">
    <path d="M 548.32314 36.862886 
C 572.482936 36.862886 572.482936 80.613939 548.32314 80.613939 
C 524.163345 80.613939 524.163345 36.862886 547.428713 36.862886 
" clip-path="url(#pe816cbbc4b)" style="fill: none; stroke: #000000; stroke-opacity: 0.5; stroke-width: 0.8; stroke-linecap: round"/>
    <path d="M 543.428713 34.862886 
L 547.428713 36.862886 
L 543.428713 38.862886 
z
" clip-path="url(#pe816cbbc4b)" style="fill-opacity: 0.5; stroke: #000000; stroke-opacity: 0.5; stroke-width: 0.8; stroke-linecap: round"/>
   </g>
   <g id="patch_29">
    <path d="M 544.937056 88.584473 
Q 460.037971 290.480827 456.131905 508.571984 
" clip-path="url(#pe816cbbc4b)" style="fill: none; stroke: #000000; stroke-opacity: 0.5; stroke-width: 0.8; stroke-linecap: round"/>
    <path d="M 458.203213 504.60844 
L 456.131905 508.571984 
L 454.203855 504.53681 
z
" clip-path="url(#pe816cbbc4b)" style="fill-opacity: 0.5; stroke: #000000; stroke-opacity: 0.5; stroke-width: 0.8; stroke-linecap: round"/>
   </g>
   <g id="patch_30">
    <path d="M 449.803636 512.063327 
Q 283.896636 350.706377 70.720864 262.932973 
" clip-path="url(#pe816cbbc4b)" style="fill: none; stroke: #000000; stroke-opacity: 0.5; stroke-width: 0.8; stroke-linecap: round"/>
    <path d="M 73.658143 266.305272 
L 70.720864 262.932973 
L 75.18107 262.60653 
z
" clip-path="url(#pe816cbbc4b)" style="fill-opacity: 0.5; stroke: #000000; stroke-opacity: 0.5; stroke-width: 0.8; stroke-linecap: round"/>
   </g>
   <g id="text_21">
    <g id="patch_31">
     <path d="M 59.33186 265.595284 
L 64.42186 265.595284 
Q 66.82186 265.595284 66.82186 263.195284 
L 66.82186 255.452784 
Q 66.82186 253.052784 64.42186 253.052784 
L 59.33186 253.052784 
Q 56.93186 253.052784 56.93186 255.452784 
L 56.93186 263.195284 
Q 56.93186 265.595284 59.33186 265.595284 
z
" clip-path="url(#pe816cbbc4b)" style="fill: #ffffff; stroke: #ffffff; stroke-linejoin: miter"/>
    </g>
    <g clip-path="url(#pe816cbbc4b)">
     <!-- 2 -->
     <g style="fill: #808080" transform="translate(59.33186 261.531534) scale(0.08 -0.08)">
      <use xlink:href="#DejaVuSans-32"/>
     </g>
    </g>
   </g>
   <g id="text_22">
    <g id="patch_32">
     <path d="M 253.994996 393.350803 
L 258.616083 395.484734 
Q 260.794985 396.490909 261.80116 394.312007 
L 265.047123 387.282781 
Q 266.053299 385.10388 263.874397 384.097704 
L 259.253311 381.963774 
Q 257.074409 380.957599 256.068234 383.1365 
L 252.82227 390.165727 
Q 251.816095 392.344628 253.994996 393.350803 
z
" clip-path="url(#pe816cbbc4b)" style="fill: #ffffff; stroke: #ffffff; stroke-linejoin: miter"/>
    </g>
    <g clip-path="url(#pe816cbbc4b)">
     <!-- 3 -->
     <g style="fill: #808080" transform="translate(255.698682 389.661424) rotate(-335.213402) scale(0.08 -0.08)">
      <use xlink:href="#DejaVuSans-33"/>
     </g>
    </g>
   </g>
   <g id="text_23">
    <g id="patch_33">
     <path d="M 304.204579 176.677475 
L 309.13277 175.404276 
Q 311.456475 174.803946 310.856145 172.480241 
L 308.919456 164.983873 
Q 308.319126 162.660168 305.995421 163.260498 
L 301.06723 164.533697 
Q 298.743525 165.134027 299.343855 167.457732 
L 301.280544 174.954101 
Q 301.880874 177.277805 304.204579 176.677475 
z
" clip-path="url(#pe816cbbc4b)" style="fill: #ffffff; stroke: #ffffff; stroke-linejoin: miter"/>
    </g>
    <g clip-path="url(#pe816cbbc4b)">
     <!-- 4 -->
     <g style="fill: #808080" transform="translate(303.188083 172.742911) rotate(-14.485646) scale(0.08 -0.08)">
      <use xlink:href="#DejaVuSans-34"/>
     </g>
    </g>
   </g>
   <g id="text_24">
    <g id="patch_34">
     <path d="M 507.432926 303.609376 
L 508.895963 298.734171 
Q 509.585803 296.43545 507.287082 295.745609 
L 499.871311 293.520155 
Q 497.57259 292.830315 496.882749 295.129036 
L 495.419712 300.004241 
Q 494.729872 302.302962 497.028593 302.992803 
L 504.444364 305.218257 
Q 506.743085 305.908098 507.432926 303.609376 
z
" clip-path="url(#pe816cbbc4b)" style="fill: #ffffff; stroke: #ffffff; stroke-linejoin: miter"/>
    </g>
    <g clip-path="url(#pe816cbbc4b)">
     <!-- 5 -->
     <g style="fill: #808080" transform="translate(503.540664 302.441318) rotate(-73.295631) scale(0.08 -0.08)">
      <use xlink:href="#DejaVuSans-35"/>
     </g>
    </g>
   </g>
   <g id="text_25">
    <g id="patch_35">
     <path d="M 545.77814 86.885189 
L 550.86814 86.885189 
Q 553.26814 86.885189 553.26814 84.485189 
L 553.26814 76.742689 
Q 553.26814 74.342689 550.86814 74.342689 
L 545.77814 74.342689 
Q 543.37814 74.342689 543.37814 76.742689 
L 543.37814 84.485189 
Q 543.37814 86.885189 545.77814 86.885189 
z
" clip-path="url(#pe816cbbc4b)" style="fill: #ffffff; stroke: #ffffff; stroke-linejoin: miter"/>
    </g>
    <g clip-path="url(#pe816cbbc4b)">
     <!-- 7 -->
     <g style="fill: #808080" transform="translate(545.77814 82.821439) scale(0.08 -0.08)">
      <use xlink:href="#DejaVuSans-37"/>
     </g>
    </g>
   </g>
   <g id="text_26">
    <g id="patch_36">
     <path d="M 507.432926 303.609376 
L 508.895963 298.734171 
Q 509.585803 296.43545 507.287082 295.745609 
L 499.871311 293.520155 
Q 497.57259 292.830315 496.882749 295.129036 
L 495.419712 300.004241 
Q 494.729872 302.302962 497.028593 302.992803 
L 504.444364 305.218257 
Q 506.743085 305.908098 507.432926 303.609376 
z
" clip-path="url(#pe816cbbc4b)" style="fill: #ffffff; stroke: #ffffff; stroke-linejoin: miter"/>
    </g>
    <g clip-path="url(#pe816cbbc4b)">
     <!-- 8 -->
     <g style="fill: #808080" transform="translate(503.540664 302.441318) rotate(-73.295631) scale(0.08 -0.08)">
      <use xlink:href="#DejaVuSans-38"/>
     </g>
    </g>
   </g>
   <g id="text_27">
    <g id="patch_37">
     <path d="M 253.994996 393.350803 
L 258.616083 395.484734 
Q 260.794985 396.490909 261.80116 394.312007 
L 265.047123 387.282781 
Q 266.053299 385.10388 263.874397 384.097704 
L 259.253311 381.963774 
Q 257.074409 380.957599 256.068234 383.1365 
L 252.82227 390.165727 
Q 251.816095 392.344628 253.994996 393.350803 
z
" clip-path="url(#pe816cbbc4b)" style="fill: #ffffff; stroke: #ffffff; stroke-linejoin: miter"/>
    </g>
    <g clip-path="url(#pe816cbbc4b)">
     <!-- 9 -->
     <g style="fill: #808080" transform="translate(255.698682 389.661424) rotate(-335.213402) scale(0.08 -0.08)">
      <use xlink:href="#DejaVuSans-39"/>
     </g>
    </g>
   </g>
   <g id="patch_38">
    <path d="M 355.397511 551.789569 
C 433.240098 551.789569 507.904934 523.786497 562.947955 473.947703 
C 617.990976 424.10891 648.918163 356.503513 648.918163 286.020815 
C 648.918163 215.538118 617.990976 147.932721 562.947955 98.093928 
C 507.904934 48.255134 433.240098 20.252062 355.397511 20.252062 
C 277.554925 20.252062 202.890089 48.255134 147.847068 98.093928 
C 92.804047 147.932721 61.87686 215.538118 61.87686 286.020815 
C 61.87686 356.503513 92.804047 424.10891 147.847068 473.947703 
C 202.890089 523.786497 277.554925 551.789569 355.397511 551.789569 
L 355.397511 551.789569 
z
" clip-path="url(#pe816cbbc4b)" style="fill: none; stroke-dasharray: 3.7,1.6; stroke-dashoffset: 0; stroke: #0000ff; stroke-linejoin: miter"/>
   </g>
   <g id="PathCollection_1">
    <path d="M 61.87686 277.473865 
C 66.690251 277.473865 71.307146 275.561484 74.710728 272.157902 
C 78.114309 268.754321 80.02669 264.137426 80.02669 259.324034 
C 80.02669 254.510643 78.114309 249.893748 74.710728 246.490166 
C 71.307146 243.086584 66.690251 241.174204 61.87686 241.174204 
C 57.063468 241.174204 52.446573 243.086584 49.042991 246.490166 
C 45.63941 249.893748 43.727029 254.510643 43.727029 259.324034 
C 43.727029 264.137426 45.63941 268.754321 49.042991 272.157902 
C 52.446573 275.561484 57.063468 277.473865 61.87686 277.473865 
z
" clip-path="url(#pe816cbbc4b)" style="fill: #1f77b4; fill-opacity: 0.8; stroke: #1f77b4; stroke-opacity: 0.8"/>
    <path d="M 455.992534 533.328721 
C 460.024748 533.328721 463.892356 531.726706 466.743561 528.8755 
C 469.594767 526.024294 471.196782 522.156687 471.196782 518.124473 
C 471.196782 514.09226 469.594767 510.224652 466.743561 507.373446 
C 463.892356 504.522241 460.024748 502.920225 455.992534 502.920225 
C 451.960321 502.920225 448.092713 504.522241 445.241508 507.373446 
C 442.390302 510.224652 440.788286 514.09226 440.788286 518.124473 
C 440.788286 522.156687 442.390302 526.024294 445.241508 528.8755 
C 448.092713 531.726706 451.960321 533.328721 455.992534 533.328721 
z
" clip-path="url(#pe816cbbc4b)" style="fill: #8c564b; fill-opacity: 0.8; stroke: #8c564b; stroke-opacity: 0.8"/>
    <path d="M 548.32314 94.376733 
C 551.973076 94.376733 555.474011 92.926598 558.054905 90.345704 
C 560.6358 87.76481 562.085934 84.263875 562.085934 80.613939 
C 562.085934 76.964003 560.6358 73.463068 558.054905 70.882174 
C 555.474011 68.30128 551.973076 66.851145 548.32314 66.851145 
C 544.673205 66.851145 541.17227 68.30128 538.591376 70.882174 
C 536.010481 73.463068 534.560347 76.964003 534.560347 80.613939 
C 534.560347 84.263875 536.010481 87.76481 538.591376 90.345704 
C 541.17227 92.926598 544.673205 94.376733 548.32314 94.376733 
z
" clip-path="url(#pe816cbbc4b)" style="fill: #9edae5; fill-opacity: 0.8; stroke: #9edae5; stroke-opacity: 0.8"/>
   </g>
   <g id="text_28">
    <g clip-path="url(#pe816cbbc4b)">
     <!-- sales department -->
     <g transform="translate(17.968266 262.083409) scale(0.1 -0.1)">
      <use xlink:href="#DejaVuSans-73"/>
      <use xlink:href="#DejaVuSans-61" x="52.099609"/>
      <use xlink:href="#DejaVuSans-6c" x="113.378906"/>
      <use xlink:href="#DejaVuSans-65" x="141.162109"/>
      <use xlink:href="#DejaVuSans-73" x="202.685547"/>
      <use xlink:href="#DejaVuSans-20" x="254.785156"/>
      <use xlink:href="#DejaVuSans-64" x="286.572266"/>
      <use xlink:href="#DejaVuSans-65" x="350.048828"/>
      <use xlink:href="#DejaVuSans-70" x="411.572266"/>
      <use xlink:href="#DejaVuSans-61" x="475.048828"/>
      <use xlink:href="#DejaVuSans-72" x="536.328125"/>
      <use xlink:href="#DejaVuSans-74" x="577.441406"/>
      <use xlink:href="#DejaVuSans-6d" x="616.650391"/>
      <use xlink:href="#DejaVuSans-65" x="714.0625"/>
      <use xlink:href="#DejaVuSans-6e" x="775.585938"/>
      <use xlink:href="#DejaVuSans-74" x="838.964844"/>
     </g>
    </g>
   </g>
   <g id="text_29">
    <g clip-path="url(#pe816cbbc4b)">
     <!-- engineering department -->
     <g transform="translate(394.905034 520.883848) scale(0.1 -0.1)">
      <use xlink:href="#DejaVuSans-65"/>
      <use xlink:href="#DejaVuSans-6e" x="61.523438"/>
      <use xlink:href="#DejaVuSans-67" x="124.902344"/>
      <use xlink:href="#DejaVuSans-69" x="188.378906"/>
      <use xlink:href="#DejaVuSans-6e" x="216.162109"/>
      <use xlink:href="#DejaVuSans-65" x="279.541016"/>
      <use xlink:href="#DejaVuSans-65" x="341.064453"/>
      <use xlink:href="#DejaVuSans-72" x="402.587891"/>
      <use xlink:href="#DejaVuSans-69" x="443.701172"/>
      <use xlink:href="#DejaVuSans-6e" x="471.484375"/>
      <use xlink:href="#DejaVuSans-67" x="534.863281"/>
      <use xlink:href="#DejaVuSans-20" x="598.339844"/>
      <use xlink:href="#DejaVuSans-64" x="630.126953"/>
      <use xlink:href="#DejaVuSans-65" x="693.603516"/>
      <use xlink:href="#DejaVuSans-70" x="755.126953"/>
      <use xlink:href="#DejaVuSans-61" x="818.603516"/>
      <use xlink:href="#DejaVuSans-72" x="879.882812"/>
      <use xlink:href="#DejaVuSans-74" x="920.996094"/>
      <use xlink:href="#DejaVuSans-6d" x="960.205078"/>
      <use xlink:href="#DejaVuSans-65" x="1057.617188"/>
      <use xlink:href="#DejaVuSans-6e" x="1119.140625"/>
      <use xlink:href="#DejaVuSans-74" x="1182.519531"/>
     </g>
    </g>
   </g>
   <g id="text_30">
    <g clip-path="url(#pe816cbbc4b)">
     <!-- storehouse -->
     <g transform="translate(520.601265 83.373314) scale(0.1 -0.1)">
      <use xlink:href="#DejaVuSans-73"/>
      <use xlink:href="#DejaVuSans-74" x="52.099609"/>
      <use xlink:href="#DejaVuSans-6f" x="91.308594"/>
      <use xlink:href="#DejaVuSans-72" x="152.490234"/>
      <use xlink:href="#DejaVuSans-65" x="191.353516"/>
      <use xlink:href="#DejaVuSans-68" x="252.876953"/>
      <use xlink:href="#DejaVuSans-6f" x="316.255859"/>
      <use xlink:href="#DejaVuSans-75" x="377.4375"/>
      <use xlink:href="#DejaVuSans-73" x="440.816406"/>
      <use xlink:href="#DejaVuSans-65" x="492.916016"/>
     </g>
    </g>
   </g>
  </g>
 </g>
 <defs>
  <clipPath id="pe816cbbc4b">
   <rect x="10.8" y="10.8" width="588.6" height="554.4"/>
  </clipPath>
 </defs>
</svg>
