<?xml version="1.0" encoding="utf-8" standalone="no"?>
<!DOCTYPE svg PUBLIC "-//W3C//DTD SVG 1.1//EN"
  "http://www.w3.org/Graphics/SVG/1.1/DTD/svg11.dtd">
<svg xmlns:xlink="http://www.w3.org/1999/xlink" width="864pt" height="576pt" viewBox="0 0 864 576" xmlns="http://www.w3.org/2000/svg" version="1.1">
 <metadata>
  <rdf:RDF xmlns:dc="http://purl.org/dc/elements/1.1/" xmlns:cc="http://creativecommons.org/ns#" xmlns:rdf="http://www.w3.org/1999/02/22-rdf-syntax-ns#">
   <cc:Work>
    <dc:type rdf:resource="http://purl.org/dc/dcmitype/StillImage"/>
    <dc:date>2023-07-13T15:43:35.625509</dc:date>
    <dc:format>image/svg+xml</dc:format>
    <dc:creator>
     <cc:Agent>
      <dc:title>Matplotlib v3.7.1, https://matplotlib.org/</dc:title>
     </cc:Agent>
    </dc:creator>
   </cc:Work>
  </rdf:RDF>
 </metadata>
 <defs>
  <style type="text/css">*{stroke-linejoin: round; stroke-linecap: butt}</style>
 </defs>
 <g id="figure_1">
  <g id="patch_1">
   <path d="M 0 576 
L 864 576 
L 864 0 
L 0 0 
z
" style="fill: #ffffff"/>
  </g>
  <g id="axes_1">
   <g id="table_1">
    <g id="patch_2">
     <path d="M 628.83 57 
L 656.999958 57 
L 656.999958 10.8 
L 628.83 10.8 
z
" style="fill: #ffffff; stroke: #000000; stroke-linejoin: miter"/>
    </g>
    <g id="text_1">
     <!-- Edge Number -->
     <g transform="translate(625.785291 35.279688) scale(0.05 -0.05)">
      <defs>
       <path id="DejaVuSans-45" d="M 628 4666 
L 3578 4666 
L 3578 4134 
L 1259 4134 
L 1259 2753 
L 3481 2753 
L 3481 2222 
L 1259 2222 
L 1259 531 
L 3634 531 
L 3634 0 
L 628 0 
L 628 4666 
z
" transform="scale(0.015625)"/>
       <path id="DejaVuSans-64" d="M 2906 2969 
L 2906 4863 
L 3481 4863 
L 3481 0 
L 2906 0 
L 2906 525 
Q 2725 213 2448 61 
Q 2172 -91 1784 -91 
Q 1150 -91 751 415 
Q 353 922 353 1747 
Q 353 2572 751 3078 
Q 1150 3584 1784 3584 
Q 2172 3584 2448 3432 
Q 2725 3281 2906 2969 
z
M 947 1747 
Q 947 1113 1208 752 
Q 1469 391 1925 391 
Q 2381 391 2643 752 
Q 2906 1113 2906 1747 
Q 2906 2381 2643 2742 
Q 2381 3103 1925 3103 
Q 1469 3103 1208 2742 
Q 947 2381 947 1747 
z
" transform="scale(0.015625)"/>
       <path id="DejaVuSans-67" d="M 2906 1791 
Q 2906 2416 2648 2759 
Q 2391 3103 1925 3103 
Q 1463 3103 1205 2759 
Q 947 2416 947 1791 
Q 947 1169 1205 825 
Q 1463 481 1925 481 
Q 2391 481 2648 825 
Q 2906 1169 2906 1791 
z
M 3481 434 
Q 3481 -459 3084 -895 
Q 2688 -1331 1869 -1331 
Q 1566 -1331 1297 -1286 
Q 1028 -1241 775 -1147 
L 775 -588 
Q 1028 -725 1275 -790 
Q 1522 -856 1778 -856 
Q 2344 -856 2625 -561 
Q 2906 -266 2906 331 
L 2906 616 
Q 2728 306 2450 153 
Q 2172 0 1784 0 
Q 1141 0 747 490 
Q 353 981 353 1791 
Q 353 2603 747 3093 
Q 1141 3584 1784 3584 
Q 2172 3584 2450 3431 
Q 2728 3278 2906 2969 
L 2906 3500 
L 3481 3500 
L 3481 434 
z
" transform="scale(0.015625)"/>
       <path id="DejaVuSans-65" d="M 3597 1894 
L 3597 1613 
L 953 1613 
Q 991 1019 1311 708 
Q 1631 397 2203 397 
Q 2534 397 2845 478 
Q 3156 559 3463 722 
L 3463 178 
Q 3153 47 2828 -22 
Q 2503 -91 2169 -91 
Q 1331 -91 842 396 
Q 353 884 353 1716 
Q 353 2575 817 3079 
Q 1281 3584 2069 3584 
Q 2775 3584 3186 3129 
Q 3597 2675 3597 1894 
z
M 3022 2063 
Q 3016 2534 2758 2815 
Q 2500 3097 2075 3097 
Q 1594 3097 1305 2825 
Q 1016 2553 972 2059 
L 3022 2063 
z
" transform="scale(0.015625)"/>
       <path id="DejaVuSans-20" transform="scale(0.015625)"/>
       <path id="DejaVuSans-4e" d="M 628 4666 
L 1478 4666 
L 3547 763 
L 3547 4666 
L 4159 4666 
L 4159 0 
L 3309 0 
L 1241 3903 
L 1241 0 
L 628 0 
L 628 4666 
z
" transform="scale(0.015625)"/>
       <path id="DejaVuSans-75" d="M 544 1381 
L 544 3500 
L 1119 3500 
L 1119 1403 
Q 1119 906 1312 657 
Q 1506 409 1894 409 
Q 2359 409 2629 706 
Q 2900 1003 2900 1516 
L 2900 3500 
L 3475 3500 
L 3475 0 
L 2900 0 
L 2900 538 
Q 2691 219 2414 64 
Q 2138 -91 1772 -91 
Q 1169 -91 856 284 
Q 544 659 544 1381 
z
M 1991 3584 
L 1991 3584 
z
" transform="scale(0.015625)"/>
       <path id="DejaVuSans-6d" d="M 3328 2828 
Q 3544 3216 3844 3400 
Q 4144 3584 4550 3584 
Q 5097 3584 5394 3201 
Q 5691 2819 5691 2113 
L 5691 0 
L 5113 0 
L 5113 2094 
Q 5113 2597 4934 2840 
Q 4756 3084 4391 3084 
Q 3944 3084 3684 2787 
Q 3425 2491 3425 1978 
L 3425 0 
L 2847 0 
L 2847 2094 
Q 2847 2600 2669 2842 
Q 2491 3084 2119 3084 
Q 1678 3084 1418 2786 
Q 1159 2488 1159 1978 
L 1159 0 
L 581 0 
L 581 3500 
L 1159 3500 
L 1159 2956 
Q 1356 3278 1631 3431 
Q 1906 3584 2284 3584 
Q 2666 3584 2933 3390 
Q 3200 3197 3328 2828 
z
" transform="scale(0.015625)"/>
       <path id="DejaVuSans-62" d="M 3116 1747 
Q 3116 2381 2855 2742 
Q 2594 3103 2138 3103 
Q 1681 3103 1420 2742 
Q 1159 2381 1159 1747 
Q 1159 1113 1420 752 
Q 1681 391 2138 391 
Q 2594 391 2855 752 
Q 3116 1113 3116 1747 
z
M 1159 2969 
Q 1341 3281 1617 3432 
Q 1894 3584 2278 3584 
Q 2916 3584 3314 3078 
Q 3713 2572 3713 1747 
Q 3713 922 3314 415 
Q 2916 -91 2278 -91 
Q 1894 -91 1617 61 
Q 1341 213 1159 525 
L 1159 0 
L 581 0 
L 581 4863 
L 1159 4863 
L 1159 2969 
z
" transform="scale(0.015625)"/>
       <path id="DejaVuSans-72" d="M 2631 2963 
Q 2534 3019 2420 3045 
Q 2306 3072 2169 3072 
Q 1681 3072 1420 2755 
Q 1159 2438 1159 1844 
L 1159 0 
L 581 0 
L 581 3500 
L 1159 3500 
L 1159 2956 
Q 1341 3275 1631 3429 
Q 1922 3584 2338 3584 
Q 2397 3584 2469 3576 
Q 2541 3569 2628 3553 
L 2631 2963 
z
" transform="scale(0.015625)"/>
      </defs>
      <use xlink:href="#DejaVuSans-45"/>
      <use xlink:href="#DejaVuSans-64" x="63.183594"/>
      <use xlink:href="#DejaVuSans-67" x="126.660156"/>
      <use xlink:href="#DejaVuSans-65" x="190.136719"/>
      <use xlink:href="#DejaVuSans-20" x="251.660156"/>
      <use xlink:href="#DejaVuSans-4e" x="283.447266"/>
      <use xlink:href="#DejaVuSans-75" x="358.251953"/>
      <use xlink:href="#DejaVuSans-6d" x="421.630859"/>
      <use xlink:href="#DejaVuSans-62" x="519.042969"/>
      <use xlink:href="#DejaVuSans-65" x="582.519531"/>
      <use xlink:href="#DejaVuSans-72" x="644.042969"/>
     </g>
    </g>
    <g id="patch_3">
     <path d="M 656.999958 57 
L 746.55 57 
L 746.55 10.8 
L 656.999958 10.8 
z
" style="fill: #ffffff; stroke: #000000; stroke-linejoin: miter"/>
    </g>
    <g id="text_2">
     <!-- Edge Activity -->
     <g transform="translate(685.338651 35.279688) scale(0.05 -0.05)">
      <defs>
       <path id="DejaVuSans-41" d="M 2188 4044 
L 1331 1722 
L 3047 1722 
L 2188 4044 
z
M 1831 4666 
L 2547 4666 
L 4325 0 
L 3669 0 
L 3244 1197 
L 1141 1197 
L 716 0 
L 50 0 
L 1831 4666 
z
" transform="scale(0.015625)"/>
       <path id="DejaVuSans-63" d="M 3122 3366 
L 3122 2828 
Q 2878 2963 2633 3030 
Q 2388 3097 2138 3097 
Q 1578 3097 1268 2742 
Q 959 2388 959 1747 
Q 959 1106 1268 751 
Q 1578 397 2138 397 
Q 2388 397 2633 464 
Q 2878 531 3122 666 
L 3122 134 
Q 2881 22 2623 -34 
Q 2366 -91 2075 -91 
Q 1284 -91 818 406 
Q 353 903 353 1747 
Q 353 2603 823 3093 
Q 1294 3584 2113 3584 
Q 2378 3584 2631 3529 
Q 2884 3475 3122 3366 
z
" transform="scale(0.015625)"/>
       <path id="DejaVuSans-74" d="M 1172 4494 
L 1172 3500 
L 2356 3500 
L 2356 3053 
L 1172 3053 
L 1172 1153 
Q 1172 725 1289 603 
Q 1406 481 1766 481 
L 2356 481 
L 2356 0 
L 1766 0 
Q 1100 0 847 248 
Q 594 497 594 1153 
L 594 3053 
L 172 3053 
L 172 3500 
L 594 3500 
L 594 4494 
L 1172 4494 
z
" transform="scale(0.015625)"/>
       <path id="DejaVuSans-69" d="M 603 3500 
L 1178 3500 
L 1178 0 
L 603 0 
L 603 3500 
z
M 603 4863 
L 1178 4863 
L 1178 4134 
L 603 4134 
L 603 4863 
z
" transform="scale(0.015625)"/>
       <path id="DejaVuSans-76" d="M 191 3500 
L 800 3500 
L 1894 563 
L 2988 3500 
L 3597 3500 
L 2284 0 
L 1503 0 
L 191 3500 
z
" transform="scale(0.015625)"/>
       <path id="DejaVuSans-79" d="M 2059 -325 
Q 1816 -950 1584 -1140 
Q 1353 -1331 966 -1331 
L 506 -1331 
L 506 -850 
L 844 -850 
Q 1081 -850 1212 -737 
Q 1344 -625 1503 -206 
L 1606 56 
L 191 3500 
L 800 3500 
L 1894 763 
L 2988 3500 
L 3597 3500 
L 2059 -325 
z
" transform="scale(0.015625)"/>
      </defs>
      <use xlink:href="#DejaVuSans-45"/>
      <use xlink:href="#DejaVuSans-64" x="63.183594"/>
      <use xlink:href="#DejaVuSans-67" x="126.660156"/>
      <use xlink:href="#DejaVuSans-65" x="190.136719"/>
      <use xlink:href="#DejaVuSans-20" x="251.660156"/>
      <use xlink:href="#DejaVuSans-41" x="283.447266"/>
      <use xlink:href="#DejaVuSans-63" x="350.105469"/>
      <use xlink:href="#DejaVuSans-74" x="405.085938"/>
      <use xlink:href="#DejaVuSans-69" x="444.294922"/>
      <use xlink:href="#DejaVuSans-76" x="472.078125"/>
      <use xlink:href="#DejaVuSans-69" x="531.257812"/>
      <use xlink:href="#DejaVuSans-74" x="559.041016"/>
      <use xlink:href="#DejaVuSans-79" x="598.25"/>
     </g>
    </g>
    <g id="patch_4">
     <path d="M 628.83 103.2 
L 656.999958 103.2 
L 656.999958 57 
L 628.83 57 
z
" style="fill: #ffffff; stroke: #000000; stroke-linejoin: miter"/>
    </g>
    <g id="text_3">
     <!-- 1 -->
     <g transform="translate(641.324354 81.479688) scale(0.05 -0.05)">
      <defs>
       <path id="DejaVuSans-31" d="M 794 531 
L 1825 531 
L 1825 4091 
L 703 3866 
L 703 4441 
L 1819 4666 
L 2450 4666 
L 2450 531 
L 3481 531 
L 3481 0 
L 794 0 
L 794 531 
z
" transform="scale(0.015625)"/>
      </defs>
      <use xlink:href="#DejaVuSans-31"/>
     </g>
    </g>
    <g id="patch_5">
     <path d="M 656.999958 103.2 
L 746.55 103.2 
L 746.55 57 
L 656.999958 57 
z
" style="fill: #ffffff; stroke: #000000; stroke-linejoin: miter"/>
    </g>
    <g id="text_4">
     <!-- draft schedule of meetings -->
     <g transform="translate(668.154276 81.479688) scale(0.05 -0.05)">
      <defs>
       <path id="DejaVuSans-61" d="M 2194 1759 
Q 1497 1759 1228 1600 
Q 959 1441 959 1056 
Q 959 750 1161 570 
Q 1363 391 1709 391 
Q 2188 391 2477 730 
Q 2766 1069 2766 1631 
L 2766 1759 
L 2194 1759 
z
M 3341 1997 
L 3341 0 
L 2766 0 
L 2766 531 
Q 2569 213 2275 61 
Q 1981 -91 1556 -91 
Q 1019 -91 701 211 
Q 384 513 384 1019 
Q 384 1609 779 1909 
Q 1175 2209 1959 2209 
L 2766 2209 
L 2766 2266 
Q 2766 2663 2505 2880 
Q 2244 3097 1772 3097 
Q 1472 3097 1187 3025 
Q 903 2953 641 2809 
L 641 3341 
Q 956 3463 1253 3523 
Q 1550 3584 1831 3584 
Q 2591 3584 2966 3190 
Q 3341 2797 3341 1997 
z
" transform="scale(0.015625)"/>
       <path id="DejaVuSans-66" d="M 2375 4863 
L 2375 4384 
L 1825 4384 
Q 1516 4384 1395 4259 
Q 1275 4134 1275 3809 
L 1275 3500 
L 2222 3500 
L 2222 3053 
L 1275 3053 
L 1275 0 
L 697 0 
L 697 3053 
L 147 3053 
L 147 3500 
L 697 3500 
L 697 3744 
Q 697 4328 969 4595 
Q 1241 4863 1831 4863 
L 2375 4863 
z
" transform="scale(0.015625)"/>
       <path id="DejaVuSans-73" d="M 2834 3397 
L 2834 2853 
Q 2591 2978 2328 3040 
Q 2066 3103 1784 3103 
Q 1356 3103 1142 2972 
Q 928 2841 928 2578 
Q 928 2378 1081 2264 
Q 1234 2150 1697 2047 
L 1894 2003 
Q 2506 1872 2764 1633 
Q 3022 1394 3022 966 
Q 3022 478 2636 193 
Q 2250 -91 1575 -91 
Q 1294 -91 989 -36 
Q 684 19 347 128 
L 347 722 
Q 666 556 975 473 
Q 1284 391 1588 391 
Q 1994 391 2212 530 
Q 2431 669 2431 922 
Q 2431 1156 2273 1281 
Q 2116 1406 1581 1522 
L 1381 1569 
Q 847 1681 609 1914 
Q 372 2147 372 2553 
Q 372 3047 722 3315 
Q 1072 3584 1716 3584 
Q 2034 3584 2315 3537 
Q 2597 3491 2834 3397 
z
" transform="scale(0.015625)"/>
       <path id="DejaVuSans-68" d="M 3513 2113 
L 3513 0 
L 2938 0 
L 2938 2094 
Q 2938 2591 2744 2837 
Q 2550 3084 2163 3084 
Q 1697 3084 1428 2787 
Q 1159 2491 1159 1978 
L 1159 0 
L 581 0 
L 581 4863 
L 1159 4863 
L 1159 2956 
Q 1366 3272 1645 3428 
Q 1925 3584 2291 3584 
Q 2894 3584 3203 3211 
Q 3513 2838 3513 2113 
z
" transform="scale(0.015625)"/>
       <path id="DejaVuSans-6c" d="M 603 4863 
L 1178 4863 
L 1178 0 
L 603 0 
L 603 4863 
z
" transform="scale(0.015625)"/>
       <path id="DejaVuSans-6f" d="M 1959 3097 
Q 1497 3097 1228 2736 
Q 959 2375 959 1747 
Q 959 1119 1226 758 
Q 1494 397 1959 397 
Q 2419 397 2687 759 
Q 2956 1122 2956 1747 
Q 2956 2369 2687 2733 
Q 2419 3097 1959 3097 
z
M 1959 3584 
Q 2709 3584 3137 3096 
Q 3566 2609 3566 1747 
Q 3566 888 3137 398 
Q 2709 -91 1959 -91 
Q 1206 -91 779 398 
Q 353 888 353 1747 
Q 353 2609 779 3096 
Q 1206 3584 1959 3584 
z
" transform="scale(0.015625)"/>
       <path id="DejaVuSans-6e" d="M 3513 2113 
L 3513 0 
L 2938 0 
L 2938 2094 
Q 2938 2591 2744 2837 
Q 2550 3084 2163 3084 
Q 1697 3084 1428 2787 
Q 1159 2491 1159 1978 
L 1159 0 
L 581 0 
L 581 3500 
L 1159 3500 
L 1159 2956 
Q 1366 3272 1645 3428 
Q 1925 3584 2291 3584 
Q 2894 3584 3203 3211 
Q 3513 2838 3513 2113 
z
" transform="scale(0.015625)"/>
      </defs>
      <use xlink:href="#DejaVuSans-64"/>
      <use xlink:href="#DejaVuSans-72" x="63.476562"/>
      <use xlink:href="#DejaVuSans-61" x="104.589844"/>
      <use xlink:href="#DejaVuSans-66" x="165.869141"/>
      <use xlink:href="#DejaVuSans-74" x="199.324219"/>
      <use xlink:href="#DejaVuSans-20" x="238.533203"/>
      <use xlink:href="#DejaVuSans-73" x="270.320312"/>
      <use xlink:href="#DejaVuSans-63" x="322.419922"/>
      <use xlink:href="#DejaVuSans-68" x="377.400391"/>
      <use xlink:href="#DejaVuSans-65" x="440.779297"/>
      <use xlink:href="#DejaVuSans-64" x="502.302734"/>
      <use xlink:href="#DejaVuSans-75" x="565.779297"/>
      <use xlink:href="#DejaVuSans-6c" x="629.158203"/>
      <use xlink:href="#DejaVuSans-65" x="656.941406"/>
      <use xlink:href="#DejaVuSans-20" x="718.464844"/>
      <use xlink:href="#DejaVuSans-6f" x="750.251953"/>
      <use xlink:href="#DejaVuSans-66" x="811.433594"/>
      <use xlink:href="#DejaVuSans-20" x="846.638672"/>
      <use xlink:href="#DejaVuSans-6d" x="878.425781"/>
      <use xlink:href="#DejaVuSans-65" x="975.837891"/>
      <use xlink:href="#DejaVuSans-65" x="1037.361328"/>
      <use xlink:href="#DejaVuSans-74" x="1098.884766"/>
      <use xlink:href="#DejaVuSans-69" x="1138.09375"/>
      <use xlink:href="#DejaVuSans-6e" x="1165.876953"/>
      <use xlink:href="#DejaVuSans-67" x="1229.255859"/>
      <use xlink:href="#DejaVuSans-73" x="1292.732422"/>
     </g>
    </g>
    <g id="patch_6">
     <path d="M 628.83 149.4 
L 656.999958 149.4 
L 656.999958 103.2 
L 628.83 103.2 
z
" style="fill: #ffffff; stroke: #000000; stroke-linejoin: miter"/>
    </g>
    <g id="text_5">
     <!-- 2 -->
     <g transform="translate(641.324354 127.679688) scale(0.05 -0.05)">
      <defs>
       <path id="DejaVuSans-32" d="M 1228 531 
L 3431 531 
L 3431 0 
L 469 0 
L 469 531 
Q 828 903 1448 1529 
Q 2069 2156 2228 2338 
Q 2531 2678 2651 2914 
Q 2772 3150 2772 3378 
Q 2772 3750 2511 3984 
Q 2250 4219 1831 4219 
Q 1534 4219 1204 4116 
Q 875 4013 500 3803 
L 500 4441 
Q 881 4594 1212 4672 
Q 1544 4750 1819 4750 
Q 2544 4750 2975 4387 
Q 3406 4025 3406 3419 
Q 3406 3131 3298 2873 
Q 3191 2616 2906 2266 
Q 2828 2175 2409 1742 
Q 1991 1309 1228 531 
z
" transform="scale(0.015625)"/>
      </defs>
      <use xlink:href="#DejaVuSans-32"/>
     </g>
    </g>
    <g id="patch_7">
     <path d="M 656.999958 149.4 
L 746.55 149.4 
L 746.55 103.2 
L 656.999958 103.2 
z
" style="fill: #ffffff; stroke: #000000; stroke-linejoin: miter"/>
    </g>
    <g id="text_6">
     <!-- add draft dates to calendars -->
     <g transform="translate(666.304666 127.679688) scale(0.05 -0.05)">
      <use xlink:href="#DejaVuSans-61"/>
      <use xlink:href="#DejaVuSans-64" x="61.279297"/>
      <use xlink:href="#DejaVuSans-64" x="124.755859"/>
      <use xlink:href="#DejaVuSans-20" x="188.232422"/>
      <use xlink:href="#DejaVuSans-64" x="220.019531"/>
      <use xlink:href="#DejaVuSans-72" x="283.496094"/>
      <use xlink:href="#DejaVuSans-61" x="324.609375"/>
      <use xlink:href="#DejaVuSans-66" x="385.888672"/>
      <use xlink:href="#DejaVuSans-74" x="419.34375"/>
      <use xlink:href="#DejaVuSans-20" x="458.552734"/>
      <use xlink:href="#DejaVuSans-64" x="490.339844"/>
      <use xlink:href="#DejaVuSans-61" x="553.816406"/>
      <use xlink:href="#DejaVuSans-74" x="615.095703"/>
      <use xlink:href="#DejaVuSans-65" x="654.304688"/>
      <use xlink:href="#DejaVuSans-73" x="715.828125"/>
      <use xlink:href="#DejaVuSans-20" x="767.927734"/>
      <use xlink:href="#DejaVuSans-74" x="799.714844"/>
      <use xlink:href="#DejaVuSans-6f" x="838.923828"/>
      <use xlink:href="#DejaVuSans-20" x="900.105469"/>
      <use xlink:href="#DejaVuSans-63" x="931.892578"/>
      <use xlink:href="#DejaVuSans-61" x="986.873047"/>
      <use xlink:href="#DejaVuSans-6c" x="1048.152344"/>
      <use xlink:href="#DejaVuSans-65" x="1075.935547"/>
      <use xlink:href="#DejaVuSans-6e" x="1137.458984"/>
      <use xlink:href="#DejaVuSans-64" x="1200.837891"/>
      <use xlink:href="#DejaVuSans-61" x="1264.314453"/>
      <use xlink:href="#DejaVuSans-72" x="1325.59375"/>
      <use xlink:href="#DejaVuSans-73" x="1366.707031"/>
     </g>
    </g>
    <g id="patch_8">
     <path d="M 628.83 195.6 
L 656.999958 195.6 
L 656.999958 149.4 
L 628.83 149.4 
z
" style="fill: #ffffff; stroke: #000000; stroke-linejoin: miter"/>
    </g>
    <g id="text_7">
     <!-- 3 -->
     <g transform="translate(641.324354 173.879688) scale(0.05 -0.05)">
      <defs>
       <path id="DejaVuSans-33" d="M 2597 2516 
Q 3050 2419 3304 2112 
Q 3559 1806 3559 1356 
Q 3559 666 3084 287 
Q 2609 -91 1734 -91 
Q 1441 -91 1130 -33 
Q 819 25 488 141 
L 488 750 
Q 750 597 1062 519 
Q 1375 441 1716 441 
Q 2309 441 2620 675 
Q 2931 909 2931 1356 
Q 2931 1769 2642 2001 
Q 2353 2234 1838 2234 
L 1294 2234 
L 1294 2753 
L 1863 2753 
Q 2328 2753 2575 2939 
Q 2822 3125 2822 3475 
Q 2822 3834 2567 4026 
Q 2313 4219 1838 4219 
Q 1578 4219 1281 4162 
Q 984 4106 628 3988 
L 628 4550 
Q 988 4650 1302 4700 
Q 1616 4750 1894 4750 
Q 2613 4750 3031 4423 
Q 3450 4097 3450 3541 
Q 3450 3153 3228 2886 
Q 3006 2619 2597 2516 
z
" transform="scale(0.015625)"/>
      </defs>
      <use xlink:href="#DejaVuSans-33"/>
     </g>
    </g>
    <g id="patch_9">
     <path d="M 656.999958 195.6 
L 746.55 195.6 
L 746.55 149.4 
L 656.999958 149.4 
z
" style="fill: #ffffff; stroke: #000000; stroke-linejoin: miter"/>
    </g>
    <g id="text_8">
     <!-- add draft dates to calendars -->
     <g transform="translate(666.304666 173.879688) scale(0.05 -0.05)">
      <use xlink:href="#DejaVuSans-61"/>
      <use xlink:href="#DejaVuSans-64" x="61.279297"/>
      <use xlink:href="#DejaVuSans-64" x="124.755859"/>
      <use xlink:href="#DejaVuSans-20" x="188.232422"/>
      <use xlink:href="#DejaVuSans-64" x="220.019531"/>
      <use xlink:href="#DejaVuSans-72" x="283.496094"/>
      <use xlink:href="#DejaVuSans-61" x="324.609375"/>
      <use xlink:href="#DejaVuSans-66" x="385.888672"/>
      <use xlink:href="#DejaVuSans-74" x="419.34375"/>
      <use xlink:href="#DejaVuSans-20" x="458.552734"/>
      <use xlink:href="#DejaVuSans-64" x="490.339844"/>
      <use xlink:href="#DejaVuSans-61" x="553.816406"/>
      <use xlink:href="#DejaVuSans-74" x="615.095703"/>
      <use xlink:href="#DejaVuSans-65" x="654.304688"/>
      <use xlink:href="#DejaVuSans-73" x="715.828125"/>
      <use xlink:href="#DejaVuSans-20" x="767.927734"/>
      <use xlink:href="#DejaVuSans-74" x="799.714844"/>
      <use xlink:href="#DejaVuSans-6f" x="838.923828"/>
      <use xlink:href="#DejaVuSans-20" x="900.105469"/>
      <use xlink:href="#DejaVuSans-63" x="931.892578"/>
      <use xlink:href="#DejaVuSans-61" x="986.873047"/>
      <use xlink:href="#DejaVuSans-6c" x="1048.152344"/>
      <use xlink:href="#DejaVuSans-65" x="1075.935547"/>
      <use xlink:href="#DejaVuSans-6e" x="1137.458984"/>
      <use xlink:href="#DejaVuSans-64" x="1200.837891"/>
      <use xlink:href="#DejaVuSans-61" x="1264.314453"/>
      <use xlink:href="#DejaVuSans-72" x="1325.59375"/>
      <use xlink:href="#DejaVuSans-73" x="1366.707031"/>
     </g>
    </g>
    <g id="patch_10">
     <path d="M 628.83 241.8 
L 656.999958 241.8 
L 656.999958 195.6 
L 628.83 195.6 
z
" style="fill: #ffffff; stroke: #000000; stroke-linejoin: miter"/>
    </g>
    <g id="text_9">
     <!-- 4 -->
     <g transform="translate(641.324354 220.079688) scale(0.05 -0.05)">
      <defs>
       <path id="DejaVuSans-34" d="M 2419 4116 
L 825 1625 
L 2419 1625 
L 2419 4116 
z
M 2253 4666 
L 3047 4666 
L 3047 1625 
L 3713 1625 
L 3713 1100 
L 3047 1100 
L 3047 0 
L 2419 0 
L 2419 1100 
L 313 1100 
L 313 1709 
L 2253 4666 
z
" transform="scale(0.015625)"/>
      </defs>
      <use xlink:href="#DejaVuSans-34"/>
     </g>
    </g>
    <g id="patch_11">
     <path d="M 656.999958 241.8 
L 746.55 241.8 
L 746.55 195.6 
L 656.999958 195.6 
z
" style="fill: #ffffff; stroke: #000000; stroke-linejoin: miter"/>
    </g>
    <g id="text_10">
     <!-- check dates -->
     <g transform="translate(686.721073 220.079688) scale(0.05 -0.05)">
      <defs>
       <path id="DejaVuSans-6b" d="M 581 4863 
L 1159 4863 
L 1159 1991 
L 2875 3500 
L 3609 3500 
L 1753 1863 
L 3688 0 
L 2938 0 
L 1159 1709 
L 1159 0 
L 581 0 
L 581 4863 
z
" transform="scale(0.015625)"/>
      </defs>
      <use xlink:href="#DejaVuSans-63"/>
      <use xlink:href="#DejaVuSans-68" x="54.980469"/>
      <use xlink:href="#DejaVuSans-65" x="118.359375"/>
      <use xlink:href="#DejaVuSans-63" x="179.882812"/>
      <use xlink:href="#DejaVuSans-6b" x="234.863281"/>
      <use xlink:href="#DejaVuSans-20" x="292.773438"/>
      <use xlink:href="#DejaVuSans-64" x="324.560547"/>
      <use xlink:href="#DejaVuSans-61" x="388.037109"/>
      <use xlink:href="#DejaVuSans-74" x="449.316406"/>
      <use xlink:href="#DejaVuSans-65" x="488.525391"/>
      <use xlink:href="#DejaVuSans-73" x="550.048828"/>
     </g>
    </g>
    <g id="patch_12">
     <path d="M 628.83 288 
L 656.999958 288 
L 656.999958 241.8 
L 628.83 241.8 
z
" style="fill: #ffffff; stroke: #000000; stroke-linejoin: miter"/>
    </g>
    <g id="text_11">
     <!-- 5 -->
     <g transform="translate(641.324354 266.279688) scale(0.05 -0.05)">
      <defs>
       <path id="DejaVuSans-35" d="M 691 4666 
L 3169 4666 
L 3169 4134 
L 1269 4134 
L 1269 2991 
Q 1406 3038 1543 3061 
Q 1681 3084 1819 3084 
Q 2600 3084 3056 2656 
Q 3513 2228 3513 1497 
Q 3513 744 3044 326 
Q 2575 -91 1722 -91 
Q 1428 -91 1123 -41 
Q 819 9 494 109 
L 494 744 
Q 775 591 1075 516 
Q 1375 441 1709 441 
Q 2250 441 2565 725 
Q 2881 1009 2881 1497 
Q 2881 1984 2565 2268 
Q 2250 2553 1709 2553 
Q 1456 2553 1204 2497 
Q 953 2441 691 2322 
L 691 4666 
z
" transform="scale(0.015625)"/>
      </defs>
      <use xlink:href="#DejaVuSans-35"/>
     </g>
    </g>
    <g id="patch_13">
     <path d="M 656.999958 288 
L 746.55 288 
L 746.55 241.8 
L 656.999958 241.8 
z
" style="fill: #ffffff; stroke: #000000; stroke-linejoin: miter"/>
    </g>
    <g id="text_12">
     <!-- check dates -->
     <g transform="translate(686.721073 266.279688) scale(0.05 -0.05)">
      <use xlink:href="#DejaVuSans-63"/>
      <use xlink:href="#DejaVuSans-68" x="54.980469"/>
      <use xlink:href="#DejaVuSans-65" x="118.359375"/>
      <use xlink:href="#DejaVuSans-63" x="179.882812"/>
      <use xlink:href="#DejaVuSans-6b" x="234.863281"/>
      <use xlink:href="#DejaVuSans-20" x="292.773438"/>
      <use xlink:href="#DejaVuSans-64" x="324.560547"/>
      <use xlink:href="#DejaVuSans-61" x="388.037109"/>
      <use xlink:href="#DejaVuSans-74" x="449.316406"/>
      <use xlink:href="#DejaVuSans-65" x="488.525391"/>
      <use xlink:href="#DejaVuSans-73" x="550.048828"/>
     </g>
    </g>
    <g id="patch_14">
     <path d="M 628.83 334.2 
L 656.999958 334.2 
L 656.999958 288 
L 628.83 288 
z
" style="fill: #ffffff; stroke: #000000; stroke-linejoin: miter"/>
    </g>
    <g id="text_13">
     <!-- 6 -->
     <g transform="translate(641.324354 312.479688) scale(0.05 -0.05)">
      <defs>
       <path id="DejaVuSans-36" d="M 2113 2584 
Q 1688 2584 1439 2293 
Q 1191 2003 1191 1497 
Q 1191 994 1439 701 
Q 1688 409 2113 409 
Q 2538 409 2786 701 
Q 3034 994 3034 1497 
Q 3034 2003 2786 2293 
Q 2538 2584 2113 2584 
z
M 3366 4563 
L 3366 3988 
Q 3128 4100 2886 4159 
Q 2644 4219 2406 4219 
Q 1781 4219 1451 3797 
Q 1122 3375 1075 2522 
Q 1259 2794 1537 2939 
Q 1816 3084 2150 3084 
Q 2853 3084 3261 2657 
Q 3669 2231 3669 1497 
Q 3669 778 3244 343 
Q 2819 -91 2113 -91 
Q 1303 -91 875 529 
Q 447 1150 447 2328 
Q 447 3434 972 4092 
Q 1497 4750 2381 4750 
Q 2619 4750 2861 4703 
Q 3103 4656 3366 4563 
z
" transform="scale(0.015625)"/>
      </defs>
      <use xlink:href="#DejaVuSans-36"/>
     </g>
    </g>
    <g id="patch_15">
     <path d="M 656.999958 334.2 
L 746.55 334.2 
L 746.55 288 
L 656.999958 288 
z
" style="fill: #ffffff; stroke: #000000; stroke-linejoin: miter"/>
    </g>
    <g id="text_14">
     <!-- suggest modifications -->
     <g transform="translate(674.280057 312.479688) scale(0.05 -0.05)">
      <use xlink:href="#DejaVuSans-73"/>
      <use xlink:href="#DejaVuSans-75" x="52.099609"/>
      <use xlink:href="#DejaVuSans-67" x="115.478516"/>
      <use xlink:href="#DejaVuSans-67" x="178.955078"/>
      <use xlink:href="#DejaVuSans-65" x="242.431641"/>
      <use xlink:href="#DejaVuSans-73" x="303.955078"/>
      <use xlink:href="#DejaVuSans-74" x="356.054688"/>
      <use xlink:href="#DejaVuSans-20" x="395.263672"/>
      <use xlink:href="#DejaVuSans-6d" x="427.050781"/>
      <use xlink:href="#DejaVuSans-6f" x="524.462891"/>
      <use xlink:href="#DejaVuSans-64" x="585.644531"/>
      <use xlink:href="#DejaVuSans-69" x="649.121094"/>
      <use xlink:href="#DejaVuSans-66" x="676.904297"/>
      <use xlink:href="#DejaVuSans-69" x="712.109375"/>
      <use xlink:href="#DejaVuSans-63" x="739.892578"/>
      <use xlink:href="#DejaVuSans-61" x="794.873047"/>
      <use xlink:href="#DejaVuSans-74" x="856.152344"/>
      <use xlink:href="#DejaVuSans-69" x="895.361328"/>
      <use xlink:href="#DejaVuSans-6f" x="923.144531"/>
      <use xlink:href="#DejaVuSans-6e" x="984.326172"/>
      <use xlink:href="#DejaVuSans-73" x="1047.705078"/>
     </g>
    </g>
    <g id="patch_16">
     <path d="M 628.83 380.4 
L 656.999958 380.4 
L 656.999958 334.2 
L 628.83 334.2 
z
" style="fill: #ffffff; stroke: #000000; stroke-linejoin: miter"/>
    </g>
    <g id="text_15">
     <!-- 7 -->
     <g transform="translate(641.324354 358.679688) scale(0.05 -0.05)">
      <defs>
       <path id="DejaVuSans-37" d="M 525 4666 
L 3525 4666 
L 3525 4397 
L 1831 0 
L 1172 0 
L 2766 4134 
L 525 4134 
L 525 4666 
z
" transform="scale(0.015625)"/>
      </defs>
      <use xlink:href="#DejaVuSans-37"/>
     </g>
    </g>
    <g id="patch_17">
     <path d="M 656.999958 380.4 
L 746.55 380.4 
L 746.55 334.2 
L 656.999958 334.2 
z
" style="fill: #ffffff; stroke: #000000; stroke-linejoin: miter"/>
    </g>
    <g id="text_16">
     <!-- suggest modifications -->
     <g transform="translate(674.280057 358.679688) scale(0.05 -0.05)">
      <use xlink:href="#DejaVuSans-73"/>
      <use xlink:href="#DejaVuSans-75" x="52.099609"/>
      <use xlink:href="#DejaVuSans-67" x="115.478516"/>
      <use xlink:href="#DejaVuSans-67" x="178.955078"/>
      <use xlink:href="#DejaVuSans-65" x="242.431641"/>
      <use xlink:href="#DejaVuSans-73" x="303.955078"/>
      <use xlink:href="#DejaVuSans-74" x="356.054688"/>
      <use xlink:href="#DejaVuSans-20" x="395.263672"/>
      <use xlink:href="#DejaVuSans-6d" x="427.050781"/>
      <use xlink:href="#DejaVuSans-6f" x="524.462891"/>
      <use xlink:href="#DejaVuSans-64" x="585.644531"/>
      <use xlink:href="#DejaVuSans-69" x="649.121094"/>
      <use xlink:href="#DejaVuSans-66" x="676.904297"/>
      <use xlink:href="#DejaVuSans-69" x="712.109375"/>
      <use xlink:href="#DejaVuSans-63" x="739.892578"/>
      <use xlink:href="#DejaVuSans-61" x="794.873047"/>
      <use xlink:href="#DejaVuSans-74" x="856.152344"/>
      <use xlink:href="#DejaVuSans-69" x="895.361328"/>
      <use xlink:href="#DejaVuSans-6f" x="923.144531"/>
      <use xlink:href="#DejaVuSans-6e" x="984.326172"/>
      <use xlink:href="#DejaVuSans-73" x="1047.705078"/>
     </g>
    </g>
    <g id="patch_18">
     <path d="M 628.83 426.6 
L 656.999958 426.6 
L 656.999958 380.4 
L 628.83 380.4 
z
" style="fill: #ffffff; stroke: #000000; stroke-linejoin: miter"/>
    </g>
    <g id="text_17">
     <!-- 8 -->
     <g transform="translate(641.324354 404.879688) scale(0.05 -0.05)">
      <defs>
       <path id="DejaVuSans-38" d="M 2034 2216 
Q 1584 2216 1326 1975 
Q 1069 1734 1069 1313 
Q 1069 891 1326 650 
Q 1584 409 2034 409 
Q 2484 409 2743 651 
Q 3003 894 3003 1313 
Q 3003 1734 2745 1975 
Q 2488 2216 2034 2216 
z
M 1403 2484 
Q 997 2584 770 2862 
Q 544 3141 544 3541 
Q 544 4100 942 4425 
Q 1341 4750 2034 4750 
Q 2731 4750 3128 4425 
Q 3525 4100 3525 3541 
Q 3525 3141 3298 2862 
Q 3072 2584 2669 2484 
Q 3125 2378 3379 2068 
Q 3634 1759 3634 1313 
Q 3634 634 3220 271 
Q 2806 -91 2034 -91 
Q 1263 -91 848 271 
Q 434 634 434 1313 
Q 434 1759 690 2068 
Q 947 2378 1403 2484 
z
M 1172 3481 
Q 1172 3119 1398 2916 
Q 1625 2713 2034 2713 
Q 2441 2713 2670 2916 
Q 2900 3119 2900 3481 
Q 2900 3844 2670 4047 
Q 2441 4250 2034 4250 
Q 1625 4250 1398 4047 
Q 1172 3844 1172 3481 
z
" transform="scale(0.015625)"/>
      </defs>
      <use xlink:href="#DejaVuSans-38"/>
     </g>
    </g>
    <g id="patch_19">
     <path d="M 656.999958 426.6 
L 746.55 426.6 
L 746.55 380.4 
L 656.999958 380.4 
z
" style="fill: #ffffff; stroke: #000000; stroke-linejoin: miter"/>
    </g>
    <g id="text_18">
     <!-- recheck dates -->
     <g transform="translate(684.211307 404.879688) scale(0.05 -0.05)">
      <use xlink:href="#DejaVuSans-72"/>
      <use xlink:href="#DejaVuSans-65" x="38.863281"/>
      <use xlink:href="#DejaVuSans-63" x="100.386719"/>
      <use xlink:href="#DejaVuSans-68" x="155.367188"/>
      <use xlink:href="#DejaVuSans-65" x="218.746094"/>
      <use xlink:href="#DejaVuSans-63" x="280.269531"/>
      <use xlink:href="#DejaVuSans-6b" x="335.25"/>
      <use xlink:href="#DejaVuSans-20" x="393.160156"/>
      <use xlink:href="#DejaVuSans-64" x="424.947266"/>
      <use xlink:href="#DejaVuSans-61" x="488.423828"/>
      <use xlink:href="#DejaVuSans-74" x="549.703125"/>
      <use xlink:href="#DejaVuSans-65" x="588.912109"/>
      <use xlink:href="#DejaVuSans-73" x="650.435547"/>
     </g>
    </g>
    <g id="patch_20">
     <path d="M 628.83 472.8 
L 656.999958 472.8 
L 656.999958 426.6 
L 628.83 426.6 
z
" style="fill: #ffffff; stroke: #000000; stroke-linejoin: miter"/>
    </g>
    <g id="text_19">
     <!-- 9 -->
     <g transform="translate(641.324354 451.079688) scale(0.05 -0.05)">
      <defs>
       <path id="DejaVuSans-39" d="M 703 97 
L 703 672 
Q 941 559 1184 500 
Q 1428 441 1663 441 
Q 2288 441 2617 861 
Q 2947 1281 2994 2138 
Q 2813 1869 2534 1725 
Q 2256 1581 1919 1581 
Q 1219 1581 811 2004 
Q 403 2428 403 3163 
Q 403 3881 828 4315 
Q 1253 4750 1959 4750 
Q 2769 4750 3195 4129 
Q 3622 3509 3622 2328 
Q 3622 1225 3098 567 
Q 2575 -91 1691 -91 
Q 1453 -91 1209 -44 
Q 966 3 703 97 
z
M 1959 2075 
Q 2384 2075 2632 2365 
Q 2881 2656 2881 3163 
Q 2881 3666 2632 3958 
Q 2384 4250 1959 4250 
Q 1534 4250 1286 3958 
Q 1038 3666 1038 3163 
Q 1038 2656 1286 2365 
Q 1534 2075 1959 2075 
z
" transform="scale(0.015625)"/>
      </defs>
      <use xlink:href="#DejaVuSans-39"/>
     </g>
    </g>
    <g id="patch_21">
     <path d="M 656.999958 472.8 
L 746.55 472.8 
L 746.55 426.6 
L 656.999958 426.6 
z
" style="fill: #ffffff; stroke: #000000; stroke-linejoin: miter"/>
    </g>
    <g id="text_20">
     <!-- looks for conflicts -->
     <g transform="translate(679.829666 451.079688) scale(0.05 -0.05)">
      <use xlink:href="#DejaVuSans-6c"/>
      <use xlink:href="#DejaVuSans-6f" x="27.783203"/>
      <use xlink:href="#DejaVuSans-6f" x="88.964844"/>
      <use xlink:href="#DejaVuSans-6b" x="150.146484"/>
      <use xlink:href="#DejaVuSans-73" x="208.056641"/>
      <use xlink:href="#DejaVuSans-20" x="260.15625"/>
      <use xlink:href="#DejaVuSans-66" x="291.943359"/>
      <use xlink:href="#DejaVuSans-6f" x="327.148438"/>
      <use xlink:href="#DejaVuSans-72" x="388.330078"/>
      <use xlink:href="#DejaVuSans-20" x="429.443359"/>
      <use xlink:href="#DejaVuSans-63" x="461.230469"/>
      <use xlink:href="#DejaVuSans-6f" x="516.210938"/>
      <use xlink:href="#DejaVuSans-6e" x="577.392578"/>
      <use xlink:href="#DejaVuSans-66" x="640.771484"/>
      <use xlink:href="#DejaVuSans-6c" x="675.976562"/>
      <use xlink:href="#DejaVuSans-69" x="703.759766"/>
      <use xlink:href="#DejaVuSans-63" x="731.542969"/>
      <use xlink:href="#DejaVuSans-74" x="786.523438"/>
      <use xlink:href="#DejaVuSans-73" x="825.732422"/>
     </g>
    </g>
    <g id="patch_22">
     <path d="M 628.83 519 
L 656.999958 519 
L 656.999958 472.8 
L 628.83 472.8 
z
" style="fill: #ffffff; stroke: #000000; stroke-linejoin: miter"/>
    </g>
    <g id="text_21">
     <!-- 10 -->
     <g transform="translate(639.733729 497.279688) scale(0.05 -0.05)">
      <defs>
       <path id="DejaVuSans-30" d="M 2034 4250 
Q 1547 4250 1301 3770 
Q 1056 3291 1056 2328 
Q 1056 1369 1301 889 
Q 1547 409 2034 409 
Q 2525 409 2770 889 
Q 3016 1369 3016 2328 
Q 3016 3291 2770 3770 
Q 2525 4250 2034 4250 
z
M 2034 4750 
Q 2819 4750 3233 4129 
Q 3647 3509 3647 2328 
Q 3647 1150 3233 529 
Q 2819 -91 2034 -91 
Q 1250 -91 836 529 
Q 422 1150 422 2328 
Q 422 3509 836 4129 
Q 1250 4750 2034 4750 
z
" transform="scale(0.015625)"/>
      </defs>
      <use xlink:href="#DejaVuSans-31"/>
      <use xlink:href="#DejaVuSans-30" x="63.623047"/>
     </g>
    </g>
    <g id="patch_23">
     <path d="M 656.999958 519 
L 746.55 519 
L 746.55 472.8 
L 656.999958 472.8 
z
" style="fill: #ffffff; stroke: #000000; stroke-linejoin: miter"/>
    </g>
    <g id="text_22">
     <!-- send final schedule to committee members -->
     <g transform="translate(647.321073 497.279688) scale(0.05 -0.05)">
      <use xlink:href="#DejaVuSans-73"/>
      <use xlink:href="#DejaVuSans-65" x="52.099609"/>
      <use xlink:href="#DejaVuSans-6e" x="113.623047"/>
      <use xlink:href="#DejaVuSans-64" x="177.001953"/>
      <use xlink:href="#DejaVuSans-20" x="240.478516"/>
      <use xlink:href="#DejaVuSans-66" x="272.265625"/>
      <use xlink:href="#DejaVuSans-69" x="307.470703"/>
      <use xlink:href="#DejaVuSans-6e" x="335.253906"/>
      <use xlink:href="#DejaVuSans-61" x="398.632812"/>
      <use xlink:href="#DejaVuSans-6c" x="459.912109"/>
      <use xlink:href="#DejaVuSans-20" x="487.695312"/>
      <use xlink:href="#DejaVuSans-73" x="519.482422"/>
      <use xlink:href="#DejaVuSans-63" x="571.582031"/>
      <use xlink:href="#DejaVuSans-68" x="626.5625"/>
      <use xlink:href="#DejaVuSans-65" x="689.941406"/>
      <use xlink:href="#DejaVuSans-64" x="751.464844"/>
      <use xlink:href="#DejaVuSans-75" x="814.941406"/>
      <use xlink:href="#DejaVuSans-6c" x="878.320312"/>
      <use xlink:href="#DejaVuSans-65" x="906.103516"/>
      <use xlink:href="#DejaVuSans-20" x="967.626953"/>
      <use xlink:href="#DejaVuSans-74" x="999.414062"/>
      <use xlink:href="#DejaVuSans-6f" x="1038.623047"/>
      <use xlink:href="#DejaVuSans-20" x="1099.804688"/>
      <use xlink:href="#DejaVuSans-63" x="1131.591797"/>
      <use xlink:href="#DejaVuSans-6f" x="1186.572266"/>
      <use xlink:href="#DejaVuSans-6d" x="1247.753906"/>
      <use xlink:href="#DejaVuSans-6d" x="1345.166016"/>
      <use xlink:href="#DejaVuSans-69" x="1442.578125"/>
      <use xlink:href="#DejaVuSans-74" x="1470.361328"/>
      <use xlink:href="#DejaVuSans-74" x="1509.570312"/>
      <use xlink:href="#DejaVuSans-65" x="1548.779297"/>
      <use xlink:href="#DejaVuSans-65" x="1610.302734"/>
      <use xlink:href="#DejaVuSans-20" x="1671.826172"/>
      <use xlink:href="#DejaVuSans-6d" x="1703.613281"/>
      <use xlink:href="#DejaVuSans-65" x="1801.025391"/>
      <use xlink:href="#DejaVuSans-6d" x="1862.548828"/>
      <use xlink:href="#DejaVuSans-62" x="1959.960938"/>
      <use xlink:href="#DejaVuSans-65" x="2023.4375"/>
      <use xlink:href="#DejaVuSans-72" x="2084.960938"/>
      <use xlink:href="#DejaVuSans-73" x="2126.074219"/>
     </g>
    </g>
    <g id="patch_24">
     <path d="M 628.83 565.2 
L 656.999958 565.2 
L 656.999958 519 
L 628.83 519 
z
" style="fill: #ffffff; stroke: #000000; stroke-linejoin: miter"/>
    </g>
    <g id="text_23">
     <!-- 11 -->
     <g transform="translate(639.733729 543.479687) scale(0.05 -0.05)">
      <use xlink:href="#DejaVuSans-31"/>
      <use xlink:href="#DejaVuSans-31" x="63.623047"/>
     </g>
    </g>
    <g id="patch_25">
     <path d="M 656.999958 565.2 
L 746.55 565.2 
L 746.55 519 
L 656.999958 519 
z
" style="fill: #ffffff; stroke: #000000; stroke-linejoin: miter"/>
    </g>
    <g id="text_24">
     <!-- check diaries -->
     <g transform="translate(685.284354 543.479687) scale(0.05 -0.05)">
      <use xlink:href="#DejaVuSans-63"/>
      <use xlink:href="#DejaVuSans-68" x="54.980469"/>
      <use xlink:href="#DejaVuSans-65" x="118.359375"/>
      <use xlink:href="#DejaVuSans-63" x="179.882812"/>
      <use xlink:href="#DejaVuSans-6b" x="234.863281"/>
      <use xlink:href="#DejaVuSans-20" x="292.773438"/>
      <use xlink:href="#DejaVuSans-64" x="324.560547"/>
      <use xlink:href="#DejaVuSans-69" x="388.037109"/>
      <use xlink:href="#DejaVuSans-61" x="415.820312"/>
      <use xlink:href="#DejaVuSans-72" x="477.099609"/>
      <use xlink:href="#DejaVuSans-69" x="518.212891"/>
      <use xlink:href="#DejaVuSans-65" x="545.996094"/>
      <use xlink:href="#DejaVuSans-73" x="607.519531"/>
     </g>
    </g>
   </g>
   <g id="patch_26">
    <path d="M 61.87686 36.71046 
C 93.417826 36.71046 93.417826 80.474767 61.87686 80.474767 
C 30.335893 80.474767 30.335893 36.71046 60.982432 36.71046 
" clip-path="url(#p1d6f83e682)" style="fill: none; stroke: #000000; stroke-opacity: 0.5; stroke-width: 0.8; stroke-linecap: round"/>
    <path d="M 56.982432 34.71046 
L 60.982432 36.71046 
L 56.982432 38.71046 
z
" clip-path="url(#p1d6f83e682)" style="fill-opacity: 0.5; stroke: #000000; stroke-opacity: 0.5; stroke-width: 0.8; stroke-linecap: round"/>
   </g>
   <g id="patch_27">
    <path d="M 67.070125 87.402551 
Q 262.456248 346.693131 540.11716 513.221531 
" clip-path="url(#p1d6f83e682)" style="fill: none; stroke: #000000; stroke-opacity: 0.5; stroke-width: 0.8; stroke-linecap: round"/>
    <path d="M 537.715499 509.448996 
L 540.11716 513.221531 
L 535.658135 512.879339 
z
" clip-path="url(#p1d6f83e682)" style="fill-opacity: 0.5; stroke: #000000; stroke-opacity: 0.5; stroke-width: 0.8; stroke-linecap: round"/>
   </g>
   <g id="patch_28">
    <path d="M 67.070125 87.402551 
Q 262.456248 346.693131 540.11716 513.221531 
" clip-path="url(#p1d6f83e682)" style="fill: none; stroke: #000000; stroke-opacity: 0.5; stroke-width: 0.8; stroke-linecap: round"/>
    <path d="M 537.715499 509.448996 
L 540.11716 513.221531 
L 535.658135 512.879339 
z
" clip-path="url(#p1d6f83e682)" style="fill-opacity: 0.5; stroke: #000000; stroke-opacity: 0.5; stroke-width: 0.8; stroke-linecap: round"/>
   </g>
   <g id="patch_29">
    <path d="M 543.129875 511.190062 
Q 347.743752 251.899482 70.08284 85.371082 
" clip-path="url(#p1d6f83e682)" style="fill: none; stroke: #000000; stroke-opacity: 0.5; stroke-width: 0.8; stroke-linecap: round"/>
    <path d="M 72.484501 89.143618 
L 70.08284 85.371082 
L 74.541865 85.713274 
z
" clip-path="url(#p1d6f83e682)" style="fill-opacity: 0.5; stroke: #000000; stroke-opacity: 0.5; stroke-width: 0.8; stroke-linecap: round"/>
   </g>
   <g id="patch_30">
    <path d="M 543.129875 511.190062 
Q 347.743752 251.899482 70.08284 85.371082 
" clip-path="url(#p1d6f83e682)" style="fill: none; stroke: #000000; stroke-opacity: 0.5; stroke-width: 0.8; stroke-linecap: round"/>
    <path d="M 72.484501 89.143618 
L 70.08284 85.371082 
L 74.541865 85.713274 
z
" clip-path="url(#p1d6f83e682)" style="fill-opacity: 0.5; stroke: #000000; stroke-opacity: 0.5; stroke-width: 0.8; stroke-linecap: round"/>
   </g>
   <g id="patch_31">
    <path d="M 543.129875 511.190062 
Q 347.743752 251.899482 70.08284 85.371082 
" clip-path="url(#p1d6f83e682)" style="fill: none; stroke: #000000; stroke-opacity: 0.5; stroke-width: 0.8; stroke-linecap: round"/>
    <path d="M 72.484501 89.143618 
L 70.08284 85.371082 
L 74.541865 85.713274 
z
" clip-path="url(#p1d6f83e682)" style="fill-opacity: 0.5; stroke: #000000; stroke-opacity: 0.5; stroke-width: 0.8; stroke-linecap: round"/>
   </g>
   <g id="patch_32">
    <path d="M 543.129875 511.190062 
Q 347.743752 251.899482 70.08284 85.371082 
" clip-path="url(#p1d6f83e682)" style="fill: none; stroke: #000000; stroke-opacity: 0.5; stroke-width: 0.8; stroke-linecap: round"/>
    <path d="M 72.484501 89.143618 
L 70.08284 85.371082 
L 74.541865 85.713274 
z
" clip-path="url(#p1d6f83e682)" style="fill-opacity: 0.5; stroke: #000000; stroke-opacity: 0.5; stroke-width: 0.8; stroke-linecap: round"/>
   </g>
   <g id="patch_33">
    <path d="M 61.87686 36.71046 
C 93.417826 36.71046 93.417826 80.474767 61.87686 80.474767 
C 30.335893 80.474767 30.335893 36.71046 60.982432 36.71046 
" clip-path="url(#p1d6f83e682)" style="fill: none; stroke: #000000; stroke-opacity: 0.5; stroke-width: 0.8; stroke-linecap: round"/>
    <path d="M 56.982432 34.71046 
L 60.982432 36.71046 
L 56.982432 38.71046 
z
" clip-path="url(#p1d6f83e682)" style="fill-opacity: 0.5; stroke: #000000; stroke-opacity: 0.5; stroke-width: 0.8; stroke-linecap: round"/>
   </g>
   <g id="patch_34">
    <path d="M 67.070125 87.402551 
Q 262.456248 346.693131 540.11716 513.221531 
" clip-path="url(#p1d6f83e682)" style="fill: none; stroke: #000000; stroke-opacity: 0.5; stroke-width: 0.8; stroke-linecap: round"/>
    <path d="M 537.715499 509.448996 
L 540.11716 513.221531 
L 535.658135 512.879339 
z
" clip-path="url(#p1d6f83e682)" style="fill-opacity: 0.5; stroke: #000000; stroke-opacity: 0.5; stroke-width: 0.8; stroke-linecap: round"/>
   </g>
   <g id="patch_35">
    <path d="M 548.32314 474.353538 
C 579.864107 474.353538 579.864107 518.117846 548.32314 518.117846 
C 516.782174 518.117846 516.782174 474.353538 547.428713 474.353538 
" clip-path="url(#p1d6f83e682)" style="fill: none; stroke: #000000; stroke-opacity: 0.5; stroke-width: 0.8; stroke-linecap: round"/>
    <path d="M 543.428713 472.353538 
L 547.428713 474.353538 
L 543.428713 476.353538 
z
" clip-path="url(#p1d6f83e682)" style="fill-opacity: 0.5; stroke: #000000; stroke-opacity: 0.5; stroke-width: 0.8; stroke-linecap: round"/>
   </g>
   <g id="patch_36">
    <path d="M 548.32314 474.353538 
C 579.864107 474.353538 579.864107 518.117846 548.32314 518.117846 
C 516.782174 518.117846 516.782174 474.353538 547.428713 474.353538 
" clip-path="url(#p1d6f83e682)" style="fill: none; stroke: #000000; stroke-opacity: 0.5; stroke-width: 0.8; stroke-linecap: round"/>
    <path d="M 543.428713 472.353538 
L 547.428713 474.353538 
L 543.428713 476.353538 
z
" clip-path="url(#p1d6f83e682)" style="fill-opacity: 0.5; stroke: #000000; stroke-opacity: 0.5; stroke-width: 0.8; stroke-linecap: round"/>
   </g>
   <g id="text_25">
    <g id="patch_37">
     <path d="M 59.33186 86.746017 
L 64.42186 86.746017 
Q 66.82186 86.746017 66.82186 84.346017 
L 66.82186 76.603517 
Q 66.82186 74.203517 64.42186 74.203517 
L 59.33186 74.203517 
Q 56.93186 74.203517 56.93186 76.603517 
L 56.93186 84.346017 
Q 56.93186 86.746017 59.33186 86.746017 
z
" clip-path="url(#p1d6f83e682)" style="fill: #ffffff; stroke: #ffffff; stroke-linejoin: miter"/>
    </g>
    <g clip-path="url(#p1d6f83e682)">
     <!-- 8 -->
     <g style="fill: #808080" transform="translate(59.33186 82.682267) scale(0.08 -0.08)">
      <use xlink:href="#DejaVuSans-38"/>
     </g>
    </g>
   </g>
   <g id="text_26">
    <g id="patch_38">
     <path d="M 299.596344 303.235262 
L 303.897754 305.956653 
Q 305.925924 307.239823 307.209095 305.211653 
L 311.348656 298.668692 
Q 312.631826 296.640522 310.603656 295.357351 
L 306.302246 292.635961 
Q 304.274076 291.35279 302.990905 293.380961 
L 298.851344 299.923922 
Q 297.568174 301.952092 299.596344 303.235262 
z
" clip-path="url(#p1d6f83e682)" style="fill: #ffffff; stroke: #ffffff; stroke-linejoin: miter"/>
    </g>
    <g clip-path="url(#p1d6f83e682)">
     <!-- 9 -->
     <g style="fill: #808080" transform="translate(301.769045 299.801105) rotate(-327.679527) scale(0.08 -0.08)">
      <use xlink:href="#DejaVuSans-39"/>
     </g>
    </g>
   </g>
   <g id="text_27">
    <g id="patch_39">
     <path d="M 299.596344 303.235262 
L 303.897754 305.956653 
Q 305.925924 307.239823 307.209095 305.211653 
L 311.348656 298.668692 
Q 312.631826 296.640522 310.603656 295.357351 
L 306.302246 292.635961 
Q 304.274076 291.35279 302.990905 293.380961 
L 298.851344 299.923922 
Q 297.568174 301.952092 299.596344 303.235262 
z
" clip-path="url(#p1d6f83e682)" style="fill: #ffffff; stroke: #ffffff; stroke-linejoin: miter"/>
    </g>
    <g clip-path="url(#p1d6f83e682)">
     <!-- 7 -->
     <g style="fill: #808080" transform="translate(301.769045 299.801105) rotate(-327.679527) scale(0.08 -0.08)">
      <use xlink:href="#DejaVuSans-37"/>
     </g>
    </g>
   </g>
   <g id="text_28">
    <g id="patch_40">
     <path d="M 543.23314 524.389096 
L 553.41314 524.389096 
Q 555.81314 524.389096 555.81314 521.989096 
L 555.81314 514.246596 
Q 555.81314 511.846596 553.41314 511.846596 
L 543.23314 511.846596 
Q 540.83314 511.846596 540.83314 514.246596 
L 540.83314 521.989096 
Q 540.83314 524.389096 543.23314 524.389096 
z
" clip-path="url(#p1d6f83e682)" style="fill: #ffffff; stroke: #ffffff; stroke-linejoin: miter"/>
    </g>
    <g clip-path="url(#p1d6f83e682)">
     <!-- 11 -->
     <g style="fill: #808080" transform="translate(543.23314 520.325346) scale(0.08 -0.08)">
      <use xlink:href="#DejaVuSans-31"/>
      <use xlink:href="#DejaVuSans-31" x="63.623047"/>
     </g>
    </g>
   </g>
   <g id="patch_41">
    <path d="M 305.1 518.117846 
C 388.747621 518.117846 468.980513 495.061428 528.128313 454.026501 
C 587.276112 412.991574 620.509664 357.328457 620.509664 299.296307 
C 620.509664 241.264156 587.276112 185.60104 528.128313 144.566112 
C 468.980513 103.531185 388.747621 80.474767 305.1 80.474767 
C 221.452379 80.474767 141.219487 103.531185 82.071687 144.566112 
C 22.923888 185.60104 -10.309664 241.264156 -10.309664 299.296307 
C -10.309664 357.328457 22.923888 412.991574 82.071687 454.026501 
C 141.219487 495.061428 221.452379 518.117846 305.1 518.117846 
L 305.1 518.117846 
z
" clip-path="url(#p1d6f83e682)" style="fill: none; stroke-dasharray: 3.7,1.6; stroke-dashoffset: 0; stroke: #0000ff; stroke-linejoin: miter"/>
   </g>
   <g id="PathCollection_1">
    <path d="M 61.87686 99.839684 
C 67.012495 99.839684 71.93848 97.799274 75.569923 94.167831 
C 79.201366 90.536388 81.241776 85.610403 81.241776 80.474767 
C 81.241776 75.339131 79.201366 70.413146 75.569923 66.781703 
C 71.93848 63.15026 67.012495 61.109851 61.87686 61.109851 
C 56.741224 61.109851 51.815239 63.15026 48.183796 66.781703 
C 44.552353 70.413146 42.511943 75.339131 42.511943 80.474767 
C 42.511943 85.610403 44.552353 90.536388 48.183796 94.167831 
C 51.815239 97.799274 56.741224 99.839684 61.87686 99.839684 
z
" clip-path="url(#p1d6f83e682)" style="fill: #1f77b4; fill-opacity: 0.8; stroke: #1f77b4; stroke-opacity: 0.8"/>
    <path d="M 548.32314 537.482763 
C 553.458776 537.482763 558.384761 535.442353 562.016204 531.81091 
C 565.647647 528.179467 567.688057 523.253482 567.688057 518.117846 
C 567.688057 512.98221 565.647647 508.056225 562.016204 504.424782 
C 558.384761 500.793339 553.458776 498.752929 548.32314 498.752929 
C 543.187505 498.752929 538.26152 500.793339 534.630077 504.424782 
C 530.998634 508.056225 528.958224 512.98221 528.958224 518.117846 
C 528.958224 523.253482 530.998634 528.179467 534.630077 531.81091 
C 538.26152 535.442353 543.187505 537.482763 548.32314 537.482763 
z
" clip-path="url(#p1d6f83e682)" style="fill: #9edae5; fill-opacity: 0.8; stroke: #9edae5; stroke-opacity: 0.8"/>
   </g>
   <g id="text_29">
    <g clip-path="url(#p1d6f83e682)">
     <!-- coordination unit -->
     <g transform="translate(19.391703 83.234142) scale(0.1 -0.1)">
      <use xlink:href="#DejaVuSans-63"/>
      <use xlink:href="#DejaVuSans-6f" x="54.980469"/>
      <use xlink:href="#DejaVuSans-6f" x="116.162109"/>
      <use xlink:href="#DejaVuSans-72" x="177.34375"/>
      <use xlink:href="#DejaVuSans-64" x="216.707031"/>
      <use xlink:href="#DejaVuSans-69" x="280.183594"/>
      <use xlink:href="#DejaVuSans-6e" x="307.966797"/>
      <use xlink:href="#DejaVuSans-61" x="371.345703"/>
      <use xlink:href="#DejaVuSans-74" x="432.625"/>
      <use xlink:href="#DejaVuSans-69" x="471.833984"/>
      <use xlink:href="#DejaVuSans-6f" x="499.617188"/>
      <use xlink:href="#DejaVuSans-6e" x="560.798828"/>
      <use xlink:href="#DejaVuSans-20" x="624.177734"/>
      <use xlink:href="#DejaVuSans-75" x="655.964844"/>
      <use xlink:href="#DejaVuSans-6e" x="719.34375"/>
      <use xlink:href="#DejaVuSans-69" x="782.722656"/>
      <use xlink:href="#DejaVuSans-74" x="810.505859"/>
     </g>
    </g>
   </g>
   <g id="text_30">
    <g clip-path="url(#p1d6f83e682)">
     <!-- u -->
     <g transform="translate(545.15439 520.877221) scale(0.1 -0.1)">
      <use xlink:href="#DejaVuSans-75"/>
     </g>
    </g>
   </g>
  </g>
 </g>
 <defs>
  <clipPath id="p1d6f83e682">
   <rect x="10.8" y="10.8" width="588.6" height="554.4"/>
  </clipPath>
 </defs>
</svg>
